<svg width="80" height="80" viewBox="0 0 80 80" fill="none" xmlns="http://www.w3.org/2000/svg">
<path d="M28.3469 35.2117L40 23.5598L51.6566 35.2164L58.4371 28.4371L40 10L21.5676 28.4312L28.3469 35.2105M10 40L16.7805 33.2184L23.5598 40L16.7793 46.777L10 40ZM28.3469 44.7871L40 56.4379L51.6566 44.7812L58.4406 51.557L40 70L21.5676 51.5664L21.5582 51.5559L28.3469 44.7859M56.4379 40L63.2172 33.2207L70 40L63.2207 46.7793L56.4379 40Z" fill="#F3BA2F"/>
<path d="M46.9952 40.0018L40.003 33L34.8297 38.17L34.2337 38.7659L33.0095 39.9899L33 39.9994L33.0095 40.0089L40.003 47L47 40.0042H46.994" fill="#F3BA2F"/>
</svg>
