<?xml version="1.0" encoding="UTF-8"?>
<svg xmlns="http://www.w3.org/2000/svg" xmlns:xlink="http://www.w3.org/1999/xlink" width="20px" height="20px" viewBox="0 0 20 20" version="1.1">
<g id="surface1">
<path style=" stroke:none;fill-rule:nonzero;fill:rgb(29.803922%,58.039216%,56.078431%);fill-opacity:1;" d="M 6.117188 8.402344 L 10 4.519531 L 13.886719 8.40625 L 16.144531 6.144531 L 10 0 L 3.855469 6.144531 L 6.117188 8.402344 M 0 10 L 2.261719 7.738281 L 4.519531 10 L 2.261719 12.257812 Z M 6.117188 11.59375 L 10 15.480469 L 13.886719 11.59375 L 16.148438 13.851562 L 10 20 L 3.851562 13.851562 L 6.117188 11.59375 M 15.480469 10 L 17.738281 7.738281 L 20 10 L 17.738281 12.261719 Z M 15.480469 10 "/>
<path style=" stroke:none;fill-rule:nonzero;fill:rgb(29.803922%,58.039216%,56.078431%);fill-opacity:1;" d="M 12.332031 10 L 10 7.667969 L 8.078125 9.589844 L 7.667969 9.996094 L 7.667969 10.003906 L 10 12.332031 L 12.332031 10 "/>
</g>
</svg>
