<svg width="80" height="80" viewBox="0 0 80 80" fill="none" xmlns="http://www.w3.org/2000/svg">
<rect x="10" y="10" width="60" height="60" rx="30" fill="#F7931A"/>
<path d="M51.868 36.9936C52.3502 33.7696 49.8957 32.0366 46.5394 30.8805L47.6282 26.5134L44.9698 25.851L43.9099 30.1032C43.211 29.9288 42.4933 29.7646 41.7799 29.6018L42.8476 25.3216L40.1908 24.6592L39.1014 29.0249C38.5231 28.8932 37.955 28.7631 37.4039 28.6259L37.407 28.6122L33.741 27.6967L33.0339 30.5361C33.0339 30.5361 35.0062 30.9882 34.9646 31.016C36.0411 31.2847 36.2358 31.9973 36.2035 32.5621L34.9632 37.5373C35.0373 37.5561 35.1335 37.5834 35.2396 37.626C35.1509 37.604 35.0565 37.5799 34.9586 37.5565L33.2201 44.526C33.0886 44.8531 32.7546 45.3439 32.002 45.1575C32.0287 45.1961 30.0698 44.6753 30.0698 44.6753L28.75 47.7183L32.2095 48.5807C32.8531 48.7421 33.4837 48.911 34.1048 49.0698L33.0047 53.487L35.6601 54.1494L36.7495 49.7791C37.4749 49.976 38.1788 50.1577 38.868 50.3289L37.7823 54.6786L40.4408 55.341L41.5407 50.9321C46.0739 51.79 49.4824 51.4441 50.9171 47.3439C52.0732 44.0427 50.8596 42.1386 48.4747 40.897C50.2117 40.4964 51.5191 39.3535 51.868 36.9936ZM45.7942 45.5106C44.9726 48.8118 39.4145 47.0273 37.6125 46.5798L39.0723 40.7277C40.8742 41.1776 46.6527 42.0678 45.7942 45.5106ZM46.6163 36.9457C45.8669 39.9485 41.2408 38.4229 39.7401 38.0489L41.0637 32.7414C42.5643 33.1155 47.3968 33.8137 46.6163 36.9457Z" fill="white"/>
</svg>
