<svg width="15" height="20" viewBox="0 0 15 20" fill="none" xmlns="http://www.w3.org/2000/svg">
<path d="M14.9608 8.04018C15.2729 5.93865 13.6844 4.809 11.5124 4.05541L12.217 1.20869L10.4966 0.776902L9.8107 3.54866C9.35842 3.43504 8.89396 3.32798 8.43233 3.22185L9.12324 0.431792L7.40393 0L6.69892 2.84579C6.32465 2.75995 5.95704 2.67512 5.6004 2.58574L5.60239 2.57678L3.22995 1.98004L2.77231 3.83086C2.77231 3.83086 4.04868 4.12557 4.02179 4.14371C4.71845 4.31885 4.84443 4.78337 4.82351 5.15156L4.02087 8.39463C4.06884 8.40691 4.13106 8.42466 4.19973 8.45245C4.14233 8.43809 4.08125 8.42242 4.01788 8.40714L2.89285 12.9502C2.80771 13.1634 2.59161 13.4834 2.10454 13.3619C2.12178 13.387 0.854138 13.0476 0.854138 13.0476L0 15.0311L2.2388 15.5933C2.65529 15.6985 3.06343 15.8086 3.46536 15.9121L2.75345 18.7915L4.47184 19.2233L5.17686 16.3745C5.6463 16.5028 6.10188 16.6212 6.54787 16.7328L5.84524 19.5682L7.5657 20L8.27753 17.126C11.2111 17.6853 13.417 17.4598 14.3455 14.7871C15.0936 12.6352 14.3082 11.394 12.7649 10.5846C13.889 10.3235 14.7357 9.57878 14.9614 8.04042L14.9609 8.04003L14.9608 8.04018ZM11.0301 13.592C10.4985 15.7439 6.90153 14.5807 5.73535 14.289L6.68006 10.4743C7.84617 10.7676 11.5858 11.3479 11.0302 13.592H11.0301ZM11.5622 8.009C11.0772 9.96635 8.08342 8.97193 7.11227 8.72809L7.96878 5.26842C8.93993 5.51226 12.0674 5.96736 11.5623 8.009H11.5622Z" fill="#4C948F"/>
</svg>
