<svg width="80" height="80" viewBox="0 0 80 80" fill="none" xmlns="http://www.w3.org/2000/svg">
<path d="M40 70C56.5685 70 70 56.5685 70 40C70 23.4315 56.5685 10 40 10C23.4315 10 10 23.4315 10 40C10 56.5685 23.4315 70 40 70Z" fill="#988430"/>
<path d="M40 69C56.0163 69 69 56.0163 69 40C69 23.9837 56.0163 11 40 11C23.9837 11 11 23.9837 11 40C11 56.0163 23.9837 69 40 69Z" fill="#7A6A2A"/>
<path d="M40.5 69C56.2401 69 69 56.2401 69 40.5C69 24.7599 56.2401 12 40.5 12C24.7599 12 12 24.7599 12 40.5C12 56.2401 24.7599 69 40.5 69Z" fill="#BA9F33"/>
<path fill-rule="evenodd" clip-rule="evenodd" d="M22.9997 36.5918C22.8277 36.4446 22.6461 36.297 22.479 36.1498C22.3119 36.0026 22.1403 35.855 21.9683 35.7078L21.4573 35.2524C21.3738 35.174 21.2854 35.1051 21.2018 35.0265C21.1183 34.9576 21.0201 34.8793 20.9366 34.81C20.2585 34.2068 19.5765 33.6035 18.9079 33C19.6005 33.5941 20.2786 34.184 20.9713 34.787L21.2119 35.0128C21.2954 35.0909 21.3838 35.1601 21.4673 35.2384L21.978 35.6804C22.15 35.8277 22.3171 35.9752 22.489 36.1358C22.661 36.2964 22.828 36.4443 23 36.5912L22.9997 36.5918ZM14.0003 36.5008C14.0003 36.5008 16.4662 36.74 17.6699 36.9012C18.7848 37.0487 22.2727 37.5506 22.2727 37.5506L14.0003 36.5008ZM14.0003 36.5008C14.693 36.556 15.3856 36.6249 16.0783 36.6941C16.4319 36.7263 16.7709 36.7631 17.11 36.7952L17.6304 36.8508C17.8023 36.8736 17.9694 36.8966 18.1414 36.9197L20.2048 37.2282L21.2361 37.3894C21.5752 37.4446 21.9142 37.5047 22.2678 37.56C21.9288 37.5278 21.5752 37.4817 21.2361 37.4355L20.2048 37.2974L18.1414 37.012C17.9694 36.9889 17.8023 36.9565 17.6304 36.9337L17.1097 36.8775C16.7706 36.8453 16.417 36.7992 16.078 36.7622C15.3853 36.6841 14.6927 36.6009 14 36.4998L14.0003 36.5008ZM22.0272 38.1529C22.0272 38.1529 19.3942 38.7795 18.505 39.0191C17.6307 39.2447 14.9828 40 14.9828 40L22.0269 38.1532L22.0272 38.1529Z" fill="#CFB66C"/>
<path fill-rule="evenodd" clip-rule="evenodd" d="M22 38C21.4175 38.1915 20.8383 38.3776 20.2474 38.5529L18.4948 39.0781C17.9124 39.2696 17.3331 39.4557 16.7523 39.6472L15.881 39.9152C15.5922 40.0083 15.2985 40.0902 15 40.1836C15.2885 40.0754 15.5825 39.9647 15.8713 39.8716L16.7426 39.56C17.3251 39.3573 17.9043 39.1657 18.4852 38.9634C19.0773 38.7993 19.6601 38.624 20.2523 38.4653C20.815 38.3066 21.4075 38.1482 22 38.0004V38ZM15.3475 42C15.636 41.8795 18.965 40.1454 19.7385 39.7403C20.1258 39.5376 21.2513 39.0911 21.2513 39.0911L15.3475 42Z" fill="#CFB66C"/>
<path fill-rule="evenodd" clip-rule="evenodd" d="M16.0003 41.6206C16.2669 41.522 16.5186 41.4015 16.7751 41.2869L17.5346 40.943L19.059 40.2306C19.5665 39.9965 20.0597 39.738 20.5831 39.5179C20.85 39.4086 21.117 39.3189 21.3835 39.2342L21.7895 39.1097C21.9279 39.0749 22.0564 39.0348 22.1955 39C21.688 39.2342 21.1538 39.4335 20.6457 39.6625C20.1382 39.9068 19.6193 40.1062 19.0955 40.3252L17.5457 40.9877C17.0254 41.1923 16.518 41.4114 16 41.6206H16.0003ZM16.3386 43C16.3386 43 19.4998 41.2015 20.5878 40.6235C21.1576 40.3147 23 39.4276 23 39.4276L16.3386 43Z" fill="#CFB66C"/>
<path fill-rule="evenodd" clip-rule="evenodd" d="M16 43.4777C16.4794 43.1681 16.9681 42.8537 17.4569 42.5346L18.1864 42.07C18.4354 41.9153 18.6752 41.7703 18.929 41.6156C19.178 41.4607 19.4178 41.306 19.6713 41.1609C19.792 41.0828 19.9184 41.0149 20.0494 40.9578L20.4367 40.7547C20.9486 40.4936 21.4605 40.2273 22 40C21.5112 40.3243 21.0085 40.6001 20.506 40.8851C20.2571 41.0302 20.0032 41.1609 19.7543 41.306C19.5053 41.4511 19.2655 41.6061 19.0117 41.7464C18.7628 41.901 18.5229 42.0461 18.2694 42.1864L17.5177 42.6168L16.0006 43.4777H16ZM21.962 40.3915C21.962 40.3915 20.196 41.8136 19.6242 42.2683C19.0524 42.723 17.3694 44 17.3694 44L21.962 40.3915Z" fill="#CFB66C"/>
<path fill-rule="evenodd" clip-rule="evenodd" d="M32.9638 52.0638L32 50.2345L32.5605 47.9465L36.5586 46.3983L34.857 42.8975L35.6979 39.362L37.2766 36.196L42.1552 35.427L45.7399 32L53.4806 32.5867L55 40.8855L52.074 51.3341L50.4071 56.7435L43.6499 57L40.5126 54.8206L36.839 53.2818L32.9638 52.0638Z" fill="#E2CC85"/>
<path fill-rule="evenodd" clip-rule="evenodd" d="M45 52.1818C45 52.1818 44.0752 52.6163 42.498 52.5163C42.0415 51.8871 38.8447 51.5924 38.8447 51.5924C38.8447 51.5924 38.4456 51.4677 37.7399 51.7673C37.0297 52.0636 36.358 52.027 35.7303 52.1867C35.1025 52.3464 34.4792 51.5075 33.9981 51.3327C33.5169 51.148 32.8789 50.7035 32.8789 50.7035L31.5316 50.5685L28.8262 49.3949L24.5282 45L23.3602 46.8766L23 49.199L24.2995 51.951L27.7981 55.2222L34.6204 57L38.6641 55.7772L43.7297 53.5797L45 52.1814V52.1818Z" fill="#F1D789"/>
<path fill-rule="evenodd" clip-rule="evenodd" d="M20.6304 36.4938L21.5211 33.9282L22.5824 32.2714L26 32L24.974 34.8467L22.1169 39.6831L23.3028 44.0006L21.2011 45L20.5552 44.0577L20.035 41.8966L20 39.4688L20.6304 36.4938Z" fill="#F4ECB4"/>
<path fill-rule="evenodd" clip-rule="evenodd" d="M23.902 51.7753L23.3071 50.8634C23.3071 50.8634 23.1481 50.4298 23.2391 50.051C23.3289 49.6674 23.3161 49.6424 23.2709 49.4979C23.2256 49.3533 22.8439 48.855 22.8666 48.4263C22.8891 47.9927 22.8349 47.8482 23.1253 47.5046C23.4295 47.1708 23.3388 46.5927 23.3388 46.5927L23.7341 46.8617L23.8239 46.7122C23.8239 46.7122 23.9691 46.8367 23.9691 47.0312C24.0008 46.7622 23.8691 45.5162 24.1688 45.2324C24.4685 44.9486 25 46.5628 25 46.5628L24.673 44.2206L23.8326 41.819L22.3382 39.6263L22.2483 37.2093V37C22.2483 37 21.5624 38.1563 21.3716 39.0695C21.2354 39.6973 21.5624 40.4597 21.4944 41.3617C21.4396 42.2589 21.3716 42.1889 21.5714 42.5443C21.7711 42.8997 22.2573 43.6306 22.0666 44.1589C21.8986 44.6125 21.3261 44.2935 21.3261 44.2935C21.3261 44.2935 21.2126 44.6621 21.0581 44.7968C21.0037 44.5777 20.9447 44.4381 20.8357 44.3041C20.8264 44.3888 20.8039 44.5035 20.8039 44.5035C20.8039 44.5035 20.7039 44.1595 20.6039 43.7259C20.468 43.1481 20.3225 42.3857 20.1907 41.977C20.1362 42.2112 20 42.9237 20 42.9237L20.0773 44.0202L20.4497 45.5251L20.809 46.5105L21.1588 47.7164L21.4627 48.5265L21.7079 49.1444L21.9214 50.5349L22.9523 51.7306L23.502 52L23.9014 51.7756L23.902 51.7753Z" fill="#F3E19D"/>
<path fill-rule="evenodd" clip-rule="evenodd" d="M21.1534 34.5447C21.1534 34.5447 20.4799 35.8954 20.286 37.257C20.0921 38.6186 19.9183 40.0574 20.0409 41.9111C20.1648 43.7799 20.4004 44.9261 20.5905 45.7458C20.9173 47.1071 21.7637 49 21.7637 49L21.7925 48.9267C21.6503 48.6082 21.5367 48.273 21.4538 47.9265C21.3421 47.4094 21.3007 46.7948 21.1975 46.5167C21.1065 46.2388 20.9538 45.9995 20.8794 45.658C20.8091 45.3313 20.7977 44.8141 20.582 44.4289C20.4911 44.2726 20.3794 43.8629 20.3465 43.4532C20.3051 42.8383 20.3672 42.1504 20.3176 41.5847C20.2266 40.6431 20.1648 40.0041 20.2473 39.5111C20.3298 39.0181 20.7599 37.6185 21.0243 36.5061C21.1978 35.7938 21.0943 35.1937 21.4124 34.5739C21.7305 33.9594 21.9249 33.4178 21.9949 33.0422C22.0766 32.7007 21.1523 34.5447 21.1523 34.5447H21.1534Z" fill="#F2E8B0"/>
<path fill-rule="evenodd" clip-rule="evenodd" d="M24.8274 34C24.8274 34 24.3972 34.1233 24.1922 34.3397C23.9872 34.5463 23.9 34.7186 23.6235 35.068C23.3469 35.4175 23.3313 35.703 23.1057 36.1409C22.8805 36.5692 22.3833 37.2138 22.3219 37.4452C22.2604 37.6765 22.1581 38.7591 22.0301 39.2711C21.9173 39.783 22.1581 40.4131 22.1581 40.4131L22.4499 40.3537C22.4499 40.3537 22.4499 40.718 22.742 40.9643C23.0338 41.2053 23.0851 40.147 23.0851 40.147L24.1763 36.6084L25.8207 35.5355L26 34.6693L24.8268 34H24.8274Z" fill="#F5EEC0"/>
<path fill-rule="evenodd" clip-rule="evenodd" d="M26.0908 35.4364C26.0908 35.4364 25.2779 35.4868 24.8798 35.7606C24.7184 35.8717 24.6538 35.9629 24.4817 36.0998C24.1642 36.3478 23.841 36.5759 23.6852 36.9011C23.5128 37.2249 23.3244 37.7164 23.1952 38.6432C23.1413 39.0332 23.1413 39.3928 23.1037 39.707C23.0498 40.1323 22.9692 40.4715 23.0121 40.7086C23.0661 41.1947 23.599 41.4481 23.6508 42L24.7542 41.4735L25.7931 37.6189L28 36.3168L26.7511 35L26.0894 35.434L26.0908 35.4364Z" fill="#E6DB9D"/>
<path fill-rule="evenodd" clip-rule="evenodd" d="M20.0003 60.8911C20.0043 60.8541 20.0082 60.8172 20.0122 60.7793C20.1509 59.5159 20.1745 58.5583 20.2762 57.9587C20.4244 57.1087 20.5265 56.7925 20.5033 56.4744C20.4709 55.9635 20.4339 55.59 20.4803 55.1967C20.5497 54.6758 21.0319 54.0568 21.0181 53.6292C21.0087 53.29 20.8464 53.0691 20.7074 52.8627C20.5683 52.6564 20.4571 52.4844 20.4571 52.4844C20.4571 52.4844 21.4074 51.7914 21.3982 49C21.4177 49.0058 21.4363 49.0141 21.4539 49.0246L21.922 50.4348L22.2419 50.8475L23.4703 53.2751L25.0509 54.902L27.3869 56.5677L28.8518 58.2577L29 62.7641L27.0857 65.3981L26.7722 66C24.2814 64.6744 21.9974 62.9512 20 60.8907L20.0003 60.8911Z" fill="#E5CB7A"/>
<path fill-rule="evenodd" clip-rule="evenodd" d="M26 64.657C26 64.657 26.0344 64.1153 26.4967 63.7635C26.5706 63.8822 26.6195 63.9966 26.6049 64.0818C26.6886 63.9395 27.2738 63.0269 28.5968 62.7891C29.9198 62.5563 30.2395 61.6248 30.2395 61.6248L33.0474 59.1581L36.2588 56.3017L40.1638 54.9755L41.9887 54.5428C41.9887 54.5428 42.023 54.6713 41.9543 54.9564C42.2934 54.9329 43.0459 54.7665 43.8278 54.5002C44.1426 54.3815 44.438 54.3338 44.5952 54.4908C44.8264 54.6998 44.8607 55.1942 44.8753 55.4887C45.254 55.4078 45.6916 55.0563 46.0424 55.0895C46.6033 55.1465 47.0999 55.7835 47.6705 55.7835C48.423 55.7835 48.7621 55.3367 49.2886 54.9849C49.6034 54.7759 50.0556 54.5149 50.3114 54.3385C50.9212 53.9059 57.3737 52 57.3737 52L59.6359 52.1426L60 54.4905L59.8055 60.6282C59.7815 60.6504 59.7575 60.6736 59.7332 60.6959L49.4471 65.8877L35.189 68C31.9951 67.4957 28.913 66.4712 26.0739 64.97L26.001 64.6567L26 64.657Z" fill="#D8C173"/>
<path fill-rule="evenodd" clip-rule="evenodd" d="M21 60.6409C21.3482 60.3408 21.6613 60.0898 21.7164 60C21.7599 60.1809 21.8396 60.578 22 61C21.6631 60.882 21.3298 60.7622 21 60.6406V60.6409Z" fill="#F1D789"/>
<path fill-rule="evenodd" clip-rule="evenodd" d="M31.0023 67.6303L32.8557 67.1196L33.0137 67.1686C33.0137 67.1686 33.0978 67.2177 33.0978 67.384C33.3301 67.2519 33.5279 67.2761 33.6712 67.1883C33.7452 67.3449 33.8192 67.864 34.1457 67.9276C34.4865 68.0012 34.8524 67.7807 35.2232 67.5018C35.5888 67.2129 36.0052 66.8504 36.3203 66.7035C36.4359 66.9141 36.5383 67.1315 36.6269 67.3546C37.042 67.0266 37.7638 65.6947 38.7918 65.7189C39.0889 65.0232 39.5853 64.4291 40.2196 64.0099C41.1737 63.3685 41.7716 63.3194 42.5181 63.3781C42.8146 62.9966 43.1799 62.6728 43.5956 62.4233C43.7191 62.4723 44.0603 62.678 44.4855 62.482C44.9156 62.2864 45.3998 61.5271 46.0375 61.4293C46.3811 61.3825 46.7305 61.4551 47.0261 61.6349C47.0261 61.6349 48.8833 59.8081 50.1649 59.2009C50.1153 59.054 50.0166 58.5007 51.5191 57.2763C51.6031 57.3499 51.5438 57.5555 51.6031 57.5668C51.6276 57.5668 51.9941 57.4102 52.4581 57.0574C53.0316 56.6316 53.7185 56.1858 54.1336 56.0635C54.9156 55.8333 55.7452 56.3033 55.7452 56.3033C55.8157 56.2543 55.8944 56.2178 55.9775 56.1955C56.175 56.1613 56.3183 56.1367 56.4272 56.0986C56.4174 56.3533 56.5608 56.7891 56.4272 57.1662C56.5819 57.2524 56.7458 57.3214 56.9159 57.3718C56.8322 57.5529 56.6491 58.0133 56.3428 58.2337C56.5995 58.3561 56.6341 58.4981 57 58.6211C56.8517 58.8268 56.609 59.1796 56.5008 59.3959C56.392 59.6261 56.0013 60.5809 55.8283 60.9431C55.6455 61.3057 55.3985 61.9716 55.2796 62.1053C55.1606 62.2389 54.7309 62.8055 54.3998 63.0844C54.6931 62.9766 55.8928 62.6144 56.4018 62.4772C56.2502 62.6973 55.4822 63.8262 54.7439 64.9118C51.2087 67.0111 47.2625 68.3398 43.1683 68.8094C39.074 69.2789 34.9258 68.8786 31 67.6351L31.0023 67.6303Z" fill="#E0CD81"/>
<path fill-rule="evenodd" clip-rule="evenodd" d="M25.5133 34.8284C25.5133 34.8284 25.0915 34.8284 25.0091 34.8852C24.9266 34.9419 25.4311 35.0604 25.5862 35.1172C25.7413 35.174 26.0761 35.4341 26.1634 35.6424C26.2459 35.8411 29.1951 37 29.1951 37L31.2809 36.8958L32 35.9268L30.6321 34.7582L31.5913 32L30.3206 32.1987L27.2646 33.9764L25.7317 34.549L25.5133 34.8284Z" fill="#DFC57C"/>
<path fill-rule="evenodd" clip-rule="evenodd" d="M30.006 36.0658C30.0341 36.1208 30.0738 36.1659 30.121 36.1966C30.1681 36.2272 30.2212 36.2424 30.2747 36.2405C30.6779 36.2405 31.049 36.3608 31.2031 36.6065C31.4614 37.0002 32.1772 38.2569 32.1772 38.2569L33.8895 39L34 36.5679L32.1292 35L30 35.9452V36.0655H30.0048L30.006 36.0658Z" fill="#E5CC7C"/>
<path fill-rule="evenodd" clip-rule="evenodd" d="M30.1398 37.4941C30.1398 37.4941 30.4852 37.5172 30.921 37.3695C31.3569 37.2217 32.0731 36.9037 32.3838 37.0284C32.8193 37.1989 32.7292 37.734 33.2003 38.2141C33.4856 38.5093 34.0067 38.5002 34.3022 38.8185C34.5977 39.1368 35.6143 38.989 35.6143 38.989L36 40.9044L34.4524 42.731L33.9462 45H31.8535L29.9417 44.3016L29 42.2038L29.4708 40.0823L30.1398 37.4941Z" fill="#D2C281"/>
<path fill-rule="evenodd" clip-rule="evenodd" d="M34.0552 36.9671C34.1076 36.9829 34.1619 36.9912 34.2167 36.9919C34.1561 37.0414 34.0296 37.1498 34.0802 37.4315C34.1308 37.7131 34.2922 38.0687 34.1561 38.2859C34.2648 38.4022 34.3458 38.5405 34.3934 38.691C34.4793 38.9332 34.5045 39.1553 35.0647 39.1902C34.9838 39.2389 34.9093 39.2969 34.8427 39.3631C34.8427 39.3631 35.2314 39.6939 35.4284 40C35.6301 39.9915 36.1653 39.8287 36.1653 39.8287L36.2765 39.903L36.5138 39.8053C36.5138 39.8053 36.2918 39.7213 36.4532 39.1928C36.6046 38.7284 36.7411 38.7532 36.7527 38.7187C36.7644 38.6841 36.8639 38.1951 36.8639 37.9974C36.9394 37.7408 37 36.9603 37 36.9603L36.8386 35.2364L35.93 34.6978L35.1911 34L34.4942 35.2843L34.0353 35.732L34 36.8434L34.0552 36.9671Z" fill="#E2C270"/>
<path fill-rule="evenodd" clip-rule="evenodd" d="M36 35.521C36 35.521 36.1598 35.9703 36.2202 36.316C36.2414 36.2488 36.2532 36.179 36.2551 36.1086C36.2551 36.1086 36.38 36.7903 36.4047 37.0719C36.4548 37.0618 36.5036 37.0471 36.5148 37.0963C36.526 37.1455 36.64 37.694 36.6137 38C36.8219 37.6607 37.11 37.3762 37.4534 37.1705C37.6535 37.0468 37.8885 36.9137 38.1337 36.9036C38.5186 36.8938 38.7985 37.1458 39.2585 37.1458C40.3682 37.1458 41.3735 36.3407 42.1134 36.094C42.6582 35.911 43.1281 35.7779 43.458 35.4813C43.6182 35.3482 43.9033 35.0519 44.163 34.6121C44.5081 34.0262 44.868 33.516 45.2282 33.4519C45.0652 33.4815 44.8994 33.4931 44.7338 33.4864C44.7338 33.4864 44.8439 33.3777 45.0305 33.2296C45.217 33.0814 45.4405 32.8988 45.7601 32.8988C46.3303 32.8988 46.6151 32.9825 46.9351 32.9825C47.2551 32.9727 47.44 32.8988 47.44 32.8988C47.44 32.8988 47.7752 33.1309 48.5299 33.1309C49.285 33.1407 49.7899 33.2048 50.1851 33.2397C50.5802 33.2745 51.9048 33.1309 52.2848 33.142C52.5326 33.1514 52.7758 33.2102 53 33.3149L51.775 29.799L47.3744 26L44.7546 27.8321L40.7245 31.8125L36.8249 33.2397L36.0099 34.1433V35.521H36Z" fill="#CCB360"/>
<path fill-rule="evenodd" clip-rule="evenodd" d="M44.6347 33.1451C44.6347 33.1451 44.7461 33.042 44.9329 32.9011C45.1198 32.7601 45.3483 32.5861 45.6719 32.5861C46.2487 32.5861 46.5373 32.666 46.8612 32.666C47.1852 32.6567 47.3723 32.5861 47.3723 32.5861C47.3723 32.5861 47.7119 32.8066 48.4756 32.8066C49.2399 32.8159 49.751 32.8769 50.151 32.9097C50.551 32.9426 51.8917 32.8066 52.2764 32.8168C52.5271 32.8256 52.7733 32.8815 53 32.9813L52.4382 31.4729L51.7857 30.3219L49.9231 28.4282C49.9231 28.4282 47.6879 27.2066 47.6709 27.1973C47.6609 27.188 46.8966 27 46.8966 27L44.8722 28.137L43.0354 32.5492L43 33.4784L44.189 34C44.4876 33.5354 44.8168 33.1637 45.1254 33.1166C44.8469 33.1448 44.6344 33.1448 44.6344 33.1448L44.6347 33.1451Z" fill="#D5B457"/>
<path fill-rule="evenodd" clip-rule="evenodd" d="M43.999 33.6851C43.8264 33.6948 43.6837 33.6604 43.6441 33.5373C43.4962 33.1234 43.3779 33.0643 43.2541 33.0643C43.1302 33.0643 42.9632 33.3304 42.864 33.3547C42.7649 33.3791 42.6472 33.0494 42.6472 33.0494L42.5387 33C42.5387 33 41.9026 33.4138 41.4541 33.9017C41.0055 34.3896 40.2707 35.2176 39.9404 35.3651C39.6102 35.5126 38.4759 35.5623 38.0878 35.6461C37.6997 35.7299 37.2694 36.0109 37.2102 36.0749C37.1511 36.1389 37.3831 36.2077 37.4176 36.2717C37.452 36.3308 37.0376 36.3062 37.0032 36.3692C36.9788 36.4185 37.1007 36.6992 37.1611 36.8421C37.2669 36.7896 37.383 36.7609 37.5011 36.7583C37.8807 36.7486 38.157 37 38.6104 37C39.7051 37 40.6961 36.1967 41.4258 35.9501C41.9634 35.7679 42.4269 35.6347 42.7522 35.3391C42.9099 35.2063 43.191 34.9103 43.4475 34.4718C43.6347 34.1713 43.8173 33.8904 44 33.6834L43.999 33.6851Z" fill="#D2B257"/>
<path fill-rule="evenodd" clip-rule="evenodd" d="M28.6871 58.3458C28.6871 58.3458 28.5909 57.9925 27.6997 57.0811C27.4468 56.8234 27.2913 56.6092 27.1211 56.456C26.6979 56.0643 26.4498 55.9595 26.1485 55.7352C25.4871 55.2532 24.7675 55.2532 24.2132 54.6614C23.6589 54.0697 23.013 52.939 22.5642 51.7834C22.1218 50.6285 22 50.261 22 50.2277C22 50.1943 22.1218 49.97 22.2773 50.0034C22.4328 50.0367 22.4328 50.3325 22.4719 50.4042C22.5493 50.5213 22.6372 50.6314 22.7344 50.7333C22.963 50.9912 23.2887 51.2996 23.4541 51.7595C23.4201 51.3681 23.2839 50.934 23.2839 50.934C23.2839 50.934 24.1398 51.4638 24.8691 52.0172C25.6035 52.5709 25.9048 52.7618 26.1193 53.1148C26.3338 53.4678 26.839 54.3987 27.081 54.6709C27.323 54.943 30.6393 55.9689 30.6393 55.9689L32.2169 57.1232L33 58.808L32.3871 59.7518L31.2103 60L29.299 59.16L28.6871 58.3455V58.3458Z" fill="#D2B159"/>
<path fill-rule="evenodd" clip-rule="evenodd" d="M25 52.393C25 52.393 25.3943 53.0236 26.3561 53.6206C27.2218 54.1455 28.5921 54.6222 29.8138 54.9062C30.5156 55.0748 31.2178 55.2046 31.8476 55.2144C33.5451 55.2382 34.7135 54.7523 36.1612 54.5933C36.9452 54.5114 37.9069 54.4489 38.907 54.2125C40.1908 53.9043 40.9507 53.5574 41.9847 53.0699C42.7347 52.7233 43.4226 52.4634 43.9801 52.1311C44.7641 51.669 45.3362 51.1539 46 51C45.9182 51.2263 45.8317 51.6306 45.1777 52.0496C45.5239 52.0397 46 52.0159 46 52.0159C46 52.0159 45.5385 52.2901 44.7257 52.9065C44.2255 53.2873 43.562 53.9319 42.884 54.3604C42.4462 54.6349 41.9701 54.8364 41.6575 55.0008C40.8968 55.4198 40.5899 55.6314 40.09 56.1434C40.2679 56.1338 40.2824 56.1434 40.2824 56.1434C40.2824 56.1434 39.6523 56.2252 39.2006 56.4658C39.1055 56.4658 38.9406 56.4322 38.6522 56.5141C38.4261 56.5861 38.1279 56.7502 37.8204 56.8365C37.3826 56.9666 37.2387 56.9089 37.2387 56.9089L37.3106 57.0533C37.3106 57.0533 36.7401 57.0434 36.5499 57.0628C36.5835 57.0723 36.574 57.0869 36.574 57.0869C36.5406 57.0925 36.5084 57.1039 36.4789 57.1206C36.3873 57.1799 36.2867 57.2238 36.1809 57.2504C36.1232 57.2599 36.075 57.2599 36.0027 57.2745C36.0268 57.3322 36.2145 57.6553 36.301 57.8458C36.2291 57.894 35.1469 58.7125 35.1469 58.7125C35.1804 58.7654 35.2079 58.8219 35.2287 58.881C35.2623 58.9867 35.2768 59.141 35.3104 59.213C35.3919 59.3574 35.4401 59.3815 35.4401 59.3815C35.4401 59.3815 35.3104 59.4057 35.0841 59.4634C34.892 59.5117 34.6562 59.5932 34.3233 59.6415C34.2212 59.6548 34.1185 59.6628 34.0155 59.6656C34.0637 59.7716 34.2751 60.1759 33.8856 60.6428C33.496 61.1096 33.3758 61.1775 33.2557 61.4759C33.1952 61.4301 33.1308 61.3897 33.0633 61.3553C32.9336 61.2975 32.7555 61.2112 32.693 61.0953C32.6566 61.2497 32.6084 61.401 32.5488 61.5479C32.4287 61.8704 32.2508 62.1884 32.2172 62.429C32.0873 62.2845 31.847 62.0005 31.5151 62.0583C31.1832 62.116 30.9189 62.5686 30.8612 62.6987C30.8612 62.6168 30.8035 62.5543 30.7892 62.6505C30.7794 62.7565 30.5968 63.8635 29.5773 64.7591C29.5678 64.5328 29.5678 64.032 29.5437 63.8686C29.4486 63.9638 29.3323 64.1044 28.6397 64.403C27.9616 64.7014 28.0691 65 28.0691 65C28.0691 65 28.0114 64.5239 28.3769 64.0225C28.7471 63.522 28.9732 63.2859 28.9732 63.2475C28.9672 63.2084 28.9505 63.1717 28.925 63.1415C28.8768 63.0932 28.7807 63.0355 28.7807 62.9971C28.8384 62.9732 29.4106 62.6987 29.377 62.1303C29.3434 61.6203 29.1272 61.3553 28.9732 61.1677C28.9494 61.1436 29.1995 60.9655 29.1656 60.9078C29.1415 60.8741 28.834 60.6475 28.7953 60.5269C28.8044 60.455 28.8206 60.3841 28.8435 60.3152C28.8771 60.2092 28.9012 60.1369 28.8917 60.0648C28.8676 59.9445 28.7376 59.6123 28.6993 59.5786C28.7329 59.5881 28.9732 59.5786 28.9732 59.5786C28.9732 59.5786 28.7811 59.2704 28.7471 59.126C28.7132 58.9816 28.6413 58.6011 28.6029 58.5291C28.6847 58.5386 28.8866 58.5529 28.8866 58.5291C28.8964 58.4567 28.7088 58.3364 28.7915 58.2434C28.8492 58.2529 28.9598 58.3012 29.0654 58.4361C29.0077 58.2818 28.9117 57.9835 28.7094 57.8632C28.8045 57.8296 29.1279 57.7426 29.4116 57.9111C29.6953 58.0797 29.7919 58.3155 29.7919 58.3155C29.7919 58.3155 29.9603 58.4456 30.2202 58.6382C30.5182 58.874 30.8979 59.2095 31.504 59.4469C31.634 59.5193 31.9656 59.5193 32.2061 59.471C32.3109 59.446 32.4113 59.4055 32.5041 59.3507C32.5376 59.331 32.5731 59.3148 32.61 59.3025C32.5583 59.1986 32.4989 59.0988 32.4322 59.0039C32.5139 59.0039 32.61 59.0137 32.61 59.0137C32.61 59.0137 32.6677 58.8836 32.4081 58.6328C32.4658 58.5751 32.538 58.5376 32.538 58.4402C32.4563 58.4307 32.312 58.3104 32.2784 58.2621C32.3263 58.2285 32.3986 58.1177 32.4803 58.0841C32.4081 58.0263 32.2302 57.7855 32.1485 57.7617C32.2266 57.7326 32.3022 57.6972 32.3745 57.6556C32.3745 57.6556 31.9706 57.5496 31.8407 57.463C31.7107 57.3678 31.5186 57.2031 31.4032 57.1548C31.2828 57.1066 31.0713 57.0828 30.9848 56.9863C31.0663 57.0104 31.1962 56.9863 31.2926 56.9863C31.3645 56.9863 31.3985 56.9958 31.4222 56.9958C31.4127 56.9622 31.4127 56.8898 31.6004 56.866C31.6906 56.8524 31.7782 56.8248 31.86 56.7841C31.86 56.7841 31.6818 56.7746 31.4796 56.582C31.2774 56.3893 31.1094 56.2354 30.994 56.2113C30.8738 56.1872 30.6478 56.2932 30.5083 56.2833C30.3159 56.2595 30.2342 56.163 30.2342 56.163C30.2342 56.163 29.5948 56.2208 28.1762 55.3544C26.9498 54.6031 26.416 53.9389 26.416 53.9389C26.3012 53.8972 26.1903 53.8456 26.0844 53.7846C25.6229 53.5441 24.9832 53.0433 25.0025 52.3882L25 52.393Z" fill="#C2A44D"/>
<path fill-rule="evenodd" clip-rule="evenodd" d="M42.1676 22.612C42.2816 22.6477 42.3829 22.7134 42.46 22.8018C42.6916 23.0578 42.8394 23.5414 42.3122 24.0584C42.5191 24.1293 42.6046 24.1522 42.7852 24.1293C42.6029 24.3381 42.1891 24.7839 42.1644 25.1727C42.1397 25.4903 42.3466 25.5854 42.3466 25.5854C42.3466 25.5854 42.0312 25.9361 42.0166 26.5231C42.1655 26.3615 42.3286 26.2123 42.5039 26.0774C42.8687 25.7976 43.3712 25.48 43.7114 25.2809C43.7067 25.3644 43.7184 25.4479 43.7458 25.5272C43.7458 25.5272 44.3812 25.0246 44.9153 25.2478C45.1567 25.3522 45.0482 25.6791 45.0482 25.6791C45.0482 25.6791 45.3785 25.5607 45.6102 25.7835C45.8418 26.0064 46.1693 26.5813 46.3372 26.8041C46.4109 26.9085 46.6033 27.1076 46.8001 27.4159C47.0691 27.8474 47.2936 28.3031 47.4706 28.7765C47.4804 28.5299 47.5444 28.1461 48.274 28.3877C49.0033 28.6343 49.8311 29.1513 50.5259 30.1694C51.2208 31.1875 51.393 32.3369 51.7429 32.7745C52.0976 33.1965 52.4624 33.8983 52.4871 34.1924C52.5118 34.4865 52.3786 35.4346 53.1079 38C53.3149 37.2035 53.6303 35.4346 53.6303 35.4346L53.8028 33.8745L54 29.0472L48.7613 24.8595L44.6661 22L42 22.2466L42.1673 22.6117L42.1676 22.612Z" fill="#CAA13E"/>
<path fill-rule="evenodd" clip-rule="evenodd" d="M51.9102 29.9997C51.9102 29.9997 51.8345 29.5217 50.5753 28.709C49.3157 27.9066 48.3334 27.9066 47.4268 27.2249C46.7315 26.6883 46.0062 25.4553 45.534 25.0493C45.0754 24.6481 45 23.4877 45 23.4877L46.5465 22.2449L48.8465 19.0545L50.7908 17L51.7226 18.2429L53.0177 19.7027L53.738 22.6324L54 26.9206L51.9079 30L51.9102 29.9997Z" fill="#B59544"/>
<path fill-rule="evenodd" clip-rule="evenodd" d="M53.6975 35.1029C53.7354 34.4547 53.6521 33.8053 53.4517 33.1854C53.1212 32.1976 52.3993 30.4438 52.0639 29.7869C51.9284 29.0593 52.0289 29.0015 52.1743 28.9195C52.3197 28.8376 52.8662 28.5384 53.1655 27.4887C53.4649 26.4389 54.3937 26.4046 54.3937 26.4046L54.965 26L55.8323 28.0861L56.589 29.9702L56.8246 31.4109L57 32.6394L56.589 35.2366L54.5592 37L53.6972 35.1029H53.6975Z" fill="#C89D3A"/>
<path fill-rule="evenodd" clip-rule="evenodd" d="M26 64.3681V64.3167C26.0383 64.2923 26.0722 64.2613 26.1 64.225C26.1318 64.1785 26.1549 64.1229 26.1774 64.1091C26.2231 64.0859 26.4371 64.0174 26.5509 64.0394C26.6647 64.0614 26.9655 64.1877 27.125 64.1785C27.4528 64.1693 27.8353 63.9141 28.4412 64.0302C29.3521 64.2018 29.5662 64.8325 30.0946 65.1895C30.4548 65.4402 30.8277 65.3286 30.8824 65.3286H31.0052C31.028 65.3286 31.1964 65.1339 31.2877 65.1434C31.4699 65.1525 31.4879 65.3057 31.6017 65.3149C31.8704 65.3473 32.3898 65.1758 32.6495 65.2455C32.7265 65.27 32.7966 65.3132 32.8537 65.3713C32.9107 65.4294 32.9532 65.5006 32.9774 65.579C33.032 65.7505 32.9864 65.9685 32.8543 66.0938C32.5721 66.358 32.3034 66.6087 32.2487 66.8276C32.3182 66.8815 32.385 66.9391 32.4487 67C30.1952 66.4154 28.027 65.5314 26 64.3708V64.3681Z" fill="#CEB052"/>
<path fill-rule="evenodd" clip-rule="evenodd" d="M52 55C52 55 52.7738 53.9984 53.0419 53.5022C53.3098 52.9908 52.1936 46.5147 52.1936 46.5147L54.4361 39.3828L54.3763 37.0615C54.3763 37.0615 54.4855 34.9184 54.7435 33.9889C55.0513 34.5235 56.0089 35.1688 56.2172 35.5107C56.3153 34.8555 56.6485 33.4736 56.5992 32C56.7826 32.2743 57.2241 35.0339 57.2241 35.0339L57.6656 36.8926L58.2412 38.8672L58.8813 40.9526L59.2632 42.3926L59.4814 42.7392L59.6652 43.3459L59.8388 44.0011L60.3398 45.5373L60.6342 46.7988L60.8674 49.0864C60.9181 49.2616 60.9546 49.4403 60.9766 49.621C60.9864 49.8715 60.9419 50.0159 60.9419 50.0594C60.9419 50.1029 61.0263 50.6083 60.9916 50.9889C60.9419 51.3699 60.9419 51.668 60.6342 51.9413C60.3264 52.2146 60.1332 53.8483 60.1332 53.8483L59.5824 53.4921C59.5824 53.4921 59.6917 53.0054 59.4336 52.5626C59.1756 52.1197 58.6746 52.028 58.3917 52.1004C58.1091 52.1581 57.5437 52.2445 57.3599 52.3988C57.1862 52.5527 56.7597 53.0296 56.3676 53.2464C55.8771 53.5321 55.0778 53.5546 54.6513 53.6508C54.2196 53.746 53.7435 54.0318 53.2421 54.3635C52.849 54.6105 52.434 54.823 52.002 54.9984L52 55Z" fill="#CCA847"/>
<path fill-rule="evenodd" clip-rule="evenodd" d="M52 65.9444C52 65.9444 52.0314 65.9655 52.0919 66C55.4724 64.3567 58.5014 62.0273 61 59.1494C60.9727 58.1503 60.9373 57.1261 60.8984 56.7467C60.8178 55.9419 60.8748 55.1224 60.851 54.6485C60.8272 54.1747 60.5703 52.2442 60.4514 51.7456C60.3228 51.247 60.075 51 60.0374 51C60.0041 51.0101 59.804 51.9383 59.804 52.1716C59.804 52.4049 59.7563 52.9667 59.7563 53.1098C59.7231 53.0998 59.709 53.0122 59.709 52.9764C59.6613 53.0998 59.6042 53.3172 59.5803 53.3419C59.5565 53.3666 59.6136 53.1346 59.5803 53.0851C59.5471 53.0356 59.4863 53.0604 59.4994 52.937C59.5051 52.8639 59.5162 52.7913 59.5327 52.72C59.5327 52.72 59.39 52.937 59.2855 53.49C59.1807 54.038 59.1807 54.053 59.1428 54.1021C59.1095 54.1617 58.9191 54.3589 58.9094 54.4331C58.9 54.5662 59.0857 54.6996 59.0998 54.7735C59.1092 54.8972 58.9333 55.4696 58.8762 55.7498C58.8191 56.03 58.8429 56.5791 58.7821 56.8606C58.7344 57.1174 58.688 57.2654 58.5252 57.3738C58.6441 57.3985 58.7582 57.433 58.7582 57.433C58.7582 57.433 58.9248 58.1637 58.5013 58.7859C58.3492 59.003 58.3113 59.1019 58.1494 59.2994C57.8304 59.6646 57.5829 60.0805 57.5591 60.351C57.5426 60.2711 57.5315 60.1902 57.5258 60.1088C57.5258 60.1088 57.0312 60.7063 56.8217 61.0471C56.5507 61.4864 56.1746 61.4617 56.0689 61.5704C55.9632 61.6791 55.9403 61.8763 55.9748 62.0345C55.8807 62.0589 55.7038 62.0937 55.5846 62.4738C55.5275 62.671 55.3848 62.8644 55.1611 62.9971C54.9375 63.1299 54.6662 63.1699 54.5281 63.2044C54.647 63.2389 54.6947 63.2389 54.7518 63.2783C54.6806 63.4017 54.3522 63.5943 53.9858 63.8413C53.6195 64.0734 53.4432 64.4138 53.3528 64.6361C53.2587 64.8434 53.1198 64.9768 52.8961 65.0015C52.9902 65.0608 53.1295 65.1988 53.2007 65.2433C53.0959 65.2681 52.9184 65.2681 52.6013 65.5496C52.2682 65.836 52.154 65.9199 52.0016 65.9447L52 65.9444Z" fill="#C39D3C"/>
<path fill-rule="evenodd" clip-rule="evenodd" d="M45.0014 68C45.166 67.8788 45.3444 67.7795 45.5323 67.7044C46.2028 67.4245 46.9122 67.3703 47.1917 67.2801C47.4584 67.1908 47.669 67.0676 48 67C47.9912 67.0792 47.9838 67.1536 47.9759 67.2239C47 67.5462 46.0061 67.8054 45 68H45.0014Z" fill="#D2BA6B"/>
<path fill-rule="evenodd" clip-rule="evenodd" d="M59 48.2793C59 48.2793 58.8458 49.1084 58.5707 49.631C58.2956 50.1536 57.9982 50.8771 57.9982 50.8771C58 50.714 58.0194 50.5517 58.0561 50.3927C57.7088 50.594 56.8644 51.0784 56.625 51.2938C56.3982 51.4951 56.0169 51.8499 55.9205 52.0177C56.1473 51.3564 56.3836 50.7621 56.4224 50.4888C56.0751 50.7381 54.4538 52.0657 53.6097 52.9428L50.9803 55.0566C50.6768 55.2192 50.3643 55.3645 50.0443 55.4919C49.5911 55.6834 49.0555 55.8464 48.6599 56C48.7661 55.7172 48.9347 55.4676 49.1713 55.2281C49.4222 54.9934 50.1747 54.1833 50.2904 53.8063C50.3967 53.4133 50.4208 53.1785 50.2809 52.8477C50.1505 52.8812 49.8516 52.8957 49.649 52.9532C49.4464 53.0107 49.2292 53.2262 49.2292 53.2262C49.2292 53.2262 49.3834 52.3491 49.7164 51.5201C49.4655 51.5295 49.0361 51.6013 49.0361 51.6013C49.0361 51.6013 49.6344 50.6044 50.6581 49.9096C50.3446 49.9759 50.0378 50.0705 49.7415 50.1921C49.1433 50.4414 48.4872 50.8104 48 51.0117C48.2748 50.6325 50.2046 47.8964 51.353 45.3463C52.4979 42.8013 52.9256 42.1494 53.1766 40.7836C53.3066 40.1077 53.272 39.109 53.3066 38.2145C53.3403 37.3276 53.4513 36.5321 53.3791 36C53.6781 36.369 54.7976 37.4092 54.836 39.734C54.8698 42.0585 53.7652 45.1981 52.5927 46.8897C52.8789 46.9712 53.6205 47.0673 54.3825 45.7523C55.1445 44.4373 55.1353 44.0701 55.4104 43.5235C55.4441 43.7968 55.4343 43.8926 55.4343 43.8926C55.4343 43.8926 56.5442 42.5555 57.0699 40.873C57.1761 41.5968 57.4897 42.2344 56.9974 43.5621C56.5585 44.7602 55.9844 45.0528 55.9844 45.0528C55.9844 45.0528 56.2691 45.0047 56.6886 44.7554C56.7611 44.9327 56.7468 45.1346 56.8673 45.206C56.9878 45.2774 57.1519 45.3978 57.1761 45.5128C57.3062 45.321 57.5088 45.0765 57.5717 44.8945C57.5234 45.2736 57.4897 46.9314 57.6671 47.775C58.0389 47.7415 58.4199 47.7175 58.6804 47.0512C58.502 47.7033 58.502 48.0961 58.6225 48.6521C58.8203 48.5182 58.9987 48.2784 58.9987 48.2784L59 48.2793Z" fill="#C0993A"/>
<path fill-rule="evenodd" clip-rule="evenodd" d="M45.74 21.0545C45.74 21.0545 45.3826 21.1999 44.7747 21.1999C44.2458 21.1999 44.3941 21 43.5681 21C42.2966 21 37.855 21.7192 37.0752 21.709C36.5692 21.7 38.7829 21.9227 38.7829 21.9227L44.4406 22L45.5775 21.9101L46 21.068L45.74 21.0545Z" fill="#A88F33"/>
<path fill-rule="evenodd" clip-rule="evenodd" d="M31.0041 32.9855C31.0041 32.9855 30.2185 33.5181 29.8862 33.9256C29.554 34.3331 29.3777 34.6014 29 34.9327C29.0887 34.9357 29.1773 34.9251 29.2619 34.9014C29.2619 34.9014 29.2619 34.99 29.2015 35.0133C29.2537 35.0081 29.3065 35.0133 29.3561 35.0287C29.4058 35.044 29.4509 35.069 29.4883 35.1018C29.3774 35.1555 29.0753 35.4243 29.312 35.7421C29.4883 35.9838 29.861 36.0059 29.861 36.0059C29.861 36.0059 29.7754 36.2254 30.1328 36.203C30.9032 36.1717 31.7642 35.8716 32.1618 35.9478C32.5601 36.0363 32.7865 36.0688 33.0683 36.5031C33.367 36.9327 33.6273 37 33.6273 37C33.6273 37 33.8035 36.6014 33.7633 36.0062C33.9079 35.6854 33.988 35.3445 34 34.9991L33.7381 33.2847L32.5953 32L31.115 32.7297L31.0041 32.9847V32.9855Z" fill="#E3C571"/>
<path fill-rule="evenodd" clip-rule="evenodd" d="M33 32.4252C33 32.4252 33.1021 32.6797 33.529 32.7039C33.4825 32.8117 33.4825 32.8265 33.4966 32.9095C33.5057 32.9927 33.5195 33.115 33.5195 33.115C33.5665 33.091 33.609 33.0582 33.6449 33.0182C33.6681 33.1259 33.6216 33.2969 33.6449 33.4195C33.6592 33.4941 33.6825 33.5664 33.7143 33.6347C33.7211 33.618 33.7288 33.6017 33.7375 33.586C33.7467 33.5615 33.8293 33.8503 34.0577 34.07C34.0575 34.0362 34.0654 34.0029 34.0806 33.9732C34.0841 34.0346 34.1033 34.0938 34.1363 34.1445C34.1192 34.1359 34.1036 34.1244 34.0901 34.1103C34.0901 34.1103 34.113 34.8846 34.2384 35.285C34.2593 35.2592 34.278 35.2313 34.294 35.2018C34.294 35.1776 34.2849 35.4173 34.2616 35.589C34.2292 35.7603 34.2524 36 34.2524 36C34.3361 35.9305 34.428 35.8729 34.5258 35.8287C34.6649 35.7696 34.8927 35.5886 35.0316 35.1873C35.1121 34.96 35.1742 34.7259 35.2172 34.4875C35.262 34.5786 35.293 34.6766 35.3089 34.7778C35.3184 34.9001 35.5364 34.8366 35.5364 34.8366L35.5829 34.3029L35.8581 33.094L36.1085 32.3452L37.3145 30.3632L39.4934 28.5926L41.3953 29.0526L43 26.7522L40.2355 25L37.6193 25.2888L35.245 28.7587L33.3434 31.9061L33 32.4249V32.4252Z" fill="#D8B65B"/>
<path fill-rule="evenodd" clip-rule="evenodd" d="M47 27.7047C47 27.7047 46.8243 27.7386 46.3172 27.9923C45.8102 28.2461 45.4587 28.3266 45.2628 28.6998C45.0669 29.0731 45.052 29.369 45.052 29.369C45.052 29.369 45.3985 29.2236 45.5994 29.175C45.8102 29.1267 46.0462 29.1411 46.021 29.2236C45.9969 29.2801 45.9633 29.3324 45.9217 29.3785C45.9217 29.3785 46.3189 29.369 46.3083 29.5581C46.2977 29.7473 46.2332 29.9556 46.158 30.0477C46.0826 30.1435 45.7715 30.2854 45.7364 30.3969C45.651 30.6248 45.7715 30.6344 45.7261 30.8184C45.6911 30.998 45.5256 31.347 44.9831 31.9576C44.4258 32.5686 44.1888 33 44.1888 33C44.1888 33 43.9178 32.5105 43.7771 32.0886C43.6778 32.1369 43.1447 32.4229 43.1447 32.4229L41.9095 28.2687L41.9343 27.9923C41.9343 27.9923 42.0449 27.8616 42.07 27.6191C41.8844 27.5609 41.8592 27.5124 41.613 27.2848C41.3667 27.0573 41.1662 26.7806 40.7548 26.5914C40.6946 26.4847 40.6191 26.3396 40.3179 26.2811C40.0168 26.2227 39.836 26.1747 39.836 26.1747C39.836 26.1747 39.9966 26.1163 40.072 25.9951C39.886 26.0194 39.7358 26.0776 39.329 26.068C38.9173 26.0581 38.872 26.0437 38.6462 26.0776C38.4205 26.1115 38.1498 26.2086 38.0489 25.874C37.9383 25.7916 37.7024 25.8644 37.5015 26.1501C37.3006 26.4358 37.2304 26.664 36.8438 26.7755C36.8167 26.94 36.757 27.098 36.6681 27.2407C36.5576 27.4203 36.3818 27.5996 36.1458 27.8661C35.7742 28.2879 35.8344 28.981 35.242 29.5096C34.6446 30.0378 35.3413 28.0454 35.3413 28.0454L36.2951 25.8405L39.0113 23.2761L43.2287 23L43.6404 25.109L45.699 25.7925L46.9993 27.7073L47 27.7047Z" fill="#D3AE4D"/>
<path fill-rule="evenodd" clip-rule="evenodd" d="M47.4669 28.5271L45.6815 25.8855L44.4322 24.8992C44.4322 24.8992 43.542 23.2179 43.4813 23.1659C43.4307 23.1297 42.5911 23.0363 42.055 23L42.155 23.2542C42.272 23.2932 42.376 23.3652 42.4551 23.4619C42.6928 23.7421 42.8445 24.2714 42.3034 24.8372C42.5158 24.9149 42.6035 24.9399 42.7888 24.9149C42.6018 25.1435 42.177 25.6313 42.1517 26.0569C42.1264 26.4045 42.3387 26.5082 42.3387 26.5082C42.3387 26.5082 42.015 26.8924 42 27.5346C42.1529 27.3577 42.3202 27.1945 42.5001 27.0467C42.8745 26.7388 43.3903 26.3926 43.7394 26.1746C43.7346 26.2661 43.7466 26.3577 43.7747 26.4446C43.7747 26.4446 44.4269 25.8944 44.975 26.1384C45.2227 26.2526 45.1114 26.6109 45.1114 26.6109C45.1114 26.6109 45.4504 26.4812 45.6882 26.7251C45.9259 26.9691 46.2646 27.5969 46.4367 27.8412C46.5123 27.9554 46.7097 28.1734 46.9118 28.5104C47.1878 28.9827 47.4183 29.4817 47.5999 30C47.6099 29.7923 47.6506 29.5019 48 29.5019L47.4689 28.5261L47.4669 28.5271Z" fill="#CAA13E"/>
<path fill-rule="evenodd" clip-rule="evenodd" d="M22.0534 34.9988C22.0534 34.9988 21.9333 34.713 22.0534 34.1556C22.1735 33.5983 22.3611 33.3356 22.4235 32.5155C22.4859 31.6954 23.0437 30.6725 23.0437 30.6725L24.5866 30L25.678 30.2855L26 31.6863L24.6202 32.4153C24.6202 32.4153 24.5483 32.7238 24.1588 32.9726C23.7694 33.2214 23.231 33.4148 23.1014 33.6684C23.0239 33.8237 22.9673 33.9879 22.9331 34.1568C22.9331 34.1568 22.5389 34.0785 22.3034 34.3272C22.0534 34.5809 22.0629 34.8065 22.0534 35V34.9988Z" fill="#F4EFC8"/>
<path fill-rule="evenodd" clip-rule="evenodd" d="M25.4617 35.2535C25.4617 35.2535 25.3225 35.3388 25.2196 35.5511C25.1177 35.3907 24.8742 34.4376 24.864 33.5801C24.8538 32.7225 24.8012 32.51 25.0049 32.2144C25.2087 31.9189 26.0078 31.6075 25.8943 31.0752C25.7809 30.5687 25.3068 30.3582 24.7248 30.5036C24.3172 30.6028 24.014 31.4465 23.5915 31.8676C23.2719 32.1886 22.8909 32.1384 22.788 32.3139C22.6488 32.5496 22.7775 32.7853 22.7364 32.9358C22.7259 32.986 22.5971 33.2568 22.3652 33.5827C21.8965 34.2396 21.1032 35.1676 21 36C21.036 35.5286 21.0105 35.5187 21.1392 34.997L21.0618 34.8717L21.5712 33.2469L21.901 31.908L22.6379 29.6659L23.9359 27.3743L25.1982 26L26.5117 26.0853L26.6663 28.006L27.4185 31.6121L29 33.5077L26.4652 35.1682L25.4607 35.2535H25.4617Z" fill="#EBCC73"/>
<path fill-rule="evenodd" clip-rule="evenodd" d="M26.0867 34.9742C26.0867 34.9742 25.8585 35.0246 25.7769 34.9845C25.6952 34.9444 25.6143 34.8991 25.6411 34.8487C25.668 34.7984 25.8148 34.7133 25.8148 34.6729C25.8178 34.6364 25.8054 34.6002 25.78 34.5721C25.7547 34.544 25.7185 34.5261 25.6791 34.5222C25.5541 34.5073 25.5161 34.5825 25.5161 34.5825C25.5161 34.5825 25.3965 34.4974 25.2991 34.4832C25.3567 34.4766 25.4147 34.4732 25.4728 34.4729C25.3226 34.41 25.1634 34.3677 25 34.3474C25.1357 34.2722 25.4022 34.051 25.5759 34.051C25.7496 34.051 25.8585 34.0262 25.8313 33.9407C25.8041 33.8553 25.6683 33.7298 25.5218 33.6795C25.5759 33.6192 25.6143 33.5288 25.4839 33.2821C25.3478 33.036 25.4022 32.8701 25.4459 32.8102C25.4839 32.7347 25.6196 32.5993 25.6848 32.5138C25.75 32.4284 25.8044 32.3128 25.913 32.2525C25.9674 32.2174 26.1411 32.1532 26.3152 32.0919C26.5054 32.0317 26.663 31.9562 26.7715 32.0317C26.8911 32.1068 26.8367 32.2075 26.8367 32.2075C26.8367 32.2075 27.2117 32.0817 27.5484 32.2426C27.8854 32.393 28.7059 32.4887 28.7059 32.4887L29 33.0364L27.0548 34.5785L26.2507 34.9504L26.0878 34.9752L26.0867 34.9742Z" fill="#E5C66B"/>
<path fill-rule="evenodd" clip-rule="evenodd" d="M28.5202 32.5561C28.5202 32.5561 27.9538 32.9173 27.8264 33.0488C27.9027 33.0587 28.0302 33.1076 27.9791 33.1806C27.9179 33.2536 27.5506 33.5073 27.3465 33.7466C27.1323 33.9855 26.9282 34.2881 26.8569 34.4344C26.7805 34.5659 26.1987 34.9514 26 35C26.4183 35 27.2601 34.5074 27.5762 34.5074C27.5661 34.6537 27.663 34.8196 27.8415 34.8341C28.0201 34.8485 28.5353 34.9415 29.2291 34.5318C29.9228 34.1318 29.6935 33.834 29.984 33.6392C30.5403 33.2877 30.7646 32.9755 31.0706 32.7806C31.3766 32.5857 31.535 32.5413 31.535 32.5413C31.535 32.5413 31.5451 32.395 31.6359 32.4098C31.6607 32.4126 31.6843 32.4217 31.7041 32.4363C31.7239 32.451 31.7392 32.4705 31.7482 32.4928C31.7482 32.4928 32.2789 32.1317 32.9588 32.0342C32.943 32.0275 32.9303 32.0153 32.9232 32.0002C32.9232 32.0002 32.974 31.9757 32.9844 31.9513C32.9844 31.9513 33.0201 31.9024 33.0456 31.9268C33.0712 31.9513 33.1068 32.1317 33.1579 32.205C33.2703 32.1561 33.4845 31.6976 33.4845 31.6976L34 30.2879V29L33.5965 29.0733L30.5698 30.3023L28.733 32.122L28.5188 32.5561H28.5202Z" fill="#E6BD62"/>
<path fill-rule="evenodd" clip-rule="evenodd" d="M36.5915 27.051C36.7351 27.0131 36.8727 26.9525 37 26.871C36.9463 27.0266 36.9463 27.1967 36.7136 27.5659C36.4809 27.9351 36.4721 27.9886 36.2842 28.3722C36.0964 28.7705 36.074 29.3437 35.8949 29.5961C35.9752 29.5537 36.0612 29.5259 36.1497 29.5138C36.1497 29.5138 35.971 29.6838 35.8949 29.8634C35.8188 30.0431 35.6847 30.4171 35.3538 30.6457C35.0229 30.8744 34.602 31.0198 34.1502 31.559C33.6981 32.0883 33.233 32.7589 33 33C33.1209 32.7717 33.2864 32.315 33.3312 32.014C33.376 31.713 33.3221 31.3531 33.3981 30.9551C33.4742 30.557 33.4742 30.2701 33.8405 29.5753C34.2068 28.8804 34.8338 26.4662 34.8338 26.4662L36.1848 26L36.5921 27.0494L36.5915 27.051Z" fill="#B6933F"/>
<path fill-rule="evenodd" clip-rule="evenodd" d="M35.7068 26.2715C35.7068 26.2715 35.2465 26.9641 35.12 27.5776C34.9936 28.191 35.1097 28.138 35.034 28.4395C34.9887 28.6234 34.9887 28.8162 35.034 29C35.1934 28.7316 35.4117 28.5068 35.6708 28.344C36.1062 28.0694 36.4605 27.8735 36.6716 27.641C36.8841 27.3925 37.0613 26.9854 37.5217 26.6734C37.3345 26.6469 37.0713 26.557 37.0212 26.5688C37.2087 26.3468 37.7702 26.0084 38.337 25.6013C38.8988 25.183 38.8634 25.0143 39.7745 24.5967C39.4759 24.6497 39.3341 24.5702 39.0859 24.5967C39.186 24.3747 39.5363 24.2687 39.8866 23.9041C40.2369 23.5396 39.6641 23 39.6641 23L36.9952 24.6867L35.7048 26.2729L35.7068 26.2715Z" fill="#C49937"/>
<path fill-rule="evenodd" clip-rule="evenodd" d="M28 24.7318L28.0516 24.264L28.7016 23.0847L29.3817 21.0137V18.1822L29.3301 16.5449L29.4376 15.4725L29.5193 15.1317L29.6055 15L30.1605 15.3264L30.9268 16.5057L31 18.7817L30.2552 22.3732L28.1291 25L28 24.7318Z" fill="#DFC068"/>
<path fill-rule="evenodd" clip-rule="evenodd" d="M30.9473 15.012C30.9473 15.012 30.5493 15.0219 30.4644 16.6157C30.3795 18.2095 30.3383 19.0475 30.278 19.8372C30.2176 20.6269 30.077 21.1063 30.0063 21.5715C29.9357 22.0368 29.8956 22.671 29.6694 23.0587C29.5699 23.2378 29.3573 23.7999 28.8591 24.2214C28.3005 24.6863 27.466 25.0111 27.3397 25.0354C27.1181 25.0836 25.996 25.1903 25.5383 25.4326C25.3775 25.515 25.1005 25.6118 24.7937 25.888C24.1848 26.4159 23.3748 27.3605 22.7911 28.4989C21.8955 30.1994 21 35 21 35L21.2013 34.6756C21.2013 34.6756 21.2265 34.2444 21.6743 33.4886C22.1121 32.733 21.9864 31.8852 22.595 30.4367C22.8315 29.8845 23.1284 29.1676 23.4906 28.557C24.0644 27.5639 24.7586 26.7113 25.4581 26.2463C26.6 25.4908 27.8581 25.326 27.8581 25.326L29.2116 24.4638C29.2116 24.4638 29.4481 24.0231 29.7602 23.5192C30.1977 22.8122 30.7553 22.0224 30.877 20.8744C31.0634 19.1739 30.6153 18.0598 30.6405 17.0523C30.6657 16.0447 30.6757 15.3036 30.8873 15.1241C31.0989 14.9446 30.9476 15.0126 30.9476 15.0126L30.9473 15.012Z" fill="#A88F33"/>
<path fill-rule="evenodd" clip-rule="evenodd" d="M30.1227 22.998C30.1227 22.998 30.656 21.5248 30.9001 20.2181C30.9452 19.9557 31.035 19.6937 31.0575 19.4818C31.1698 18.2457 31.2012 17.7362 31.0575 17.0601C30.9452 16.5613 30.5138 16.1117 30.2889 15.7631C30.0687 15.3996 29.9653 15.2643 30.0104 15.1878C30.0554 15.1113 30.2305 14.9863 30.4012 15.0012C30.5826 15.0072 30.761 15.0544 30.9257 15.1402C31.0903 15.2259 31.2377 15.3484 31.3588 15.5001C31.7049 15.949 31.979 17.4728 31.979 17.4728L32.2673 19.4835L33 22.016L30.1233 23L30.1227 22.998Z" fill="#C99E3D"/>
<path fill-rule="evenodd" clip-rule="evenodd" d="M35.9986 20.5468C35.9986 20.5468 35.8819 20.5915 35.6702 20.5468C35.6792 20.6201 35.6642 20.694 35.6267 20.7605C35.5893 20.827 35.531 20.8835 35.4581 20.9237C35.2355 20.8474 33.152 21 33.152 21C33.152 21 32.182 20.8562 31.8798 19.7703C31.6681 19.0476 32.0388 18.0516 31.9168 17.3964C31.7313 16.4314 31.4717 16.2427 31.4451 15.9425C31.4186 15.6422 31.392 15.5656 31.392 15.3772C31.2753 15.3547 31.2065 15.3233 31.0901 15.3233C31.0636 15.2346 31.1164 15.1571 31 15C31.0636 15.0225 31.4983 15.0674 32.007 15.4757C32.4263 15.8079 32.4263 15.9289 32.4895 15.9963C32.5688 16.0635 33.2103 16.5288 33.486 16.9926C33.7617 17.4564 34.297 18.9355 34.4189 19.1778C34.456 19.2766 34.5356 19.3754 34.7334 19.5996C35.0409 19.9229 35.4913 20.4575 36 20.5462L35.9986 20.5468Z" fill="#B58634"/>
<path fill-rule="evenodd" clip-rule="evenodd" d="M33 16C33.3661 16.4623 33.6949 16.942 33.9847 17.4363C34.3412 18.0645 34.5527 18.5796 35 19C34.7582 18.4522 34.3292 17.375 34.0755 16.9922C33.7915 16.5874 33.2115 16.1514 33 16.0003V16Z" fill="#A88F33"/>
<path fill-rule="evenodd" clip-rule="evenodd" d="M28.7066 24.0003C28.7066 24.0003 28.2429 24.1196 27.3794 24.5924C27.0946 24.745 26.8239 24.8738 26.5621 24.9934C25.8818 25.3132 25.1522 25.6087 24.5734 25.7718C24.6194 25.8291 24.6421 25.8527 24.6421 25.8527C24.6421 25.8527 24.6421 26.0869 24.7662 26.2203C24.6975 26.2921 23.7787 26.9415 24.0499 29.1139C24.2334 29.0425 24.4493 28.9468 24.4813 28.9468C24.5367 28.9566 24.5504 29.1139 24.6191 29.1139C24.6878 29.1139 24.913 29.0195 25.1519 28.6985C25.1428 28.8275 25.0051 30.1262 25.7444 31C25.8821 30.8329 26.2312 30.2789 26.2312 30.2789L26.2402 30.1023C26.2402 30.1023 26.2723 29.4863 26.4655 28.9229C26.6586 28.3595 27.0349 27.944 27.0349 27.944L29 25.0264L28.706 24L28.7066 24.0003Z" fill="#E6C367"/>
<path fill-rule="evenodd" clip-rule="evenodd" d="M27.3541 28.3883C27.2541 28.4597 27.1439 28.5153 27.0274 28.5531C26.9917 28.4243 26.9406 27.9809 27.2417 27.548C27.594 27.027 28.3645 26.3518 28.5788 25.8149C28.7167 25.4693 28.6555 24.6034 29.8805 23.4949C31.1056 22.3865 31.585 22.0052 31.585 22.0052L33.5654 21L36 21.9692L34.7904 26.7572L33.8514 29L30.1167 28.2888L27.3537 28.3883H27.3541Z" fill="#DCBA5A"/>
<path fill-rule="evenodd" clip-rule="evenodd" d="M29 27.3533L29.4065 26.7604V26.339C29.4065 26.339 29.8574 26.1984 30.344 25.6209C30.8305 25.0434 31.5049 23.9354 32.0989 24.003C32.6929 24.0811 32.7509 25.5063 32.7732 25.9072C32.7956 26.3081 32.8716 27.2179 32.9919 27.7072C33.1259 28.1962 31.5452 30.048 31.5452 30.048L30.4717 31L29 27.3533Z" fill="#E9CE77"/>
<path fill-rule="evenodd" clip-rule="evenodd" d="M30 31.9997C30 31.9997 30.3118 31.4143 30.0833 31.2883C30.2179 30.9251 30.4664 30.5416 30.4664 30.5416C30.4664 30.5416 30.6433 30.0172 31.2161 29.3713C31.7889 28.7254 32.1428 28.2964 32.2356 27.8627C32.2927 27.5801 32.3238 27.2908 32.3283 27C32.3902 27.0606 32.4565 27.1146 32.5263 27.1613C32.619 27.2119 33.0568 27.6455 32.9938 28.5186C32.9308 29.3916 32.6607 29.7548 32.6607 29.7548C32.6607 29.7548 32.3997 30.0674 32.2145 30.229C32.0162 30.3903 31.9449 30.5769 31.612 30.5922C31.6462 30.5596 31.6847 30.534 31.7258 30.5164C31.7258 30.5164 31.3804 30.4661 31.195 30.6677C31.0095 30.8692 30.6153 31.4902 30.4173 31.6771C30.2193 31.8284 30.0008 32 30.0008 32L30 31.9997Z" fill="#CDAE50"/>
<path fill-rule="evenodd" clip-rule="evenodd" d="M45.9997 22.335C45.4448 22.1238 44.8617 22.0047 44.2716 21.9819C43.2853 21.9477 41.8435 22.0065 40.43 22.0162C38.9084 22.0259 37.5276 21.4718 35.6116 21.3738C35.2971 21.1776 34.4971 20.3193 32 22.1387C32.1501 22.129 33.8129 21.7366 34.3903 22.4921C34.9726 23.2424 34.8082 24.5174 34.7287 24.8213C34.5782 25.4983 34.0897 26.484 33.8928 27.1755C33.6959 27.867 33.7423 28.2303 33.6015 28.7153C33.4606 29.2002 33.1507 29.441 33.3337 30C33.5779 29.8432 33.7052 29.8432 34.1132 28.8869C34.5213 27.9307 34.4374 27.2489 35.1138 26.4397C35.776 25.6257 36.8784 24.5123 37.2976 24.2326C37.7168 23.953 41.0451 22.1484 44.5301 23.8699C45.3706 23.7768 46 22.3346 46 22.3346L45.9997 22.335Z" fill="#D2A83E"/>
<path fill-rule="evenodd" clip-rule="evenodd" d="M32.9997 21.384C32.9965 21.3504 32.9892 21.3174 32.9781 21.2856C32.9478 21.2203 32.908 21.1601 32.86 21.1069C32.86 21.1069 32.0908 20.9641 31.7019 21.0086C31.02 21.0845 30.4037 21.9466 30.1154 22.3889C29.827 22.8311 29.4686 23.5142 29.0797 23.8672C29.084 23.8328 29.0762 23.798 29.0578 23.7689C29.0578 23.7689 29.0797 23.8001 29.0362 23.8448C28.9927 23.8896 28.9924 23.9117 29.0143 23.9332L29.08 24C29.1016 24 29.7048 23.7229 30.5265 22.94C31.4005 22.1227 32.0692 21.7034 32.4189 21.5598C32.6054 21.4787 32.8004 21.4198 33 21.384H32.9997Z" fill="#C29637"/>
<path fill-rule="evenodd" clip-rule="evenodd" d="M49.9991 18C49.9991 18 49.8509 18.1944 49.6659 18.4087C49.2544 18.8662 48.7178 19.3818 48.26 19.9125C47.8256 20.4188 47.3354 20.8131 46.7848 21.4749C46.2343 22.1368 45.596 22.8715 45.4344 23.0858C45.2866 23.3002 45.171 23.6505 45.171 23.8305C45.0924 23.7721 45 23.7089 45 23.7089C45.0389 23.7853 45.0854 23.8572 45.1387 23.9232C45.2542 24.0936 45.4344 24.3082 45.5271 24.4391C45.6408 24.6058 45.7224 24.7942 45.7673 24.9938C45.8228 25.0035 46.1788 25.0766 46.623 24.3076C47.0671 23.5385 47.6494 22.6967 47.6494 22.6967L48.5743 21.251L49.1571 20.0248L49.8887 18.6523L50 18H49.9991Z" fill="#AC8132"/>
<path fill-rule="evenodd" clip-rule="evenodd" d="M51 17C51 17 50.258 17.5298 49.9699 17.8478C49.6818 18.1657 49 19 49 19L49.2453 18.9732L50.49 18.0088L50.9749 17.2533L50.9996 17.0014L51 17Z" fill="#A88F33"/>
<path fill-rule="evenodd" clip-rule="evenodd" d="M51.0027 56C51.0027 56 50.9926 55.5978 51.2281 55.3577C51.4688 55.1171 52.0779 54.7641 52.6719 53.44C53.2658 52.1158 53.332 51.8168 53.332 51.8168C53.332 51.8168 52.2672 52.6897 51.6108 52.8956C51.7644 52.5914 51.8515 52.3758 51.9284 52.2186C51.8413 52.1453 51.4728 52.0619 51.437 52.0227C51.6415 51.8265 51.7543 51.3458 52.169 51.027C52.7016 50.6391 53.6742 49.9725 54.4301 49.3783C55.1861 48.7842 56.6723 47.4022 56.862 47C56.9747 47.1568 57 47.2547 57 47.2547C57 47.2547 56.2528 48.1867 55.8637 48.78C55.5205 49.2901 55.5462 49.5794 55.5462 49.5794L56.2528 49.2885C56.2528 49.2885 56.4573 50.0142 55.531 51.1179C55.9359 50.9708 56.0993 51.0591 56.3294 50.9362C55.9504 51.167 55.4284 51.4809 54.937 52.3438C54.4558 53.2069 53.8004 54.2123 52.6948 54.8398C51.6196 55.5018 51 55.9971 51 55.9971L51.0027 56Z" fill="#A67A2E"/>
<path fill-rule="evenodd" clip-rule="evenodd" d="M47.7603 22.5172C47.7603 22.5172 47.3854 23.386 47.3306 24.0622C47.3215 24.225 47.2848 24.352 47.2848 24.54C47.2757 25.1447 47.3167 25.8209 47.1944 26.1359C47.1486 26.0089 47.1257 25.9224 47.0799 25.8718C47.0114 26.0853 46.8879 26.751 46.7873 27C46.7417 26.8375 46.6411 26.2732 46.6504 25.6075C46.6598 24.9417 46.673 24.8144 46.673 24.6773C46.6504 24.8804 46.5269 25.1551 46.4811 25.3176C46.4127 25.1806 46.3349 25.0027 46.2433 24.8553C46.1885 24.9558 46.1201 25.1042 46.0607 25.1806C46.0514 25.1196 46.0288 24.9568 46.0149 24.7283C46.0059 24.4639 45.992 24.1235 46.0059 24.0521C46.0285 23.9151 46.2207 23.3763 46.6275 22.8831C47.1121 22.2933 47.6105 21.1602 47.7567 20.8093C47.9028 20.4585 48.5245 19 48.5245 19H49L48.3096 20.7484C48.3096 20.7484 47.8938 21.704 47.6789 22.0551C47.4641 22.4063 47.0114 23.4125 46.8102 23.8038C46.9563 23.5904 47.0799 23.4785 47.2263 23.2751C47.3679 23.1327 47.7609 22.5178 47.7609 22.5178L47.7603 22.5172Z" fill="#8C6228"/>
<path fill-rule="evenodd" clip-rule="evenodd" d="M49.8866 17C49.8193 17.2809 49.7131 17.5416 49.5736 17.7683C49.3282 18.1658 48.8019 18.6972 48.545 19.1214C48.3103 19.5349 47.8409 20.6628 48.0542 22C48.1324 21.71 48.2798 21.1355 48.6715 20.4854C49.0632 19.8354 49.4826 19.0891 49.6886 18.5092C49.8941 17.9237 49.9218 17.462 49.9218 17.462L50 17.3278L49.9525 17.0216L49.8852 17H49.8866Z" fill="#CBA94C"/>
<path fill-rule="evenodd" clip-rule="evenodd" d="M60.9928 48.9994C60.9928 48.9994 60.8004 48.4701 60.7427 47.9891C60.685 47.5082 60.8378 47.4128 60.6609 46.8623C60.555 46.5271 60.3629 46.5742 60.3147 46.5271C60.2665 46.48 60.2329 45.9735 60.2424 45.6965C60.252 45.4195 60.2329 45.0603 60.1848 44.9046C60.1128 44.8464 60.0646 44.7977 59.9587 44.4384C59.8386 44.0789 59.7809 43.8992 59.7232 43.7926C59.6655 43.686 59.4969 43.5886 59.4969 43.4817C59.4969 43.2678 59.6893 43.1564 59.6893 43.0974C59.6798 42.9761 59.5355 43.0734 59.4969 43.0392C59.449 42.9809 59.6173 42.6312 59.5549 42.5826C59.5308 42.5585 59.3625 42.7625 59.319 42.7042C59.2709 42.6456 59.2132 42.0677 59.1266 41.6841C59.0452 41.3101 58.9583 41.0382 58.9488 40.9265C58.9393 40.8195 58.285 38.9348 58.1265 38.4782C57.9988 38.0924 57.8913 37.7001 57.8044 37.3028C57.7563 37.0745 57.7227 36.608 57.6986 36.6566C57.6745 36.7053 57.6891 36.9432 57.6504 36.9336C57.6168 36.9237 57.4966 36.0934 57.4583 35.9621C57.4247 35.8308 57.2224 35.3858 57.173 35.0636C57.1248 34.738 57.0193 33.8879 56.947 33.3099C56.8747 32.7319 56.8411 32.494 56.8411 32.3493C56.8529 31.9953 56.8336 31.641 56.7834 31.2904C56.6883 30.6782 56.4981 29.935 56.3314 29.5031C56.0093 28.6869 55.1531 26.5982 55 26.0785C55 25.9472 55.1683 26.0202 55.1683 26.0202C55.1683 26.0202 55.5864 27.0791 55.8942 27.895C56.1925 28.7112 56.4762 29.43 56.5485 29.5031C56.6062 29.5757 57.0582 30.3772 57.2602 31.6887C57.4621 33.0003 57.534 34.2097 57.6545 35.0159C57.7122 35.4002 57.7604 35.8078 57.8805 36.2157C58.0102 36.6579 58.2121 37.1145 58.4768 37.8138C58.7028 38.4017 58.8711 38.8923 58.9624 39.3149C59.0683 39.8541 59.0683 40.2621 59.1307 40.5294C59.1888 40.7577 59.275 41.214 59.4772 41.8743C59.6795 42.5345 59.9771 43.385 60.179 43.9143C60.5737 44.9732 60.7496 45.8572 60.8092 46.3286C60.8619 46.8143 61.04 48.495 60.9918 49L60.9928 48.9994Z" fill="#A88F33"/>
<path fill-rule="evenodd" clip-rule="evenodd" d="M50.8199 17.0435L50.7955 17.0963C50.7955 17.0963 50.8684 17.1183 50.8539 17.2065C50.8549 17.3271 50.8468 17.4477 50.8295 17.5673C50.8054 17.7213 50.7566 17.8399 50.747 17.9368C50.747 18.1436 50.781 18.3811 50.4579 18.9708C50.3616 19.1335 50.3022 19.2741 50.2534 19.371C50.1317 19.6085 50.1073 19.6439 50 19.7538C50.1705 19.6668 50.7845 19.3188 51.096 19.371C50.8818 19.4809 50.5552 19.6967 50.3507 19.9783C50.3995 19.987 50.6041 20.0224 50.9287 19.9783C51.4695 19.9035 52.0736 19.7274 52.6044 19.7625C53.1844 19.7933 52.9554 19.1335 52.9554 19.1335L52.2862 17.8048L51.0196 17L50.8199 17.0438V17.0435Z" fill="#BE9C44"/>
<path fill-rule="evenodd" clip-rule="evenodd" d="M54.6201 27.998C54.6201 27.998 53.9997 27.4257 53.7484 25.4613C53.4971 23.4879 53.5506 20.5831 53.5506 20.5831L53.048 19.4484C53.048 19.4484 52.9422 18.6936 52.6789 18.4126C52.4156 18.1316 51.8985 17.6577 51.663 17.4259C51.4276 17.194 51.1604 16.8782 51 16.8288C51.08 16.7055 51.4385 16.0099 52.8125 16.0001C54.1865 15.9903 54.6102 16.6957 54.7537 16.9523C54.8972 17.2089 55.545 18.3183 55.7854 20.4322C56.01 22.5435 56.0209 22.7015 55.9835 23.4317C55.9568 23.8362 55.8122 24.7735 55.5606 25.7749C55.3307 26.6237 55.0794 27.571 54.6194 28L54.6201 27.998Z" fill="#A17C34"/>
<path fill-rule="evenodd" clip-rule="evenodd" d="M52.1716 29.6338C52.327 29.6463 52.4823 29.6071 52.6179 29.5212C52.7665 29.5123 53.3054 29.5887 53.7193 29C53.7474 29.1345 53.82 29.499 53.6308 29.8225C53.7315 29.7099 53.8802 29.6652 53.9003 29.6338C53.9083 29.8 54.049 30.3123 53.454 31.5573C53.6146 31.3597 53.8036 31.3686 53.9724 31.3461C53.9807 31.5798 54.093 32.3662 53.7957 32.789C53.5987 33.0767 53.277 32.9866 53.277 32.9866C53.2817 32.9238 53.2817 32.8607 53.277 32.7979C53.269 32.6764 53.2288 32.5552 53.2571 32.4744C53.1017 32.395 52.96 32.2853 52.8389 32.1505C52.4891 31.7819 52.0348 31.1529 52.0027 30.6853C51.9624 30.1638 52.3807 30.0515 52.3807 30.0515C52.3456 30.0165 52.3158 29.9755 52.2921 29.9301C52.272 29.8539 52.2519 29.7324 52.1716 29.6338Z" fill="#8C6228"/>
<path fill-rule="evenodd" clip-rule="evenodd" d="M48.1628 23.0091C48.1628 23.0091 48.1373 22.9748 48 23.1317C48.0255 22.9748 48.051 22.8274 48.0611 22.6851C48.1261 22.5533 48.2102 22.4312 48.3109 22.3222C48.2344 22.4691 48.1833 22.6016 48.1833 22.6016C48.1833 22.6016 48.372 22.263 48.647 22.057C48.8353 21.9099 49.0747 21.8413 49.1765 21.7039C49.2886 21.5568 49.2631 21.5322 49.2886 21.5076C49.2886 21.5076 49.5384 21.3508 49.9205 20.8893C49.9712 20.8304 50.0477 20.7667 50.0988 20.7078C50.1851 20.6736 50.3889 20.5853 50.6282 20.4672C50.878 20.335 51.1581 20.1535 51.3313 20.0792C51.6724 19.932 52.0344 19.9469 52.2022 19.716C52.3295 19.6817 52.4668 19.3137 52.4416 19C52.63 19.0734 53.5976 19.6523 53.929 20.9181C54.1684 21.8158 53.7403 23.1993 53.562 23.8668C53.3837 24.5342 53.3586 25.0294 53.1088 25.3334C52.7928 25.736 51.7745 26.3035 51.5247 26.5846C51.3108 26.8151 50.6692 27.3989 50.6944 27.8206C50.7199 28.1346 51.1221 28.3057 51.2091 28.3652C51.296 28.4247 51.2954 28.4978 51.4586 28.4622C51.6217 28.4266 51.6825 28.3542 51.749 28.3542C51.8252 28.3639 51.8252 28.3788 51.8608 28.3788C51.8866 28.378 51.9123 28.3747 51.9373 28.3687C51.9373 28.3687 51.9118 28.8153 50.827 28.9508C50.7505 28.9609 50.6742 28.9851 50.5772 29C50.7048 28.9411 50.781 28.9411 50.9187 28.7597C50.7659 28.7351 50.3277 28.7106 50.2156 28.6763C50.2512 28.6174 50.3684 28.4603 50.4651 28.3868C50.5517 28.3134 50.455 28.2898 50.3788 28.328C50.2476 28.414 50.1217 28.5073 50.0017 28.6074C49.8745 28.7154 49.7623 28.8626 49.5585 28.9955C49.4974 28.7992 49.5075 28.4263 49.7472 28.1566C49.6858 28.1663 49.5686 28.338 49.4568 28.3037C49.4366 28.1248 49.4486 27.9438 49.4924 27.7688C49.5535 27.548 49.8846 27.1605 49.8846 27.1605L51.4837 24.4081L51.8249 22.3232L48.1628 23.0085V23.0091Z" fill="#92723A"/>
<path fill-rule="evenodd" clip-rule="evenodd" d="M48.4116 23.4098C48.4116 23.4098 48.3185 23.4689 48.5046 23.5822C48.4772 23.6166 48.4116 23.7397 48.3293 23.8234C48.2366 23.9209 48.1378 23.9812 48.0996 24.065C48.0177 24.2374 47.9521 24.3556 47.9521 24.4297C47.9521 24.5037 47.9247 24.9765 47.695 25.2817C47.6127 25.3901 47.5197 25.5723 47.454 25.6953C47.3174 25.9119 47.1969 26.085 47.1695 26.1824C47.115 26.3548 47.0768 26.8276 47.0768 26.8276C47.0768 26.8276 47.1973 26.6945 47.2409 26.6454C47.1749 26.7685 47.1039 26.9013 47 27C47.0656 26.9506 47.2571 26.8276 47.5799 26.5714C48.0285 26.2318 48.7289 25.6603 49.5826 25.2076C49.3251 25.2914 49.1065 25.2914 48.9316 25.3161C49.0683 25.193 50.2992 23.8926 50.9447 23.7695C50.9839 23.7248 51.0034 23.6686 50.9995 23.6117L50.4467 23.5627L49.3251 23.7793L49.1613 23L48.4116 23.4088V23.4098Z" fill="#B18E3E"/>
<path fill-rule="evenodd" clip-rule="evenodd" d="M49.7926 27.5466C49.7926 27.5466 49.6592 27.6767 49.5359 28C49.441 27.9031 49.3596 27.7944 49.2938 27.6767C49.1113 27.3778 48.8302 26.9966 48.1737 27.2138C48.164 27.0112 48.149 26.905 48.1737 26.7604C48.2824 26.7365 48.6129 26.4762 48.9435 26.095C49.1757 25.8346 49.3927 25.5354 49.5408 25.1545C49.6384 25.082 49.8072 24.9615 50.0288 24.8216C50.3447 24.6096 50.7246 24.3199 50.7839 23.9969C50.6358 24.0548 50.3199 24.1994 49.8459 24.1756C50.0288 24.0936 50.3098 24.0068 50.2754 23.6497C50.3495 23.6014 50.4087 23.5677 50.4087 23.5677C50.3531 23.5496 50.2946 23.5414 50.236 23.5436C50.2259 23.5099 50.2113 23.4618 50.1273 23.4857C50.0434 23.5095 50.0297 23.5099 50.0187 23.5436C49.9842 23.5534 49.8706 23.5436 49.7867 23.6017C49.7028 23.6599 49.4708 23.8523 49.382 23.886C49.4165 23.8281 49.4656 23.7416 49.4656 23.7416C49.4656 23.7416 49.2239 23.7655 49.0511 23.837C48.7352 23.9432 48.3702 24.1362 48 24.3241C48.0345 24.2662 48.0495 24.2287 48.0739 24.2179C48.0983 24.2071 48.1578 24.194 48.1578 24.1842C48.1578 24.1743 48.1334 24.0888 48.148 24.0542C48.2587 23.825 48.3893 23.6056 48.5384 23.3983C48.7112 23.1713 48.7457 22.8482 48.7457 22.8482L49.5007 22.4769L51.6229 22L53 22.082L52.8273 23.0129L52.0139 24.6382L51.318 26.1188L50.5233 27.0259L49.7929 27.5466H49.7926Z" fill="#543E26"/>
<path fill-rule="evenodd" clip-rule="evenodd" d="M52.6441 23.6285C52.6441 23.6285 51.8868 24.703 51.675 24.8685C51.8102 24.5378 52.6441 22.5693 52.9459 22.0217C52.8785 21.9597 52.7882 21.9597 53 21C52.82 21.4853 52.7567 21.7387 52.6081 21.8678C52.4596 21.9968 52.4412 21.9556 52.3408 21.9556C52.3597 21.9163 52.3675 21.8712 52.363 21.8266C52.363 21.8266 51.7276 21.7387 51.2935 21.7387C50.8595 21.7387 50.0003 22.0074 49.5223 22.2243C49.1438 22.4052 48.932 22.4052 48.7968 22.5186C48.6617 22.6477 48.585 22.7873 48.5173 22.8234C48.4632 22.8595 48.2065 22.9525 48.1477 23.0505C48.0936 23.1527 48.0036 23.2675 48.0036 23.2934C48.0036 23.3193 47.981 23.3557 48.0488 23.3295C48.071 23.3193 48.238 23.2157 48.4273 23.0866C48.6839 22.9215 48.995 22.7304 49.2205 22.6167C49.8649 22.3221 50.0678 22.3738 50.3559 22.3119C50.6578 22.2499 51.0906 22.1051 51.3788 22.1051C51.6673 22.0949 52.2127 22.1051 52.339 22.131C52.2849 22.1828 52.2398 22.2448 52.2623 22.4617C52.2623 22.5237 52.2172 22.5908 52.1732 22.7406C52.0383 23.1643 51.7814 23.8669 51.6385 24.2235C51.4403 24.7088 51.2151 25.1171 51.1037 25.3701C50.9923 25.6232 50.7472 26.2897 50.5045 26.6462C50.2618 27.0028 50.1349 27.2198 50.0589 27.2974C49.9828 27.3751 49.4368 27.8345 49.4775 28C49.5767 27.9639 50.2032 27.6935 50.6581 27.1064C51.1129 26.5192 51.2035 26.1609 51.5594 25.8405C51.9153 25.52 52.1949 24.9829 52.3616 24.5388C52.5012 24.1254 52.4697 23.9963 52.6453 23.6295L52.6441 23.6285Z" fill="#806031"/>
<path fill-rule="evenodd" clip-rule="evenodd" d="M35.8572 31.0973C35.8572 31.0973 35.771 31.5876 35.5752 31.8302C35.3835 32.0675 35.0429 32.2721 35.0039 32.671C34.957 33.0696 35.3445 33.2693 35.3445 33.2693C35.3445 33.2693 35.133 33.7488 35.133 34.1098C35.133 34.4817 35.1252 34.5517 35.1526 34.9073C35.1215 34.9348 35.0951 34.9711 35.0752 35.0139C35.0752 35.0139 35.0945 35.3588 35.2865 35.5741C35.4784 35.7893 35.6425 35.919 35.7403 35.865C35.7553 35.9089 35.7684 35.954 35.7796 36C35.7796 36 35.9246 35.4934 36.0224 35.0515C36.1201 34.5989 36.2063 34.6632 36.2453 34.0544C36.2842 33.4455 36.7097 32.4 36.7097 32.4L37 31.5066L36.5265 31L35.8572 31.097V31.0973Z" fill="#B6903C"/>
<path fill-rule="evenodd" clip-rule="evenodd" d="M37.3144 32C37.1817 32.1133 37.0592 32.2345 36.9479 32.3628C36.7778 32.5576 36.6449 32.7343 36.3949 32.8099C36.1449 32.8854 35.9853 32.8848 36.0011 33.093C36.0169 33.3013 36.2511 33.3893 36.384 33.4955C36.5278 33.606 36.6449 33.7918 36.5811 34C36.6607 33.9691 36.8045 33.9335 36.9374 33.6947C37.0703 33.4558 38 32.0003 38 32.0003H37.3144V32Z" fill="#685026"/>
<path fill-rule="evenodd" clip-rule="evenodd" d="M40.6058 28.205C40.6058 28.205 40.6778 28.0123 40.6058 27.8725C40.5335 27.7278 40.0958 27.6795 39.8792 27.5154C39.6531 27.3466 39.3787 27.2293 39.1526 27.3034C39.1862 27.2213 39.321 27.0427 39.2103 27.0042C39.1044 26.9705 38.7102 27.1488 38.6042 27.2309C38.4983 27.3129 38.2576 27.4092 38.2097 27.4674C38.1618 27.5256 38.0797 27.6362 38.0315 27.5879C37.9833 27.5542 37.9595 27.4674 37.8776 27.5154C37.7958 27.5634 37.4019 27.8868 37.3293 28.075C37.2567 28.2632 37.0933 28.6829 36.6027 29.1601C36.1121 29.6373 35.9002 29.9463 36.0445 30.1247C36.1888 30.303 36.2564 30.173 36.2805 30.3272C36.299 30.4786 36.2909 30.632 36.2564 30.7805C36.1987 31.0314 36.1026 31.2676 36.2323 31.3159C36.5643 31.4221 36.8869 31.2206 36.9589 31.2822C37.1032 31.4123 36.877 31.8803 37.2186 31.9718C37.5653 32.0672 37.9068 31.8898 37.9068 31.8898L39.1672 31.2098L40.3797 30.5685L41 29.3384L40.6673 28.3112L40.6039 28.205H40.6058Z" fill="#D4B968"/>
<path fill-rule="evenodd" clip-rule="evenodd" d="M39.0879 31.8224C39.0879 31.8224 38.8591 31.4935 39.1399 31.2034C39.4208 30.9133 39.8205 30.7909 39.9764 30.6092C39.9467 30.5747 39.9069 30.5491 39.862 30.5358C39.9654 30.3608 40.1232 30.2201 40.3141 30.1327C40.2363 30.0592 40.1322 30.0002 40.0182 30.0002C39.7633 30.0002 39.6071 30.1476 39.3735 30.1476C39.1451 30.1476 39.119 30.0394 39.119 30.0394C39.119 30.0394 39.5037 30.0051 39.467 29.8429C39.4307 29.671 39.3643 29.671 39.3643 29.671C39.3643 29.671 40.1072 29.3796 40.237 29.2242C40.3668 29.0688 40.3514 28.8852 40.3775 28.8117C40.4655 28.8117 40.98 28.5562 41.1879 28.6644C41.3958 28.7725 41.2502 29.0671 41.2502 29.0671C41.2502 29.0671 41.8794 28.62 42.2 28.1816C42.4806 28.2062 42.6111 28 42.8166 28C43.0714 28 43.4715 28.3289 43.5492 29.0312C43.6013 29.434 43.6791 29.6648 43.6013 30.3771C43.565 30.7799 43.5753 31.6398 43.7041 32.0665C43.7921 32.4055 44 32.3712 44 32.3712C43.9681 32.4745 43.9049 32.5667 43.8181 32.6364C43.6777 32.7591 43.6623 33.0835 43.6777 33.2062C43.6984 33.2959 43.7245 33.3844 43.7558 33.4714C43.7558 33.4714 43.5897 33.653 43.5479 33.776C43.5116 33.8987 43.3403 33.9823 43.2153 33.9823C43.0903 33.9823 43.1529 33.9722 42.9868 33.9823C42.8207 33.9923 42.7686 34.0166 42.6645 33.9823C42.5604 33.9479 42.4826 33.9084 42.5244 33.5937C42.5607 33.2794 41.241 32.5476 41.241 32.5476L39.0831 31.8208L39.0879 31.8224Z" fill="#CCA849"/>
<path fill-rule="evenodd" clip-rule="evenodd" d="M37.0017 34.5281C37.0017 34.5281 37.4596 35 39.3422 35C40.2381 35 40.5504 34.9337 40.7359 34.8946C40.9373 34.8556 41.6921 34.6258 42.4523 33.9316C43.1368 33.304 42.9859 33.0468 42.9859 33.0468L42.5877 33L41.2936 33.1365L37.4645 34.3996L37 34.5281H37.0017Z" fill="#585136"/>
<path fill-rule="evenodd" clip-rule="evenodd" d="M38.6573 33.9451C38.6573 33.9451 37 34.2671 37 33.351C37 32.4573 38.023 31.5187 38.2789 31.3535C38.545 31.1879 39.1792 31 39.1792 31H40.7087L41 31.6749L40.8722 33.1315L38.6573 33.9448V33.9451Z" fill="#252211"/>
<path fill-rule="evenodd" clip-rule="evenodd" d="M39.6222 32.0934C39.6222 32.0934 39.273 31.8319 38.4784 32.1841C37.6838 32.5363 37.0411 33.2724 37.0017 33.9408C36.9624 34.5321 37.5991 34.9726 38.5909 34.9955C39.3291 35.0182 39.7745 34.9496 40 34.9048C39.9435 34.8498 39.6504 34.5517 39.6504 34.5517L39.6226 32.0937L39.6222 32.0934Z" fill="#C3B378"/>
<path fill-rule="evenodd" clip-rule="evenodd" d="M39.767 32.0171C39.767 32.0171 39.6902 31.9486 39.4625 32.0856C39.2728 32.1985 38.9958 32.4968 38.7803 32.7079C38.6416 32.8336 38.5544 32.8904 38.4759 32.9875C38.1576 33.41 37.8907 34.1008 38.045 34.4432C38.1992 34.7856 38.7069 35.1796 40 34.9113L39.7632 32.0175L39.767 32.0171Z" fill="#E6D89C"/>
<path fill-rule="evenodd" clip-rule="evenodd" d="M39.1781 32.5958C39.1781 32.5958 38.9758 32.9384 38.9758 33.4852C38.9758 34.043 39.2641 34.9321 40.3259 34.9983C41.1397 35.0537 41.6856 33.7172 42.2771 33.198C42.7271 32.8004 43 32.7891 43 32.7891C43 32.7891 42.5401 32.243 41.3117 31.5356C40.0982 30.8231 38.7382 30.7292 38 31.8229C38.3489 31.7952 39.4764 31.4803 39.4764 31.4803L40.0276 31.6736L39.1781 32.5962V32.5958Z" fill="#252211"/>
<path fill-rule="evenodd" clip-rule="evenodd" d="M40.3957 32.856C40.344 32.7882 40.3068 32.6975 40.5217 32.6751C40.7366 32.6527 40.8328 32.6658 40.9071 32.7646C40.9813 32.8635 41.0536 32.9459 40.9437 32.9868C40.8328 33.0229 40.5437 32.9868 40.3952 32.8554L40.3957 32.856ZM40.0475 32.2174C40.0475 32.2174 39.9733 32.249 40.0104 32.1857C40.025 32.109 40.1217 31.9728 40.3586 32.0048C40.5955 32.0367 40.5442 32.195 40.5051 32.2403C40.4661 32.2857 40.2683 32.3625 40.1198 32.3299C40.101 32.327 40.0835 32.3214 40.0689 32.3135C40.0543 32.3057 40.043 32.2959 40.0357 32.2849C40.0285 32.2738 40.0256 32.2619 40.0273 32.2501C40.029 32.2383 40.0353 32.2268 40.0456 32.2168L40.0475 32.2174Z" fill="#6F674D"/>
<path fill-rule="evenodd" clip-rule="evenodd" d="M27 32.6996C27 32.6996 27.3828 33.0118 27.8274 32.9997C28.2676 32.9889 28.8338 32.4946 29.0951 32.1786C29.2498 31.9945 29.3821 31.7999 29.5257 31.6472C29.6469 31.5158 29.7289 31.4527 29.7869 31.3632C29.8692 31.2591 29.9563 31.0635 30 31C29.8935 31.0895 29.7388 31.2477 29.5789 31.3528C29.4242 31.4568 29.0903 31.6524 28.9547 31.7052C28.8242 31.7579 27.4692 32.5376 27.4692 32.5376L27 32.6996Z" fill="#AC924C"/>
<path fill-rule="evenodd" clip-rule="evenodd" d="M28 29.4531C28 29.4531 28.2331 29.2914 28.6838 29.1887C29.1184 29.0821 29.993 29 29.993 29L30.7138 29.3198L31 30.425L30.4759 31.5736L29.8082 32L29.05 30.7601L28.0017 29.4552L28 29.4531Z" fill="#9F8E57"/>
<path fill-rule="evenodd" clip-rule="evenodd" d="M27.198 29.8429L27 30C27 30 27.0507 29.9016 27.0926 29.6021C27.1345 29.3027 27.3535 28.5738 27.6731 28.1535C27.9928 27.7332 27.9845 27.7556 27.9845 27.7556C27.9551 27.7499 27.9249 27.7509 27.8958 27.7586C27.8668 27.7662 27.8397 27.7804 27.8162 27.8001C27.8583 27.7011 28.1276 27.3474 28.3968 27.1705C28.666 26.9937 28.771 26.938 29.0527 27.0821C29.3344 27.2262 29.4059 27.3011 29.6122 27.2923C29.8185 27.2834 29.9948 27.0509 29.9948 27.0509C29.9948 27.0509 30.0369 27.1938 29.8814 27.5248C29.7259 27.8558 29.1118 28.5307 29.1118 28.5307L27.8331 29.4606L27.198 29.8438V29.8429Z" fill="#EAC970"/>
<path fill-rule="evenodd" clip-rule="evenodd" d="M28.0013 29.162C28.0013 29.162 29.0504 29.3168 29.3697 28.997C29.3791 29.0331 29.4175 29.0331 29.4175 29.0589C29.4149 29.0784 29.4065 29.0965 29.3936 29.1103C29.4283 29.1043 29.4634 29.1009 29.4986 29.1001C29.5406 29.1136 29.5838 29.1223 29.6274 29.1259C29.6626 29.1251 29.6977 29.1216 29.7324 29.1154C29.7291 29.141 29.721 29.1657 29.7087 29.1879C29.6964 29.2101 29.6801 29.2294 29.6608 29.2447C29.7085 29.2447 29.755 29.2549 29.755 29.296C29.755 29.3372 29.7645 29.4613 29.7073 29.4872C29.6599 29.5014 29.6094 29.4977 29.5643 29.4767C29.568 29.5744 29.5926 29.6698 29.6359 29.7556C29.7302 29.9464 29.9314 30.1638 30.2017 30.1012C30.2017 30.1012 30.3444 30.4727 29.7437 31.2982C29.663 31.4119 29.5768 31.5666 29.4722 31.6956C29.4308 31.7931 29.3992 31.8952 29.3779 32C29.3779 32 30.3937 31.5768 30.6844 30.6118C30.9802 29.6416 31.0374 28.6871 30.9802 27.7945C30.9704 27.5414 30.9324 27.3612 30.8752 27.2319C30.7322 26.9118 30.3315 26.9635 30.1696 27.1441C29.9358 27.3972 29.5448 28.0265 29.0014 28.4599C28.4482 28.8933 28.4246 28.9701 28 29.162H28.0013Z" fill="#D7BC6B"/>
<path fill-rule="evenodd" clip-rule="evenodd" d="M26.4046 30.0746C26.4046 30.0746 26.1626 30.2175 26.0358 30.753C25.9089 31.3018 26.1497 31.9707 26.2891 32.1822C26.4285 32.3936 26.745 32.9714 27.4014 33C27.5638 32.9991 27.7245 32.9661 27.8739 32.9028C28.1031 32.7985 28.318 32.6659 28.5136 32.5082C28.7962 32.2967 29.0264 32.1139 28.9975 32.0966C28.9284 32.068 27.2574 30.6957 27.2574 30.6957L26.6291 30L26.4042 30.0754L26.4046 30.0746Z" fill="#585136"/>
<path fill-rule="evenodd" clip-rule="evenodd" d="M27.5324 32C27.5324 32 27.8154 31.9828 27.9833 31.906C28.1512 31.8293 27 31 27 31L27.0816 31.8959L27.5324 32Z" fill="#453A25"/>
<path fill-rule="evenodd" clip-rule="evenodd" d="M27.1865 30.6829C27.1865 30.6829 27.006 30.9733 27.006 31.0498C26.9758 31.2992 27.0663 32.0835 27.1385 32.3329C27.2107 32.5978 27.602 33 28.1079 33C28.4206 33 28.8544 32.8372 28.8544 32.7966C28.8544 32.7455 28.4087 32.6958 28.2885 32.5062C28.2163 32.4054 28.1861 32.155 28.1694 31.9019C28.1575 31.739 28.1575 31.5608 28.2298 31.499C28.3925 31.3462 28.4222 30.9081 28.4222 30.9081L29 30H28.2401L27.331 30.4787L27.1865 30.6829Z" fill="#84754B"/>
<path fill-rule="evenodd" clip-rule="evenodd" d="M27 30.3961C27 30.3961 27.4677 29.7889 27.8892 29.6496C28.3107 29.5103 28.4993 29.594 28.4993 29.594L28.2534 30.2106L27.9032 30.5907L27.9269 30.7854C27.9269 30.7854 27.8699 31.2999 28.22 31.6568C28.5701 32.0137 28.8301 31.9999 28.9817 31.9999C29.1332 31.9999 29.5681 31.8747 29.7904 31.3601C29.989 30.8782 30.1546 30.2601 29.7574 29.6404C29.3692 29.0238 28.6836 29 28.5511 29C28.4186 29 27.3782 29.051 27 30.3952V30.3961Z" fill="#252211"/>
<path fill-rule="evenodd" clip-rule="evenodd" d="M39.058 32.9762C38.9217 32.9031 39.0507 32.4564 39.187 32.3187C39.3233 32.1811 39.4965 32.0224 39.799 32.0006C39.9093 31.9921 40.0162 32.0737 39.998 32.1598C39.9722 32.3187 39.7805 32.5422 39.6073 32.7012C39.3678 32.9204 39.2128 33.0578 39.058 32.9762Z" fill="#F7F7E7"/>
<path fill-rule="evenodd" clip-rule="evenodd" d="M29.4769 30.0009C29.6783 29.9872 29.9391 30.1371 29.9912 30.3388C30.0432 30.559 29.8644 31 29.4769 31C29.164 31 29 30.6417 29 30.5386C29.0035 30.4538 29.0291 30.3711 29.0747 30.2974C29.0894 30.2765 29.1267 30.0354 29.4769 30.0009Z" fill="#F8F6DE"/>
<path fill-rule="evenodd" clip-rule="evenodd" d="M27.6238 30C27.6238 30 27.2799 30.1594 27.1207 30.4929C27.0069 30.7391 26.9724 31.0147 27.0222 31.2815C27.0471 31.406 27.1716 31.7149 27.2563 31.8246C27.341 31.9343 27.4556 32.0093 27.5403 31.9991C27.6251 31.9889 27.7991 31.7648 27.7991 31.6304C27.7991 31.496 27.8093 30.9276 27.9735 30.6184C28.118 30.3095 27.6247 30.0003 27.6247 30.0003L27.6238 30Z" fill="#D4C38B"/>
<path fill-rule="evenodd" clip-rule="evenodd" d="M27.1018 30.3335C27.0578 30.3633 26.9847 30.4061 27.0028 30.4616C27.0212 30.5128 27.1749 30.5461 27.2299 30.6711C27.2921 30.7992 27.2921 30.9358 27.2738 31C27.3216 30.9735 27.365 30.9373 27.4019 30.893C27.4825 30.7863 27.5812 30.6413 27.6654 30.6413C27.7205 30.6413 27.7752 30.6711 27.8266 30.6711C27.9072 30.6711 27.9876 30.6413 27.9987 30.543C28.0168 30.4149 27.845 30.2994 27.746 30.3208C27.7644 30.2363 27.79 30.1116 27.7094 30.026C27.6288 29.9404 27.3764 30.0902 27.3213 30.133C27.2663 30.1758 27.1018 30.3338 27.1018 30.3338V30.3335Z" fill="#E2D59D"/>
<path fill-rule="evenodd" clip-rule="evenodd" d="M35.1264 40.2272L35.8339 40L36.0347 40.1559C36.0347 40.1559 36.1777 40.4887 36.4027 40.5302C36.3309 40.6964 36.1443 40.8386 36.1541 40.9565C36.1639 41.0744 36.2594 41.1645 36.2594 41.1645C36.2594 41.1645 35.6234 42.3081 36.8761 43.4606C36.5795 43.5905 36.202 43.769 36.0013 43.8718C36.1443 43.9082 36.4503 43.9746 36.5795 44.1008C36.7087 44.2269 36.7087 44.267 36.8282 44.3451C36.9476 44.4232 37.0191 44.5271 36.9955 44.5737C36.9142 44.5216 36.6416 44.366 36.594 44.5113C36.5464 44.6566 35.4132 44.5997 35.4132 44.5997L33.501 45C33.501 45 33.5725 44.792 33.3718 44.5997C33.1376 44.3711 32.8509 44.61 32.5449 44.3554C32.1434 44.0226 32.1289 43.6378 32 43.4925C32.1289 43.404 32.392 43.2742 33.0182 43.184C32.9942 43.1319 32.9129 42.976 32.9608 42.8358C33.0182 42.6539 33.2571 42.5394 33.1855 42.3218C33.2908 42.2958 33.3384 42.2958 33.6015 41.9369C33.8502 41.5781 34.003 41.5003 34.1943 41.4743C34.3856 41.4483 34.5003 41.4743 34.8542 41.1155C35.1025 40.8609 35.0215 40.6426 35.0215 40.6426C35.0215 40.6426 35.1838 40.5853 35.1268 40.2265L35.1264 40.2272Z" fill="#CBAC5A"/>
<path fill-rule="evenodd" clip-rule="evenodd" d="M33.0158 40.2672C33.0254 40.2134 33.0645 40.1865 33.3268 40.2134C33.5891 40.2403 35.2508 40.0416 35.7027 40.0147C36.1595 39.9772 37.7677 40.0037 38.5502 40.1865C39.3326 40.3692 40.1244 40.5842 40.5081 40.6915C40.8925 40.8097 41.0136 40.8522 40.9988 40.9061C40.9892 40.9599 40.9027 41.0123 40.8531 40.9974C40.8047 40.9868 39.5315 40.5569 39.1382 40.4662C38.7449 40.3756 37.384 40.133 36.6399 40.1475C35.9452 40.1585 35.6682 40.1369 35.0804 40.212C34.4923 40.2927 33.5206 40.4 33.2291 40.3572C32.9408 40.3196 33.0004 40.3196 33.0151 40.2658L33.0158 40.2672Z" fill="#D6BC6F"/>
<path fill-rule="evenodd" clip-rule="evenodd" d="M36.3232 44.0774C36.3232 44.0774 37.3071 44.5844 37.6623 45.2055C37.9214 45.6667 37.5089 45.8952 37.5089 45.8952C37.5089 45.8952 38.0657 45.8952 37.9936 46.1875C37.96 46.37 37.0338 46.8631 36.4147 47.1235C35.7861 47.384 35.8101 47.3704 35.503 47.4159C35.2053 47.4616 34.3894 47.3256 34.2214 47.5529C34.0535 47.7802 34.1265 48.0144 34.1734 48.0508C34.2214 48.0827 34.6102 48.1285 34.6102 48.1285C34.6102 48.1285 34.5286 48.3432 33.7226 48.366C32.9165 48.3889 32.7147 48.4434 32.6666 48.5259C32.6185 48.6033 32.82 48.5578 33.1898 48.6162C33.5593 48.671 34.0775 48.7065 34.0775 48.7065C34.0775 48.7065 33.9095 48.8435 33.473 48.9531C32.9738 49.0762 32.1915 49.1907 31.9564 49.3276C32.0763 49.4053 32.2541 49.5194 32.336 49.5284C32.1345 49.5742 31.8511 49.6748 31.8033 49.7112C31.8751 49.757 31.9713 49.8117 31.9713 49.8117C31.9713 49.8117 31.5679 50.273 31.3329 50.3874C31.0978 50.5018 29.7445 51.0997 29.2789 50.9856C28.1176 50.6933 27.9736 49.483 27.6905 49.3918C27.2634 49.2548 27.0619 49.5284 26.6826 49.3367C26.8506 49.2226 26.942 49.1542 27.1195 49.0765C26.9275 48.9862 25.9341 48.3868 25.9341 48.3868C25.8303 48.1713 25.715 47.961 25.5887 47.7567C25.3967 47.4415 25.1142 47.0212 24.9022 46.6512C24.4416 45.8383 24.4176 45.4638 24 45.0025C24.0721 44.9122 24.3214 44.9249 24.3214 44.9249L27.8202 46.021L34.024 46.1921L35.6374 44L36.3236 44.0777L36.3232 44.0774Z" fill="#DFC677"/>
<path fill-rule="evenodd" clip-rule="evenodd" d="M28 47.497C28.0356 47.5311 28.077 47.5603 28.1229 47.5835C28.2372 47.6503 28.4058 47.729 28.5197 47.8467C28.5654 47.7879 28.6793 47.6816 28.8804 47.8467C29.0815 48.0117 29.3313 47.8941 29.4868 47.9332C29.6464 47.9806 29.6554 48 29.6554 48C29.6554 48 29.7456 47.9332 29.9473 47.8625C30.0705 47.8231 30.2163 47.7956 30.3759 47.7565C30.5217 47.729 30.6813 47.6897 30.791 47.6897C30.8914 47.7485 31.2516 48.0782 32.6971 47.5915C34.0606 47.1356 34.3751 47.0846 34.6032 47.155C34.6261 47.1079 34.6489 47.0175 35 47.0294C35 46.9038 34.7081 46.4753 34.7081 46.4753L33.0984 46H32.218L29.5778 46.4165L28.1148 47.1359L28.0009 47.4985L28 47.497Z" fill="#C4A859"/>
<path fill-rule="evenodd" clip-rule="evenodd" d="M27 46.0955C27 46.0955 27.0332 46.3372 27.414 46.5926C27.7903 46.8477 27.9085 47 27.9085 47C27.9085 47 27.98 46.9114 28.0371 46.8211C28.0942 46.7225 28.1419 46.6106 28.2369 46.5793C28.4273 46.5031 28.8601 46.6463 28.9554 46.6239C29.0363 46.6018 29.0125 46.445 29.0981 46.445C29.2979 46.4358 29.4261 46.5657 29.4976 46.5657C29.5691 46.5657 29.7448 46.5569 29.7686 46.5212C29.7924 46.4854 29.8018 46.1135 30.0731 45.9343C30.3682 45.7374 30.7298 45.8224 30.8258 45.8673C30.8258 45.9343 30.8352 46.1002 31.0256 46.109C31.2159 46.1179 31.2347 46.0866 31.4019 46.1403C31.5691 46.1941 31.7682 46.1315 31.8585 46.3954C31.9394 46.3733 32.1298 46.3508 32.0821 46.0955C32.1762 46.0284 32.2584 45.9836 32.4585 45.7193C32.5061 45.6523 32.5867 45.5762 32.6488 45.4776C32.8154 45.4776 33.0151 45.4463 33.2814 45.6656C33.2005 45.7193 33.1528 45.7542 33.1293 45.8088C33.1989 45.8737 33.2625 45.9441 33.3194 46.0193C33.3909 46.1078 33.4385 46.2165 33.5288 46.2389C33.7286 46.2927 34.057 46.2165 34.4233 46.2389C34.7755 46.2614 35.0703 46.3821 35.1988 46.4583C35.2465 46.4361 35.2465 46.427 35.3654 46.4494C35.4842 46.4719 35.5746 46.4807 35.4463 46.3375C35.5175 46.3688 35.5984 46.4361 35.6699 46.3688C35.7414 46.3015 35.7982 46.2032 35.9979 46.1808C36.1977 46.1583 36.2692 46.1896 36.3501 45.9927C36.4549 45.7509 36.0933 45.7509 36.0933 45.7509C36.0933 45.7509 36.2598 45.6075 36.4455 45.4194C36.6691 45.2225 36.9259 44.9671 36.9877 44.6536C37.0925 44.0759 36.4931 44 36.4931 44L33.5862 44.842L30.0323 44.676L27.0019 46.0957L27 46.0955Z" fill="#927D49"/>
<path fill-rule="evenodd" clip-rule="evenodd" d="M23.7259 38.0045C23.7259 38.0045 23.6277 38.1293 23.5672 38.424C23.5067 38.7186 23.5325 38.6837 23.4828 38.8934C23.433 39.1032 22.8221 41.1908 23.0512 41.895C23.2802 42.5992 23.6768 42.8589 23.9248 43.4282C23.9746 43.5529 24.023 43.628 24.0488 43.738C24.1333 44.1074 24.059 44.3921 24.1581 44.7619C24.1928 44.8866 24.2825 45.0315 24.4163 45.1813C24.7108 45.4908 25.1908 45.7854 25.3979 45.9951C25.6904 46.3049 26.1076 46.9344 26.6387 46.994C26.9217 47.0289 27.3239 46.909 27.6563 46.7095C27.9508 46.5245 28.1327 46.2651 28.4416 46.1169C28.6598 46.007 28.8931 45.9671 29.1016 45.9171C29.5335 45.8322 29.9258 45.8183 30.1591 45.8671C30.5164 45.9421 31.3603 46.2019 31.8278 46.2019C32.1932 46.1959 32.5565 46.1456 32.9099 46.0521C33.6196 45.8424 34.4782 45.4825 35.0443 45.3228C35.3767 45.2241 35.6447 45.1981 35.9179 45.1382C36.3845 45.0282 36.7765 44.8784 37 44.5936C36.8511 44.4188 36.6676 44.1492 35.6745 44.159C34.5479 44.1841 33.2473 44.8132 32.6069 44.9133C31.9666 45.0134 31.6888 45.098 30.9738 44.8382C30.273 44.5758 30.2497 44.4023 30.2497 44.4023C30.2497 44.4023 29.5138 43.8845 29.2059 42.5643C28.898 41.2441 29.2059 40.2821 30.0053 39.3679C30.2137 39.1331 30.164 38.9234 30.164 38.9234C30.164 38.9234 30.6902 38.2093 30.5462 37.5407C30.3875 36.8763 29.3699 37.0113 29.3699 37.0113L23.7262 38.0045H23.7259Z" fill="#6E6342"/>
<path fill-rule="evenodd" clip-rule="evenodd" d="M25.0577 40C25.0158 40.071 24.9961 40.1509 25.0007 40.2311C25.0101 40.3466 25.0483 40.4964 25.4335 40.8348C25.7619 41.13 25.6904 41.4596 25.6904 41.4596C25.6904 41.4596 25.8556 41.4896 26.3042 41.3007C26.6564 41.1509 26.7746 41.4165 26.7746 41.4165C26.8772 41.3681 26.9883 41.3362 27.103 41.3222C27.2069 41.3136 27.3076 41.2847 27.3978 41.2375C27.3978 41.2375 27.8118 41.6185 28.1735 41.7983C28.5019 41.9569 28.6922 42.0639 28.8541 41.9569C29.0062 41.8626 29.0062 41.6699 28.9965 41.5844C28.9587 41.5055 28.9109 41.4307 28.8541 41.3617C28.7493 41.2248 28.5828 41.0662 28.5718 40.9384C28.548 40.6432 28.8193 40.2918 28.7619 40.2063C28.7045 40.1208 28.4909 40.0993 27.9627 40.2706C27.4157 40.4332 25.0555 40.0008 25.0555 40.0008L25.0577 40Z" fill="#39331F"/>
<path fill-rule="evenodd" clip-rule="evenodd" d="M26.2001 43C26.2001 43 25.9237 42.6584 26.0206 41.0002C26.138 40.998 26.2552 41.0128 26.3701 41.0444C26.3701 41.0444 26.5208 42.3292 26.2001 43Z" fill="#292311"/>
<path fill-rule="evenodd" clip-rule="evenodd" d="M24.1976 37.214C24.2337 37.1866 24.2672 37.1557 24.2976 37.1218C24.2078 37.2943 23.7933 37.9846 24.1294 39.0716C24.4655 40.1537 25.3098 40.9606 26.3495 40.9981C27.3893 41.0356 27.9358 40.5129 28.5607 39.7294C28.8058 39.4169 29.0875 39.0249 29.3371 38.7592C29.7094 38.3438 30 38.2272 30 37.8263C30 37.0052 29.1826 36.6365 27.9795 36.2682C26.7763 35.8998 25.6911 35.9453 25.1281 36.1974C24.5789 36.4723 24.3428 36.7617 24.1973 37.2143L24.1976 37.214Z" fill="#252211"/>
<path fill-rule="evenodd" clip-rule="evenodd" d="M28.001 42.4226L28.097 42.374C28.097 42.374 28.121 41.99 28.2765 42.0002C28.4317 42.0245 28.5046 42.2287 28.4899 42.3013C28.4803 42.374 28.4416 42.4956 28.2861 42.4808C28.0822 42.4856 28 42.4226 28 42.4226H28.001Z" fill="#3F3824"/>
<path fill-rule="evenodd" clip-rule="evenodd" d="M27.7393 41.2253C27.7393 41.2253 27.8353 41.1914 27.9527 41.3079C28.0487 41.3079 28.4673 41.2592 28.5985 41.3418C28.7297 41.4243 28.7684 41.497 28.7684 41.497C28.7684 41.497 28.2781 41.6039 28.0109 41.497C27.7393 41.4048 27.7393 41.2253 27.7393 41.2253Z" fill="#2D2815"/>
<path fill-rule="evenodd" clip-rule="evenodd" d="M29.897 41.2972C29.897 41.2729 29.6349 41.0934 29.3581 41.0348C29.3094 41.0252 29.2995 41.0591 29.2621 41.0591C29.2378 41.0495 29.2282 40.9766 29.2282 40.9766L29.0707 41.0594C29.0707 41.0594 29.0464 41.0934 29.129 41.1554C29.2016 41.2137 29.3232 41.2623 29.3571 41.3593C29.391 41.4562 29.391 41.4902 29.4058 41.5049C29.4154 41.5145 29.5853 41.5049 29.6678 41.4562C29.7504 41.4076 29.9059 41.3282 29.896 41.2962L29.897 41.2972Z" fill="#82764F"/>
<path fill-rule="evenodd" clip-rule="evenodd" d="M27.4463 42.2794C27.4463 42.2794 27.4946 41.9447 27.82 41.93C28.1548 41.9057 28.2181 42.2308 28.2181 42.2308L28.0239 42.425C28.0239 42.4202 27.8783 42.2164 27.4479 42.2794H27.4463Z" fill="#2D2816"/>
<path fill-rule="evenodd" clip-rule="evenodd" d="M29.5594 40.8419C29.5594 40.8419 29.3795 41.0361 28.9818 41.0944C28.9478 41.0457 28.8749 40.9488 28.9818 40.7936C29.0886 40.6384 29.2099 40.5897 29.3312 40.638C29.3847 40.6467 29.4346 40.6705 29.475 40.7066C29.5155 40.7427 29.5447 40.7897 29.5594 40.8419Z" fill="#574F35"/>
<path fill-rule="evenodd" clip-rule="evenodd" d="M30.2922 41.0756C30.3021 41.027 30.2682 41.0174 30.2922 40.9931C30.3162 40.9688 30.4477 40.9204 30.472 40.9444C30.4816 40.9544 30.472 40.9931 30.472 41.0404C30.472 41.0878 30.472 41.1364 30.4477 41.1713C30.4138 41.22 30.3168 41.2443 30.2682 41.2299C30.2196 41.2155 30.21 41.1473 30.21 41.1339C30.234 41.1243 30.2922 41.1 30.2922 41.0756ZM31.121 40.5515C31.121 40.5272 31.2036 40.4785 31.2522 40.4785C31.3248 40.4785 31.3248 40.5368 31.3348 40.5515C31.3588 40.5611 31.3588 40.5416 31.3831 40.5854C31.4074 40.6292 31.4416 40.7067 31.417 40.7553C31.3924 40.804 31.2957 40.8376 31.2717 40.828C31.2378 40.8036 31.1309 40.5854 31.121 40.5515Z" fill="#82764F"/>
<path fill-rule="evenodd" clip-rule="evenodd" d="M29.4531 41.1917C29.4531 41.1917 29.56 41.2157 29.7056 41.3373C29.657 41.3712 29.584 41.41 29.584 41.41C29.584 41.41 29.5744 41.2983 29.4531 41.1914V41.1917Z" fill="#6E6342"/>
<path fill-rule="evenodd" clip-rule="evenodd" d="M29.2128 40.1198C29.1885 40.0958 29.2855 40.0375 29.3437 40.0471C29.4019 40.0567 29.4263 40.0958 29.4893 40.1054C29.5523 40.115 29.5623 40.081 29.5853 40.0567C29.6083 40.0324 29.6922 40.0471 29.7066 40.0567C29.7155 40.0674 29.7237 40.0787 29.7309 40.0906C29.7319 40.0722 29.7367 40.0541 29.745 40.0376C29.7534 40.0211 29.765 40.0065 29.7792 39.9946C29.7978 39.981 29.8193 39.9717 29.842 39.9674C29.8648 39.9632 29.8881 39.9642 29.9104 39.9703C29.92 40.0042 29.9687 40.1255 29.9591 40.1498C29.9495 40.1742 29.8039 40.2084 29.7792 40.1838C29.8035 40.2423 29.9104 40.3636 29.9248 40.3876C29.9392 40.4116 29.8179 40.4702 29.7696 40.4606C29.7018 40.4558 29.2842 40.2129 29.2115 40.1207L29.2128 40.1198ZM29.8487 39.314C29.8397 39.2895 29.8225 39.269 29.8 39.2558C29.7661 39.2462 29.6544 39.2558 29.6544 39.314C29.6544 39.3722 29.7504 39.698 29.8583 39.8676C29.9799 40.0375 30.0621 40.178 30.1447 40.217C30.1706 40.2288 30.2 40.2304 30.227 40.2214C30.254 40.2123 30.2766 40.1934 30.2903 40.1684C30.2999 40.1441 30.3242 39.9646 30.3146 39.5422C30.305 39.1198 30.2903 38.7121 30.2659 38.6878C30.2416 38.6634 30.1447 38.6638 30.1107 38.7121C30.0768 38.7604 29.8583 39.2414 29.8483 39.314H29.8487Z" fill="#585136"/>
<path fill-rule="evenodd" clip-rule="evenodd" d="M29.4163 41.8026C29.4163 41.8026 29.2464 41.6957 29.0813 41.7687C28.9261 41.8416 28.9357 42.128 28.9357 42.128C28.9706 42.1417 29.0083 42.1466 29.0456 42.1424C29.0828 42.1381 29.1185 42.1249 29.1494 42.1037C29.2563 42.0311 29.392 41.9098 29.4163 41.8029V41.8026Z" fill="#574F35"/>
<path fill-rule="evenodd" clip-rule="evenodd" d="M29.7396 42.1828C29.73 42.0868 29.6436 42.0868 29.6436 42.0372C29.6495 42.0134 29.6632 41.9924 29.6826 41.9775C29.7019 41.9625 29.7257 41.9544 29.7501 41.9546C29.7988 41.9546 29.8461 42.0128 29.9056 42.0506C29.9639 42.0845 30.0512 42.1466 30.0608 42.2205C30.0704 42.2944 29.9648 42.497 29.8474 42.497C29.73 42.497 29.7648 42.2784 29.7405 42.1815L29.7396 42.1828ZM30.6765 42.0516C30.6765 42.0516 30.4823 42.1098 30.4967 42.0516C30.5111 41.9933 30.5552 41.9789 30.6183 41.9789C30.6503 41.9454 30.6934 41.9246 30.7396 41.9204C30.766 41.9191 30.7919 41.9277 30.8122 41.9447C30.8122 41.9447 30.9434 41.8864 30.9821 41.9204C31.0208 41.9543 30.992 41.9543 31.016 41.9933C31.0466 42.0366 31.0666 42.0865 31.0746 42.1389C31.0746 42.1776 30.929 42.2602 30.8122 42.2458C30.6765 42.2167 30.7005 42.0759 30.6765 42.0516ZM31.8074 41.833C31.8074 41.833 31.8656 41.8669 31.8173 41.906C31.7834 41.9399 31.6135 42.002 31.4676 42.0128C31.322 42.0128 31.1911 42.0368 31.1911 41.9885C31.1911 41.9402 31.3124 41.8429 31.385 41.8186C31.3996 41.8003 31.4181 41.7856 31.4391 41.7755C31.4602 41.7655 31.4832 41.7603 31.5066 41.7604C31.5648 41.7604 31.7927 41.736 31.856 41.7264C31.9143 41.7165 31.9629 41.7504 31.9287 41.7991C31.9143 41.833 31.8074 41.833 31.8074 41.833ZM32.1424 40.3341C32.1424 40.3341 32.0695 40.4893 31.9872 40.4893C31.9047 40.4797 31.9047 40.4554 31.9047 40.4311C31.9047 40.3972 31.9872 40.3098 31.9773 40.2855C31.9533 40.2855 31.8948 40.2855 31.9047 40.2272C31.9047 40.1786 31.9872 40.1204 32.0599 40.1312C32.1148 40.0861 32.1831 40.0606 32.2541 40.0586C32.3367 40.0586 32.4093 40.0826 32.4093 40.1312C32.4093 40.1799 32.3133 40.2864 32.2781 40.3111C32.2394 40.3498 32.1908 40.3751 32.1424 40.3351V40.3341ZM31.0356 43.2029C31.0356 43.2029 30.9396 43.2128 30.9396 43.2612C30.9396 43.2855 30.9636 43.2855 30.9978 43.2711C31.0175 43.27 31.0371 43.2666 31.056 43.2612C31.0656 43.2711 31.0656 43.3194 31.1386 43.3194C31.1985 43.3113 31.2562 43.2915 31.3085 43.2612C31.3668 43.2372 31.4154 43.2125 31.4154 43.1652C31.3911 43.0826 31.3424 43.0436 31.2698 43.0436C31.2326 43.0412 31.1955 43.0496 31.1629 43.0679C31.1629 43.0679 31.1386 43.0192 31.056 43.0679C30.9735 43.1165 30.9831 43.1165 31.0074 43.1408C31.0509 43.1796 31.0365 43.2048 31.0365 43.2048L31.0356 43.2029ZM30.4871 43.7079C30.4871 43.6836 30.6084 43.6349 30.6423 43.6496C30.6762 43.6592 30.7732 43.8436 30.7732 43.8631C30.7732 43.8874 30.6519 43.9456 30.6032 43.9456C30.5546 43.9456 30.4724 43.8631 30.4724 43.8496C30.4724 43.84 30.5306 43.8256 30.5306 43.8157C30.545 43.7917 30.4871 43.7332 30.4871 43.7088V43.7079ZM30.1031 42.9991C30.1274 42.9895 30.1274 42.9652 30.1613 42.9408C30.1719 42.9338 30.184 42.9292 30.1967 42.9276C30.2093 42.9259 30.2222 42.9272 30.2343 42.9312C30.2428 42.916 30.2547 42.9028 30.269 42.8927C30.2832 42.8825 30.2996 42.8757 30.3168 42.8727C30.3751 42.8631 30.4237 42.8727 30.4128 42.897C30.4128 42.97 30.4615 43.0183 30.4615 43.0765C30.4615 43.1348 30.4276 43.2077 30.3063 43.2564C30.185 43.2903 30.0199 43.2903 29.9956 43.2807C29.9712 43.2711 29.9469 43.1738 29.9712 43.1252C29.9956 43.0765 30.0634 43.0234 30.1024 42.9991H30.1031Z" fill="#82764F"/>
<path fill-rule="evenodd" clip-rule="evenodd" d="M30.2583 43.0322C30.2583 43.0322 30.1758 43.0809 30.1758 43.1052C30.1685 43.1287 30.1652 43.1532 30.1662 43.1778C30.1662 43.1922 30.2731 43.1682 30.2875 43.1535C30.2923 43.1439 30.2583 43.0575 30.2583 43.0322Z" fill="#6E6342"/>
<path fill-rule="evenodd" clip-rule="evenodd" d="M29.5356 42.8037C29.5839 42.8136 29.6664 42.8037 29.7295 42.828C29.7781 42.8523 29.812 42.901 29.7634 42.9592C29.7148 43.0175 29.6674 43.1048 29.5596 43.0901C29.4383 43.0805 29.3218 43.0175 29.3218 42.9688C29.3198 42.938 29.3239 42.9072 29.3339 42.878C29.3439 42.8488 29.3596 42.822 29.38 42.7989C29.4287 42.7602 29.4527 42.7845 29.5352 42.8037H29.5356Z" fill="#585136"/>
<path fill-rule="evenodd" clip-rule="evenodd" d="M29.4748 42.8564C29.4748 42.8564 29.3196 42.9777 29.2805 43.0363C29.2319 43.0945 28.9941 43.3953 28.9215 43.4584C28.9456 43.4158 28.9731 43.3752 29.0037 43.3371C28.9077 43.3985 28.8357 43.491 28.7999 43.5992C28.7416 43.779 29.1253 43.876 29.3775 43.9489C29.6296 44.0219 29.7272 44.0449 29.7272 44.0449C29.6344 43.9054 29.5547 43.7576 29.4892 43.6033C29.3932 43.3752 29.3436 43.3508 29.4066 43.244C29.4552 43.1371 29.5282 43.0644 29.5282 42.9819C29.4991 42.9051 29.4748 42.8564 29.4748 42.8564Z" fill="#574F35"/>
<path fill-rule="evenodd" clip-rule="evenodd" d="M23.9411 43.2372C23.9764 43.2437 24.0126 43.2437 24.0479 43.2372C24.1206 43.2273 24.878 42.9492 25.6694 42.9992C26.2618 43.035 26.849 43.1315 27.4217 43.2872C28.4169 43.5492 29.6547 44.0686 30.4556 44.3649C30.6691 44.4472 30.878 44.5931 31.0316 44.651C31.6435 44.8891 31.6675 44.8891 32.0268 44.9521C32.4492 45.0104 32.8812 44.8696 33.3327 44.7726C33.886 44.651 34.8326 44.5928 35.6627 44.4715C35.9311 44.4343 36.1958 44.3742 36.454 44.292C36.454 44.292 35.7939 44.9521 34.2111 45.1899C33.5714 45.287 32.9213 45.2952 32.2793 45.2142C31.7743 45.1656 31.4396 45.0926 31.1871 45.02C30.9007 44.9374 30.3132 44.7188 29.59 44.54C29.0851 44.4088 28.5219 44.3118 27.8764 44.1905C26.2841 43.899 24.5561 43.5643 23.9404 43.2392L23.9411 43.2372Z" fill="#252211"/>
<path fill-rule="evenodd" clip-rule="evenodd" d="M22.1546 40.2393C21.7706 40.5644 21.3632 40.8751 20.9655 41.1759L19.7664 42.0972C19.3588 42.398 18.9607 42.7087 18.5527 43.0098C18.1447 43.3109 17.7373 43.597 17.3047 43.8738C17.6887 43.5487 18.096 43.2476 18.5037 42.9516C18.9114 42.6556 19.3341 42.3653 19.7274 42.0652L20.9264 41.1426C21.3389 40.8418 21.737 40.5311 22.1546 40.2399V40.2393ZM20.0333 43.6373C20.0333 43.6373 20.4653 43.278 21.0042 42.7733C21.674 42.1474 22.4944 41.3461 22.7565 41.2009L20.033 43.6377L20.0333 43.6373Z" fill="#CFB66C"/>
<path fill-rule="evenodd" clip-rule="evenodd" d="M20.0342 43.6381C20.2479 43.4247 20.4761 43.216 20.7043 43.0119L21.0537 42.7111C21.1606 42.6151 21.2822 42.5072 21.3887 42.4004C21.6022 42.1869 21.8111 41.9584 22.0246 41.7402C22.1304 41.6305 22.2422 41.5267 22.3596 41.4295C22.4183 41.3775 22.4835 41.3334 22.5535 41.2983C22.6121 41.2644 22.6751 41.2023 22.7574 41.1914C22.7091 41.2644 22.6508 41.2983 22.6022 41.3613C22.5439 41.41 22.4953 41.4682 22.447 41.5165C22.3401 41.6234 22.2188 41.7204 22.1119 41.8176C21.8838 42.0119 21.646 42.2016 21.4179 42.4048C21.1897 42.608 20.9763 42.8272 20.7478 43.0311C20.5004 43.24 20.2723 43.4439 20.0342 43.6391V43.6381ZM22.9372 41.6964C22.9372 41.6964 21.3548 43.2452 21.0294 43.4973L22.9372 41.6964Z" fill="#CFB66C"/>
<path fill-rule="evenodd" clip-rule="evenodd" d="M22.9381 41.6943C22.7958 41.8591 22.6431 42.0147 22.4812 42.1603L22.0012 42.6166C21.846 42.7718 21.7 42.9273 21.5352 43.0825C21.3653 43.2281 21.2101 43.3705 21.0303 43.5049L21.4962 43.0486C21.6517 42.8934 21.8216 42.7625 21.9868 42.607L22.4527 42.1507C22.6127 41.9907 22.7682 41.8351 22.9381 41.6943ZM23.0108 42.534C22.8649 42.9411 22.693 43.3384 22.4962 43.7235C22.0885 44.5391 21.477 45.5583 21.2098 46.078L23.0108 42.534Z" fill="#CFB66C"/>
<path fill-rule="evenodd" clip-rule="evenodd" d="M23.0071 42.5342C23.0071 42.7137 22.9585 42.8692 22.9002 43.0244C22.8434 43.1798 22.7787 43.3321 22.7063 43.4807C22.6333 43.6263 22.5508 43.7819 22.4682 43.9227C22.3857 44.0635 22.2887 44.2087 22.2157 44.3547L21.7255 45.2187C21.5556 45.5067 21.3905 45.7963 21.2109 46.0731C21.3322 45.7623 21.4973 45.4711 21.6529 45.1847C21.8228 44.8967 21.978 44.6087 22.1329 44.3108C22.2085 44.1624 22.2765 44.0102 22.3367 43.8548C22.4093 43.6993 22.482 43.5537 22.5405 43.4129C22.6132 43.2577 22.6714 43.1118 22.7444 42.9713C22.8266 42.8206 22.8948 42.675 23.0065 42.5342H23.0071Z" fill="#CFB66C"/>
<path fill-rule="evenodd" clip-rule="evenodd" d="M24.7371 46.5137C24.7371 46.5137 24.2571 47.1495 24.3051 47.9553C24.436 47.5332 24.6011 46.8874 24.7371 46.5137ZM25.1935 47.1511C25.1935 47.1511 25.0235 48.8791 24.8827 49.7287C25.0818 48.7466 25.1205 48.8292 25.1935 47.1511ZM28.373 49.8308C28.373 49.8308 27.6546 51.9428 27.6399 52.5297C27.7954 51.9262 28.0962 50.6932 28.373 49.8292V49.8308Z" fill="#DEC270"/>
<path fill-rule="evenodd" clip-rule="evenodd" d="M30.0537 46.3818C30.0537 46.3818 31.2188 48.3041 32.0928 49.9447C31.8563 49.1191 31.3123 47.6049 30.0537 46.3818Z" fill="#CBAF59"/>
<path fill-rule="evenodd" clip-rule="evenodd" d="M33.1836 49.2139C33.8233 50.3446 34.4002 51.5098 34.9116 52.7041C34.8146 51.8788 34.5522 50.4663 33.1836 49.2139Z" fill="#E3C677"/>
<path fill-rule="evenodd" clip-rule="evenodd" d="M42.3869 52.0504C42.5808 51.9291 42.9645 51.2686 43.2995 51.1038C43.6343 50.9339 43.8867 50.9 44.1879 50.5649C44.4887 50.2152 44.5718 50.0017 45.2314 49.7252C46.1539 49.3268 45.5194 48.8123 45.5194 48.8123C45.621 48.7125 45.7296 48.6201 45.8445 48.5358C46.0826 48.3563 46.3591 48.1377 46.3351 47.754C46.3011 47.1086 46.1798 46.1716 45.6506 45.628C46.1651 45.5211 47.1504 45.4484 47.7626 45.2932C48.471 45.1134 48.7965 44.8609 48.7965 44.8609C48.7965 44.8609 48.3888 44.1668 49.049 43.468C49.7091 42.7691 50.248 42.3515 50.6461 41.5697C50.1898 41.5115 49.4941 41.2689 47.7187 41.9435C47.8146 41.9886 47.9071 42.0404 47.9955 42.0987C47.9955 42.0987 46.9034 42.3998 46.5053 42.7348C45.8109 43.322 45.7235 43.8027 44.9712 44.162C44.2189 44.5214 43.4615 44.4241 42.8355 44.7153C42.2096 45.0065 42.1171 45.2542 41.8886 45.3611C41.9373 45.4193 41.879 45.5163 41.9712 45.5988C41.913 45.6814 41.5731 46.2347 41.2285 46.2347C41.2624 46.3659 41.5536 46.4628 41.5536 46.4628C41.5536 46.4628 41.3402 46.6184 40.7965 46.6571C41.073 46.9451 41.3354 47.259 42.0586 47.7153C42.0003 47.8366 41.7574 48.0164 41.8547 48.2446C41.9616 48.4728 42.2387 48.7835 43.345 49.036C42.7818 49.06 42.1219 49.1912 41.233 49.0699C40.3446 48.963 40.199 48.9 39.6506 49.036C39.7088 49.0942 39.864 49.0942 40 49.2494C39.8544 49.259 38.9418 49.1425 38.631 49.5505C38.3059 49.9726 38.1651 50.667 38.1894 51.1329C38.0195 51.2155 37.8544 51.3611 37.937 51.6622C38.0195 51.9633 38.4515 52.0603 38.7283 52.2494C39.0048 52.4532 39.0291 52.5259 39.2915 52.4776C39.568 52.4193 39.9757 52.1428 40.2138 52.1428C40.4518 52.1428 40.6214 52.3224 40.6214 52.3224C40.6214 52.3224 41.2672 52.0116 41.3302 52.0699C41.3885 52.1281 41.3398 52.5019 41.4029 52.5601C41.4669 52.604 42.1942 52.172 42.3885 52.0504H42.3869Z" fill="#ECD592"/>
<path fill-rule="evenodd" clip-rule="evenodd" d="M56.4979 32.6214C53.464 24.7865 45.9638 23.335 45.9638 23.335H24.5658L24.6483 31.3154H28.9098V49.1359H24.5654V57.102H45.3715C50.3859 57.102 54.4054 52.063 54.4054 52.063C60.8422 42.9273 56.4976 32.6214 56.4976 32.6214H56.4979ZM45.4832 46.694C45.4832 46.694 43.8512 49.0486 42.0755 49.0486H38.5235L38.4394 31.335H42.9978C42.9978 31.335 45.1098 31.7766 46.5853 35.9561C46.5853 35.9561 48.5414 41.9401 45.4832 46.694Z" fill="white" fill-opacity="0.8"/>
</svg>
