<svg width="20" height="20" viewBox="0 0 20 20" fill="none" xmlns="http://www.w3.org/2000/svg">
<g clip-path="url(#clip0_215_10761)">
<path fill-rule="evenodd" clip-rule="evenodd" d="M20 10C20 15.5228 15.5228 20 10 20C4.47715 20 0 15.5228 0 10C0 4.47715 4.47715 0 10 0C15.5228 0 20 4.47715 20 10ZM11.9879 4.44499C11.9879 4.44499 14.488 4.92883 15.4993 7.54045H15.4992C15.4992 7.54045 16.9474 10.9758 14.8018 14.021C14.8018 14.021 13.462 15.7007 11.7905 15.7007H4.85514V13.0453H6.30325V7.10515H4.88277L4.85525 4.44499H11.9879ZM10.6918 13.0162C11.2837 13.0162 11.8277 12.2313 11.8277 12.2313C12.8471 10.6467 12.1951 8.65203 12.1951 8.65203C11.7032 7.25885 10.9992 7.11165 10.9992 7.11165H9.47978L9.50784 13.0162H10.6918Z" fill="#4C948F"/>
</g>
<defs>
<clipPath id="clip0_215_10761">
<rect width="20" height="20" fill="white"/>
</clipPath>
</defs>
</svg>
