<svg width="20" height="20" viewBox="0 0 20 20" fill="none" xmlns="http://www.w3.org/2000/svg">
<g clip-path="url(#clip0_211_9216)">
<mask id="mask0_211_9216" style="mask-type:luminance" maskUnits="userSpaceOnUse" x="-3" y="0" width="27" height="20">
<rect x="-3" width="26.6667" height="20" fill="white"/>
</mask>
<g mask="url(#mask0_211_9216)">
<path fill-rule="evenodd" clip-rule="evenodd" d="M-3 0V20H23.6667V0H-3Z" fill="#2E42A5"/>
<mask id="mask1_211_9216" style="mask-type:luminance" maskUnits="userSpaceOnUse" x="-3" y="0" width="27" height="20">
<path fill-rule="evenodd" clip-rule="evenodd" d="M-3 0V20H23.6667V0H-3Z" fill="white"/>
</mask>
<g mask="url(#mask1_211_9216)">
<mask id="mask2_211_9216" style="mask-type:luminance" maskUnits="userSpaceOnUse" x="-3" y="0" width="27" height="20">
<rect x="-3" width="26.6667" height="20" fill="white"/>
</mask>
<g mask="url(#mask2_211_9216)">
<path d="M-5.96924 18.5715L-0.101164 21.0532L23.7999 2.69854L26.8951 -0.989363L20.6201 -1.81882L10.8714 6.09073L3.02475 11.4199L-5.96924 18.5715Z" fill="white"/>
<path d="M-5.16602 20.3103L-2.1765 21.7505L25.7835 -1.33196H21.5859L-5.16602 20.3103Z" fill="#F50100"/>
<path d="M26.6357 18.5715L20.7677 21.0532L-3.13337 2.69854L-6.22864 -0.989363L0.0464211 -1.81882L9.79508 6.09073L17.6418 11.4199L26.6357 18.5715Z" fill="white"/>
<path d="M26.4351 19.8193L23.4455 21.2595L11.5399 11.3767L8.0101 10.2725L-6.52693 -0.976786H-2.32931L12.1996 10.0055L16.0587 11.3296L26.4351 19.8193Z" fill="#F50100"/>
<mask id="path-11-inside-1_211_9216" fill="white">
<path fill-rule="evenodd" clip-rule="evenodd" d="M13.4815 -1.6665H7.18522V6.66683H-4.64355V13.3335H7.18522V21.6668H13.4815V13.3335H25.3564V6.66683H13.4815V-1.6665Z"/>
</mask>
<path fill-rule="evenodd" clip-rule="evenodd" d="M13.4815 -1.6665H7.18522V6.66683H-4.64355V13.3335H7.18522V21.6668H13.4815V13.3335H25.3564V6.66683H13.4815V-1.6665Z" fill="#F50100"/>
<path d="M7.18522 -1.6665V-2.9165H5.93522V-1.6665H7.18522ZM13.4815 -1.6665H14.7315V-2.9165H13.4815V-1.6665ZM7.18522 6.66683V7.91683H8.43522V6.66683H7.18522ZM-4.64355 6.66683V5.41683H-5.89355V6.66683H-4.64355ZM-4.64355 13.3335H-5.89355V14.5835H-4.64355V13.3335ZM7.18522 13.3335H8.43522V12.0835H7.18522V13.3335ZM7.18522 21.6668H5.93522V22.9168H7.18522V21.6668ZM13.4815 21.6668V22.9168H14.7315V21.6668H13.4815ZM13.4815 13.3335V12.0835H12.2315V13.3335H13.4815ZM25.3564 13.3335V14.5835H26.6064V13.3335H25.3564ZM25.3564 6.66683H26.6064V5.41683H25.3564V6.66683ZM13.4815 6.66683H12.2315V7.91683H13.4815V6.66683ZM7.18522 -0.416504H13.4815V-2.9165H7.18522V-0.416504ZM8.43522 6.66683V-1.6665H5.93522V6.66683H8.43522ZM-4.64355 7.91683H7.18522V5.41683H-4.64355V7.91683ZM-3.39355 13.3335V6.66683H-5.89355V13.3335H-3.39355ZM7.18522 12.0835H-4.64355V14.5835H7.18522V12.0835ZM8.43522 21.6668V13.3335H5.93522V21.6668H8.43522ZM13.4815 20.4168H7.18522V22.9168H13.4815V20.4168ZM12.2315 13.3335V21.6668H14.7315V13.3335H12.2315ZM25.3564 12.0835H13.4815V14.5835H25.3564V12.0835ZM24.1064 6.66683V13.3335H26.6064V6.66683H24.1064ZM13.4815 7.91683H25.3564V5.41683H13.4815V7.91683ZM12.2315 -1.6665V6.66683H14.7315V-1.6665H12.2315Z" fill="white" mask="url(#path-11-inside-1_211_9216)"/>
</g>
</g>
</g>
</g>
<defs>
<clipPath id="clip0_211_9216">
<rect width="20" height="20" rx="10" fill="white"/>
</clipPath>
</defs>
</svg>
