<svg width="20" height="20" viewBox="0 0 20 20" fill="none" xmlns="http://www.w3.org/2000/svg">
<g clip-path="url(#clip0_211_9306)">
<mask id="mask0_211_9306" style="mask-type:luminance" maskUnits="userSpaceOnUse" x="-3" y="0" width="27" height="20">
<rect x="-3" width="26.6667" height="20" fill="white"/>
</mask>
<g mask="url(#mask0_211_9306)">
<path fill-rule="evenodd" clip-rule="evenodd" d="M-3 0V20H23.6667V0H-3Z" fill="#FFB400"/>
<mask id="mask1_211_9306" style="mask-type:luminance" maskUnits="userSpaceOnUse" x="-3" y="0" width="27" height="20">
<path fill-rule="evenodd" clip-rule="evenodd" d="M-3 0V20H23.6667V0H-3Z" fill="white"/>
</mask>
<g mask="url(#mask1_211_9306)">
<path fill-rule="evenodd" clip-rule="evenodd" d="M-3 0V5H23.6667V0H-3Z" fill="#C51918"/>
<path fill-rule="evenodd" clip-rule="evenodd" d="M-3 15V20H23.6667V15H-3Z" fill="#C51918"/>
<rect x="4.82959" y="8.16309" width="0.933333" height="4.85333" fill="#F1F9FF"/>
<path fill-rule="evenodd" clip-rule="evenodd" d="M6.13557 7.323H4.45557V7.78966H4.73535V8.16312H5.85535V7.78966H6.13557V7.323Z" fill="#C88A02"/>
<path fill-rule="evenodd" clip-rule="evenodd" d="M5.85557 13.2962H6.13557V13.7629H4.45557V13.2962H4.73557V12.9229H5.85557V13.2962Z" fill="#C88A02"/>
<path fill-rule="evenodd" clip-rule="evenodd" d="M5.29591 7.41632C5.49902 7.41632 5.51967 7.33983 5.63949 7.22561C5.73254 7.13691 5.94924 7.0269 5.94924 6.90298C5.94924 6.61948 5.65674 6.38965 5.29591 6.38965C4.93509 6.38965 4.64258 6.61948 4.64258 6.90298C4.64258 7.04104 4.79181 7.13335 4.90465 7.22561C5.02353 7.32281 5.11079 7.41632 5.29591 7.41632Z" fill="#AD1619"/>
<path fill-rule="evenodd" clip-rule="evenodd" d="M4.45557 13.7629H6.13557V14.5096C6.13557 14.5096 5.92557 14.4163 5.71557 14.4163C5.50557 14.4163 5.29557 14.5096 5.29557 14.5096C5.29557 14.5096 5.08557 14.4163 4.87557 14.4163C4.66557 14.4163 4.45557 14.5096 4.45557 14.5096V13.7629Z" fill="#005BBF"/>
<mask id="mask2_211_9306" style="mask-type:luminance" maskUnits="userSpaceOnUse" x="4" y="13" width="3" height="2">
<path fill-rule="evenodd" clip-rule="evenodd" d="M4.45557 13.7629H6.13557V14.5096C6.13557 14.5096 5.92557 14.4163 5.71557 14.4163C5.50557 14.4163 5.29557 14.5096 5.29557 14.5096C5.29557 14.5096 5.08557 14.4163 4.87557 14.4163C4.66557 14.4163 4.45557 14.5096 4.45557 14.5096V13.7629Z" fill="white"/>
</mask>
<g mask="url(#mask2_211_9306)">
<path d="M4.43999 14.3629L4.40332 14.2735C4.55464 14.2062 4.70649 14.1724 4.85857 14.1724C4.95683 14.1724 5.00814 14.1861 5.09537 14.2249C5.17199 14.259 5.2117 14.2696 5.29549 14.2696C5.37929 14.2696 5.419 14.259 5.49562 14.2249C5.58284 14.1861 5.63415 14.1724 5.73241 14.1724C5.8845 14.1724 6.03635 14.2062 6.18766 14.2735L6.151 14.3629C6.01103 14.3006 5.87161 14.2696 5.73241 14.2696C5.64862 14.2696 5.6089 14.2802 5.53229 14.3143C5.44506 14.3531 5.39375 14.3668 5.29549 14.3668C5.19724 14.3668 5.14593 14.3531 5.0587 14.3143C4.98208 14.2802 4.94237 14.2696 4.85857 14.2696C4.71938 14.2696 4.57995 14.3006 4.43999 14.3629Z" fill="white"/>
<path d="M4.43999 14.0831L4.40332 13.9937C4.55464 13.9264 4.70649 13.8926 4.85857 13.8926C4.95683 13.8926 5.00814 13.9063 5.09537 13.9451C5.17199 13.9792 5.2117 13.9898 5.29549 13.9898C5.37929 13.9898 5.419 13.9792 5.49562 13.9451C5.58284 13.9063 5.63415 13.8926 5.73241 13.8926C5.8845 13.8926 6.03635 13.9264 6.18766 13.9937L6.151 14.0831C6.01103 14.0208 5.87161 13.9898 5.73241 13.9898C5.64862 13.9898 5.6089 14.0004 5.53229 14.0345C5.44506 14.0733 5.39375 14.087 5.29549 14.087C5.19724 14.087 5.14593 14.0733 5.0587 14.0345C4.98208 14.0004 4.94237 13.9898 4.85857 13.9898C4.71938 13.9898 4.57995 14.0208 4.43999 14.0831Z" fill="white"/>
</g>
<rect x="13.9761" y="8.16309" width="0.933333" height="4.85333" fill="#F1F9FF"/>
<path fill-rule="evenodd" clip-rule="evenodd" d="M15.283 7.323H13.603V7.78966H13.883V8.16312H15.003V7.78966H15.283V7.323Z" fill="#C88A02"/>
<path fill-rule="evenodd" clip-rule="evenodd" d="M15.003 13.2962H15.283V13.7629H13.603V13.2962H13.883V12.9229H15.003V13.2962Z" fill="#C88A02"/>
<path fill-rule="evenodd" clip-rule="evenodd" d="M14.4424 7.41632C14.6455 7.41632 14.6662 7.33983 14.786 7.22561C14.879 7.13691 15.0957 7.0269 15.0957 6.90298C15.0957 6.61948 14.8032 6.38965 14.4424 6.38965C14.0816 6.38965 13.7891 6.61948 13.7891 6.90298C13.7891 7.04104 13.9383 7.13335 14.0511 7.22561C14.17 7.32281 14.2573 7.41632 14.4424 7.41632Z" fill="#AD1619"/>
<path fill-rule="evenodd" clip-rule="evenodd" d="M13.603 13.7629H15.283V14.5096C15.283 14.5096 15.073 14.4163 14.863 14.4163C14.653 14.4163 14.443 14.5096 14.443 14.5096C14.443 14.5096 14.233 14.4163 14.023 14.4163C13.813 14.4163 13.603 14.5096 13.603 14.5096V13.7629Z" fill="#005BBF"/>
<mask id="mask3_211_9306" style="mask-type:luminance" maskUnits="userSpaceOnUse" x="13" y="13" width="3" height="2">
<path fill-rule="evenodd" clip-rule="evenodd" d="M13.603 13.7629H15.283V14.5096C15.283 14.5096 15.073 14.4163 14.863 14.4163C14.653 14.4163 14.443 14.5096 14.443 14.5096C14.443 14.5096 14.233 14.4163 14.023 14.4163C13.813 14.4163 13.603 14.5096 13.603 14.5096V13.7629Z" fill="white"/>
</mask>
<g mask="url(#mask3_211_9306)">
<path d="M13.5875 14.3629L13.5508 14.2735C13.7021 14.2062 13.854 14.1724 14.006 14.1724C14.1043 14.1724 14.1556 14.1861 14.2428 14.2249C14.3194 14.259 14.3592 14.2696 14.443 14.2696C14.5267 14.2696 14.5665 14.259 14.6431 14.2249C14.7303 14.1861 14.7816 14.1724 14.8799 14.1724C15.032 14.1724 15.1838 14.2062 15.3351 14.2735L15.2985 14.3629C15.1585 14.3006 15.0191 14.2696 14.8799 14.2696C14.7961 14.2696 14.7564 14.2802 14.6797 14.3143C14.5925 14.3531 14.5412 14.3668 14.443 14.3668C14.3447 14.3668 14.2934 14.3531 14.2062 14.3143C14.1295 14.2802 14.0898 14.2696 14.006 14.2696C13.8668 14.2696 13.7274 14.3006 13.5875 14.3629Z" fill="white"/>
<path d="M13.5875 14.0831L13.5508 13.9937C13.7021 13.9264 13.854 13.8926 14.006 13.8926C14.1043 13.8926 14.1556 13.9063 14.2428 13.9451C14.3194 13.9792 14.3592 13.9898 14.443 13.9898C14.5267 13.9898 14.5665 13.9792 14.6431 13.9451C14.7303 13.9063 14.7816 13.8926 14.8799 13.8926C15.032 13.8926 15.1838 13.9264 15.3351 13.9937L15.2985 14.0831C15.1585 14.0208 15.0191 13.9898 14.8799 13.9898C14.7961 13.9898 14.7564 14.0004 14.6797 14.0345C14.5925 14.0733 14.5412 14.087 14.443 14.087C14.3447 14.087 14.2934 14.0733 14.2062 14.0345C14.1295 14.0004 14.0898 13.9898 14.006 13.9898C13.8668 13.9898 13.7274 14.0208 13.5875 14.0831Z" fill="white"/>
</g>
<path fill-rule="evenodd" clip-rule="evenodd" d="M14.5776 12.0827C14.5776 12.2798 14.6717 12.4654 14.84 12.6694L15.4131 12.1967L15.4678 12.1799L15.4983 11.9411C15.5546 11.4999 15.3661 11.2554 14.9775 11.0788L14.9507 11.067L14.9507 11.067C14.8974 11.0436 14.7813 10.9926 14.742 10.9737C14.66 10.9344 14.5923 10.8954 14.5292 10.8495C14.467 10.8042 14.4002 10.7615 14.3196 10.7148C14.8004 10.6375 15.0603 10.5805 15.2596 10.4947C15.7367 10.2891 15.7982 9.81182 15.3397 9.49607C14.7146 9.06557 13.0412 9.02685 12.3067 9.40606L12.6493 10.0695C13.0097 9.88343 13.829 9.84834 14.4028 9.94382C14.3156 9.95906 14.2177 9.97513 14.108 9.99235C14.0564 10.0005 13.9058 10.0237 13.8275 10.0358L13.7802 10.0432C13.5511 10.0788 13.3947 10.1241 13.2788 10.2029C13.0423 10.364 13.0073 10.6541 13.1761 10.8681C13.2473 10.9584 13.3405 11.026 13.4815 11.1078C13.5267 11.134 13.5754 11.1608 13.6408 11.1957L13.6748 11.2137L13.6749 11.2138C13.7151 11.2351 13.7781 11.2686 13.8014 11.281C13.9359 11.3533 14.0242 11.4055 14.0901 11.4534C14.1932 11.5284 14.2991 11.5894 14.4192 11.647C14.4838 11.678 14.6694 11.7589 14.6684 11.7585L14.6794 11.7634C14.6146 11.8511 14.5776 11.9584 14.5776 12.0827ZM4.81255 12.6695C4.98082 12.4655 5.07492 12.2799 5.07492 12.0828C5.07492 11.9585 5.03794 11.8512 4.97313 11.7635L4.98408 11.7585C4.98308 11.759 5.16868 11.6781 5.2333 11.6471C5.35343 11.5895 5.45926 11.5285 5.56245 11.4535C5.62832 11.4055 5.71659 11.3534 5.85114 11.2811C5.87439 11.2686 5.93737 11.2352 5.97757 11.2139L6.01172 11.1957C6.07711 11.1608 6.12581 11.1341 6.17105 11.1079C6.31203 11.0261 6.40519 10.9585 6.47644 10.8682C6.64521 10.6541 6.61017 10.364 6.37367 10.203C6.25781 10.1241 6.10145 10.0789 5.87226 10.0432L5.82478 10.0359L5.82471 10.0359L5.82451 10.0359C5.74612 10.0237 5.59605 10.0005 5.54446 9.99243C5.43479 9.97521 5.33693 9.95914 5.24967 9.9439C5.82347 9.84842 6.64284 9.88351 7.00325 10.0696L7.3458 9.40614C6.61135 9.02693 4.93791 9.06566 4.3128 9.49615C3.8543 9.81191 3.91582 10.2892 4.39287 10.4947C4.5922 10.5806 4.85206 10.6376 5.33293 10.7149C5.25235 10.7616 5.18554 10.8043 5.12329 10.8496C5.06016 10.8955 4.99252 10.9345 4.91048 10.9738C4.87124 10.9926 4.75506 11.0437 4.7018 11.067L4.7018 11.067L4.67502 11.0788C4.28645 11.2555 4.09787 11.4999 4.15422 11.9412L4.18473 12.18L4.23944 12.1968L4.81255 12.6695ZM4.33208 12.0521L4.33089 12.0555L4.3318 12.0531L4.33208 12.0521Z" fill="#AD1619"/>
<path d="M5.59239 9.93628L5.86787 9.99327V10.4039C5.57446 10.638 4.82959 11.0326 4.82959 11.0326V9.93628H5.59239Z" fill="#F1F9FF"/>
<path d="M14.2514 9.93628L13.9759 9.99327V10.4039C14.2693 10.638 15.0142 11.0326 15.0142 11.0326V9.93628H14.2514Z" fill="#F1F9FF"/>
<path fill-rule="evenodd" clip-rule="evenodd" d="M12.9694 5.6076V5.47095C12.4893 5.12641 11.9866 4.95414 11.4612 4.95414C10.9575 4.73127 10.4478 4.64474 9.93187 4.69456C9.932 4.69302 9.93207 4.69223 9.93207 4.69223C9.15626 4.61632 8.3744 4.9542 8.3744 4.9542C7.58631 4.9542 6.86621 5.471 6.86621 5.471V5.60766L7.80757 6.5531C7.80757 6.5531 8.07252 7.46303 9.92806 7.24924V7.25147C9.92806 7.25147 11.1567 7.21794 11.243 7.18923C11.2773 7.17783 11.3128 7.16746 11.3491 7.15686C11.5897 7.08661 11.8645 7.0064 12.028 6.55304L12.9694 5.6076ZM9.92806 4.73856C9.90078 5.05952 9.74898 6.94803 9.92806 7.24252V4.73856Z" fill="#AD1619"/>
<path fill-rule="evenodd" clip-rule="evenodd" d="M7.58382 6.39439L7.58445 6.39149L6.92236 5.76858L6.98632 5.7006L7.60758 6.28511L7.62348 6.21198C7.72515 6.23409 7.79946 6.24221 7.84277 6.23761V6.11078L7.98052 6.18533C8.04828 6.222 8.14532 6.23186 8.27312 6.21106C8.36699 6.19579 8.43033 6.08677 8.45104 5.85447L8.49285 5.3855L8.6331 5.83495C8.69657 6.03834 8.79338 6.12799 8.93122 6.12799C9.06584 6.12799 9.11995 6.07864 9.12592 5.95424L9.14286 5.60142L9.30242 5.91656C9.3599 6.03008 9.43917 6.08159 9.55188 6.08159C9.71309 6.08159 9.82078 5.9472 9.82078 5.73633H9.82426H10.0074H10.0109C10.0109 5.9472 10.1186 6.08159 10.2798 6.08159C10.3925 6.08159 10.4718 6.03008 10.5293 5.91656L10.6888 5.60142L10.7058 5.95424C10.7118 6.07864 10.7659 6.12799 10.9005 6.12799C11.0383 6.12799 11.1351 6.03834 11.1986 5.83495L11.3389 5.3855L11.3807 5.85447C11.4014 6.08677 11.4647 6.19579 11.5586 6.21106C11.6864 6.23186 11.7834 6.222 11.8512 6.18533L11.9889 6.11078V6.23761C12.0322 6.24221 12.1066 6.23409 12.2082 6.21198L12.2377 6.34765L12.9255 5.7006L12.9894 5.76858L12.1333 6.57401C12.0084 6.80403 11.9455 6.95586 11.9455 7.01892C11.9455 7.11514 11.6952 7.17225 11.2067 7.23091C10.8239 7.27686 10.3722 7.30771 10.0027 7.31232V7.31292L9.95589 7.31276L9.90908 7.31292V7.31232C9.53959 7.30771 9.08788 7.27686 8.70512 7.23091C8.21657 7.17225 7.96625 7.11514 7.96625 7.01892C7.96625 7.00696 7.96399 6.99181 7.95947 6.97354C7.91016 6.91082 7.8755 6.80812 7.85244 6.7155C7.83084 6.67226 7.80617 6.62506 7.77845 6.57401L7.58864 6.39543L7.58382 6.39439ZM12.1721 6.40943C12.0192 6.43647 11.9089 6.43373 11.8503 6.38605C11.7587 6.41271 11.6513 6.41527 11.5286 6.39531C11.3976 6.37398 11.3063 6.28683 11.2514 6.14224C11.1798 6.23352 11.0892 6.28988 10.9807 6.30814C11.5777 6.39284 11.9959 6.51184 11.9959 6.51184C11.9959 6.51184 11.9856 6.60066 11.9604 6.70494C11.987 6.65039 12.0185 6.58976 12.0549 6.52283L12.0639 6.51116L12.1721 6.40943ZM10.6985 6.27261C10.6467 6.2468 10.6052 6.20941 10.5753 6.16122C10.5308 6.20051 10.4802 6.22925 10.424 6.247C10.5178 6.25417 10.6095 6.26285 10.6985 6.27261ZM10.0942 6.22881C10.0214 6.19515 9.96098 6.14126 9.91585 6.07222C9.87105 6.14077 9.81113 6.19438 9.73908 6.22808C9.78174 6.22681 9.82464 6.22592 9.86774 6.22544V6.22502L9.90511 6.22512L9.94248 6.22502V6.22544C9.99335 6.22601 10.0439 6.22715 10.0942 6.22881ZM7.84084 6.50456L7.75389 6.42276C7.85834 6.43311 7.93564 6.42328 7.98136 6.38605C8.07297 6.41271 8.18042 6.41527 8.3031 6.39531C8.43413 6.37398 8.52538 6.28683 8.58029 6.14224C8.64984 6.23085 8.73723 6.28656 8.84153 6.30644C8.32655 6.37881 7.9424 6.47725 7.84084 6.50456ZM9.40358 6.24568C9.3133 6.2524 9.22491 6.26051 9.13896 6.26966C9.18813 6.24399 9.22759 6.2076 9.25642 6.16122C9.29983 6.19955 9.34903 6.22785 9.40358 6.24568ZM11.7001 7.02052C11.7656 7.05115 11.818 7.02052 11.8595 6.9618C11.8559 6.97815 11.8536 6.99293 11.8527 7.00615C11.8472 7.00973 11.8388 7.01405 11.8278 7.01868C11.797 7.0316 11.7501 7.04537 11.689 7.05931C11.569 7.0867 11.3981 7.11392 11.1955 7.13824C10.8 7.18573 10.3298 7.21697 9.95589 7.21943C9.58203 7.21697 9.11174 7.18573 8.71625 7.13824C8.51372 7.11392 8.34283 7.0867 8.22278 7.05931C8.17137 7.04758 8.12997 7.03597 8.09981 7.02488C8.10321 7.02359 8.10665 7.02214 8.11012 7.02052C8.31403 6.9251 9.66248 6.83557 9.90511 6.82013C10.1477 6.83557 11.4962 6.9251 11.7001 7.02052ZM11.9575 7.00366L11.9563 7.00504L11.957 7.00411L11.9575 7.00366Z" fill="#C88A02"/>
<path fill-rule="evenodd" clip-rule="evenodd" d="M9.91623 4.05878C10.0709 4.05878 10.1962 3.93342 10.1962 3.77878C10.1962 3.62414 10.0709 3.49878 9.91623 3.49878C9.76159 3.49878 9.63623 3.62414 9.63623 3.77878C9.63623 3.93342 9.76159 4.05878 9.91623 4.05878Z" fill="#005BBF"/>
<path fill-rule="evenodd" clip-rule="evenodd" d="M9.73397 5.4336C9.73994 5.4643 9.74925 5.49289 9.76103 5.51836C9.72484 5.50453 9.68188 5.49651 9.63579 5.49651C9.50692 5.49651 9.40246 5.55919 9.40246 5.63651C9.40246 5.71383 9.50692 5.77651 9.63579 5.77651C9.76465 5.77651 9.86912 5.71383 9.86912 5.63651L9.86902 5.63231L9.86935 5.63242L9.86925 5.63651C9.86925 5.71383 9.97372 5.77651 10.1026 5.77651C10.2315 5.77651 10.3359 5.71383 10.3359 5.63651C10.3359 5.55919 10.2315 5.49651 10.1026 5.49651C10.0702 5.49651 10.0393 5.50048 10.0112 5.50765C10.018 5.46941 10.0176 5.42556 10.0088 5.38018C9.98424 5.25368 9.90278 5.16309 9.82688 5.17784C9.75098 5.1926 9.70938 5.3071 9.73397 5.4336ZM8.36068 5.61156C8.34889 5.58606 8.33955 5.55744 8.33358 5.5267C8.30899 5.4002 8.35059 5.2857 8.42649 5.27094C8.50238 5.25619 8.58385 5.34678 8.60844 5.47328C8.61728 5.5188 8.61756 5.56277 8.61075 5.60109C8.63883 5.59391 8.66974 5.58993 8.70219 5.58993C8.83106 5.58993 8.93553 5.65261 8.93553 5.72993C8.93553 5.80725 8.83106 5.86993 8.70219 5.86993C8.57706 5.86993 8.47493 5.81083 8.46912 5.73661C8.46332 5.81083 8.36119 5.86993 8.23605 5.86993C8.10718 5.86993 8.00272 5.80725 8.00272 5.72993C8.00272 5.65261 8.10718 5.58993 8.23605 5.58993C8.28188 5.58993 8.32462 5.59786 8.36068 5.61156ZM11.2839 5.69716C11.2731 5.77373 11.161 5.82126 11.0334 5.80333C10.9057 5.78539 10.811 5.70878 10.8218 5.63222C10.8325 5.55565 10.9447 5.50812 11.0723 5.52605C11.1178 5.53245 11.1592 5.54631 11.193 5.56497C11.1849 5.5381 11.1797 5.50849 11.178 5.47725C11.1713 5.34856 11.2284 5.24095 11.3056 5.23691C11.3828 5.23286 11.4509 5.3339 11.4576 5.46259C11.4601 5.50878 11.4543 5.55224 11.4422 5.58918C11.4711 5.58595 11.5023 5.5863 11.5346 5.59083C11.6622 5.60877 11.7569 5.68537 11.7461 5.76194C11.7354 5.83851 11.6232 5.88604 11.4956 5.86811C11.368 5.85017 11.2733 5.77356 11.284 5.69699L11.2847 5.69309L11.2844 5.69296L11.2839 5.69716ZM12.173 6.06714C12.2868 6.12764 12.4084 6.12134 12.4447 6.05307L12.4467 6.04923C12.4579 6.0611 12.4712 6.06975 12.4863 6.07438C12.5602 6.09698 12.6507 6.01541 12.6884 5.89217C12.7261 5.76894 12.6967 5.65071 12.6227 5.6281C12.5488 5.6055 12.4583 5.68707 12.4206 5.81031C12.4115 5.84026 12.4063 5.86992 12.4047 5.89798C12.3793 5.86878 12.3451 5.84155 12.3044 5.81992C12.1907 5.75942 12.069 5.76572 12.0327 5.83399C11.9964 5.90226 12.0592 6.00664 12.173 6.06714ZM7.59286 6.09579C7.47908 6.15629 7.35741 6.14999 7.32111 6.08172C7.32044 6.08045 7.3198 6.07917 7.31919 6.07787C7.30797 6.08975 7.2947 6.09839 7.27955 6.10302C7.20561 6.12563 7.11512 6.04405 7.07745 5.92082C7.03977 5.79758 7.06917 5.67935 7.14311 5.65675C7.21705 5.63414 7.30753 5.71572 7.34521 5.83895C7.35437 5.86891 7.35956 5.89856 7.36112 5.92662C7.38657 5.89743 7.42073 5.87019 7.46141 5.84856C7.57519 5.78807 7.69686 5.79436 7.73316 5.86263C7.76945 5.9309 7.70664 6.03529 7.59286 6.09579Z" fill="#C88A02"/>
<path fill-rule="evenodd" clip-rule="evenodd" d="M9.81152 3H10.006V3.12272H10.1331V3.31717H10.006V3.70605H10.1331V3.9005H9.68262V3.70605H9.81152V3.31717H9.68262V3.12272H9.81152V3Z" fill="#C88A02"/>
<rect x="9.77588" y="4.0564" width="0.373333" height="1.21333" fill="#C88A02"/>
<path d="M8.27307 4.25925L8.27144 4.35256C7.44386 4.33812 6.96915 4.45889 6.84864 4.6996C6.72406 4.94845 6.74723 5.25097 6.92179 5.61033L6.83784 5.65111C6.65159 5.26769 6.62615 4.93554 6.76518 4.65782C6.90829 4.37195 7.41048 4.24419 8.27307 4.25925Z" fill="white"/>
<path d="M8.43302 5.08674L8.38517 5.16688C8.20495 5.05927 8.11475 4.87562 8.11475 4.62254C8.11475 4.2588 8.30212 4.04551 8.71658 3.89954C8.98109 3.80638 9.34244 3.84458 9.80162 4.01106L9.7698 4.09881C9.329 3.93899 8.98792 3.90293 8.74758 3.98758C8.36743 4.12146 8.20808 4.30285 8.20808 4.62254C8.20808 4.84463 8.283 4.99717 8.43302 5.08674Z" fill="white"/>
<path d="M7.03959 5.46731L6.86347 5.52916C6.68074 5.00887 6.73292 4.65553 7.04517 4.50311C7.32031 4.3688 7.72129 4.31414 8.25012 4.33557L8.24256 4.52209C7.74187 4.50179 7.36937 4.55257 7.12705 4.67085C6.92185 4.77102 6.88431 5.02518 7.03959 5.46731Z" fill="#C88A02"/>
<path d="M9.09719 4.13491C8.6704 4.13491 8.49514 4.23885 8.39501 4.54576C8.33121 4.74134 8.39309 4.90827 8.59375 5.06409L8.47926 5.21153C8.21948 5.00979 8.12788 4.76272 8.21755 4.48786C8.34515 4.09674 8.59554 3.94824 9.09719 3.94824C9.42598 3.94824 9.68211 4.03462 9.86045 4.21042L9.88826 4.23784V5.13781H9.70159V4.31762C9.56231 4.19664 9.36224 4.13491 9.09719 4.13491Z" fill="#C88A02"/>
<path d="M11.5302 4.35226L11.5318 4.44558C12.3594 4.43113 12.8341 4.55191 12.9546 4.79261C13.0792 5.04147 13.056 5.34399 12.8814 5.70334L12.9654 5.74413C13.1516 5.36071 13.1771 5.02855 13.038 4.75083C12.8949 4.46497 12.3927 4.3372 11.5302 4.35226Z" fill="white"/>
<path d="M11.2379 5.10628L11.2857 5.18641C11.466 5.0788 11.5562 4.89515 11.5562 4.64207C11.5562 4.27834 11.3688 4.06504 10.9543 3.91907C10.6898 3.82592 10.3285 3.86411 9.86928 4.03059L9.90109 4.11834C10.3419 3.95852 10.683 3.92246 10.9233 4.00711C11.3035 4.14099 11.4628 4.32239 11.4628 4.64207C11.4628 4.86416 11.3879 5.0167 11.2379 5.10628Z" fill="white"/>
<path d="M12.8217 5.56032L12.9979 5.62218C13.1806 5.10189 13.1284 4.74855 12.8162 4.59612C12.541 4.46182 12.14 4.40716 11.6112 4.42859L11.6188 4.6151C12.1195 4.59481 12.492 4.64559 12.7343 4.76387C12.9395 4.86404 12.977 5.1182 12.8217 5.56032Z" fill="#C88A02"/>
<path d="M10.7539 4.14907C11.1807 4.14907 11.3559 4.25301 11.4561 4.55992C11.5199 4.7555 11.458 4.92243 11.2573 5.07825L11.3718 5.22569C11.6316 5.02395 11.7232 4.77688 11.6335 4.50202C11.5059 4.1109 11.2555 3.9624 10.7539 3.9624C10.4251 3.9624 10.169 4.04878 9.99063 4.22458L9.96281 4.252V5.15197H10.1495V4.33178C10.2888 4.2108 10.4888 4.14907 10.7539 4.14907Z" fill="#C88A02"/>
<path opacity="0.3" fill-rule="evenodd" clip-rule="evenodd" d="M6.88281 7.323H12.9495V12.7737C12.9495 12.7737 12.4988 14.603 9.91615 14.603C7.33346 14.603 6.88281 12.7255 6.88281 12.7255V7.323Z" fill="#E1E5E8"/>
<mask id="mask4_211_9306" style="mask-type:luminance" maskUnits="userSpaceOnUse" x="6" y="7" width="7" height="8">
<path fill-rule="evenodd" clip-rule="evenodd" d="M6.88281 7.323H12.9495V12.7737C12.9495 12.7737 12.4988 14.603 9.91615 14.603C7.33346 14.603 6.88281 12.7255 6.88281 12.7255V7.323Z" fill="white"/>
</mask>
<g mask="url(#mask4_211_9306)">
<rect x="6.88281" y="10.6831" width="3.08" height="3.64" fill="#FFC034"/>
<rect x="7.25586" y="10.8696" width="0.373333" height="3.45333" fill="#AD1619"/>
<rect x="8.5625" y="10.8696" width="0.373333" height="3.45333" fill="#AD1619"/>
<rect x="7.90967" y="10.8696" width="0.373333" height="3.45333" fill="#AD1619"/>
<rect x="9.21631" y="10.8696" width="0.373333" height="3.45333" fill="#AD1619"/>
<rect x="6.88281" y="7.22974" width="3.08" height="3.54667" fill="#AD1619"/>
<rect x="9.87012" y="10.5896" width="3.08" height="3.54667" fill="#AD1619"/>
<rect x="9.87012" y="7.323" width="3.26667" height="3.45333" fill="#F1F9FF"/>
<path fill-rule="evenodd" clip-rule="evenodd" d="M8.19027 7.60303H8.47027V8.37744H8.65641V7.99007H8.93641V8.37744H9.21662V8.86139H8.93657V9.73226H9.21662V10.2162H7.53662V9.73226H7.81657V8.86139H7.53662V8.37744H7.72347V7.99007H8.00347V8.37744H8.19027V7.60303Z" fill="#C88A02"/>
<path d="M11.4722 7.76565L11.6633 7.56104L12.0646 7.93589L11.8734 8.1405L11.4722 7.76565Z" fill="#C88A02"/>
<path fill-rule="evenodd" clip-rule="evenodd" d="M12.6234 13.0529V11.0095H10.29V13.0358L10.2937 13.0516C10.4119 13.5549 10.8141 13.8095 11.4567 13.8095C12.0987 13.8095 12.5009 13.5615 12.6195 13.0691L12.6234 13.0529ZM11.4565 13.5296C10.9409 13.5296 10.6593 13.3559 10.5698 13.0028V11.2896H12.3432V13.019C12.2539 13.3606 11.9723 13.5296 11.4565 13.5296Z" fill="#FFC034"/>
<path fill-rule="evenodd" clip-rule="evenodd" d="M11.5527 11.1804H11.3582V12.1066L10.592 11.2732L10.4546 11.3995L11.1477 12.1534H10.5197V12.4334H11.0022H11.1632L10.4546 13.204L10.5921 13.3304L11.3582 12.4971V13.5795H11.5527V12.5938L12.2299 13.3304L12.3673 13.204L11.6587 12.4334H12.4496V12.1534H11.6742L12.3674 11.3995L12.2299 11.2732L11.5527 12.0098V11.1804Z" fill="#FFC034"/>
<path fill-rule="evenodd" clip-rule="evenodd" d="M11.8919 14.1386C11.8919 14.1386 9.91505 14.294 9.91505 13.019C9.91505 13.019 9.8962 14.1386 7.83203 14.1386V15.1451H11.8919V14.1386Z" fill="#F1F9FF"/>
<path fill-rule="evenodd" clip-rule="evenodd" d="M9.91631 11.4296C10.3029 11.4296 10.6163 11.0953 10.6163 10.6829C10.6163 10.2706 10.3029 9.93628 9.91631 9.93628C9.52971 9.93628 9.21631 10.2706 9.21631 10.6829C9.21631 11.0953 9.52971 11.4296 9.91631 11.4296Z" fill="#005BBF" stroke="#AD1619" stroke-width="0.729167"/>
</g>
</g>
</g>
</g>
<defs>
<clipPath id="clip0_211_9306">
<rect width="20" height="20" rx="10" fill="white"/>
</clipPath>
</defs>
</svg>
