<svg width="20" height="21" viewBox="0 0 20 21" fill="none" xmlns="http://www.w3.org/2000/svg">
<path d="M16.7676 15.4141C16.3992 14.5414 15.8645 13.7486 15.1934 13.0801C14.5243 12.4096 13.7317 11.875 12.8594 11.5059C12.8516 11.502 12.8438 11.5 12.836 11.4961C14.0528 10.6172 14.8438 9.18555 14.8438 7.57031C14.8438 4.89453 12.6758 2.72656 10 2.72656C7.32427 2.72656 5.1563 4.89453 5.1563 7.57031C5.1563 9.18555 5.94731 10.6172 7.16411 11.498C7.1563 11.502 7.14849 11.5039 7.14067 11.5078C6.26567 11.877 5.48052 12.4062 4.80669 13.082C4.1362 13.7511 3.60162 14.5437 3.23247 15.416C2.86982 16.27 2.67423 17.1856 2.6563 18.1133C2.65578 18.1341 2.65943 18.1549 2.66705 18.1743C2.67467 18.1937 2.6861 18.2114 2.70066 18.2263C2.71522 18.2412 2.73262 18.2531 2.75184 18.2612C2.77105 18.2693 2.7917 18.2734 2.81255 18.2734H3.98442C4.07036 18.2734 4.13872 18.2051 4.14067 18.1211C4.17974 16.6133 4.7852 15.2012 5.85552 14.1309C6.96294 13.0234 8.43364 12.4141 10 12.4141C11.5665 12.4141 13.0372 13.0234 14.1446 14.1309C15.2149 15.2012 15.8204 16.6133 15.8594 18.1211C15.8614 18.207 15.9297 18.2734 16.0157 18.2734H17.1875C17.2084 18.2734 17.229 18.2693 17.2483 18.2612C17.2675 18.2531 17.2849 18.2412 17.2994 18.2263C17.314 18.2114 17.3254 18.1937 17.333 18.1743C17.3407 18.1549 17.3443 18.1341 17.3438 18.1133C17.3243 17.1797 17.1309 16.2715 16.7676 15.4141ZM10 10.9297C9.10356 10.9297 8.25981 10.5801 7.62505 9.94531C6.99028 9.31055 6.64067 8.4668 6.64067 7.57031C6.64067 6.67383 6.99028 5.83008 7.62505 5.19531C8.25981 4.56055 9.10356 4.21094 10 4.21094C10.8965 4.21094 11.7403 4.56055 12.375 5.19531C13.0098 5.83008 13.3594 6.67383 13.3594 7.57031C13.3594 8.4668 13.0098 9.31055 12.375 9.94531C11.7403 10.5801 10.8965 10.9297 10 10.9297Z" fill="#DEDC7C"/>
</svg>
