<svg width="40" height="40" viewBox="0 0 40 40" fill="none" xmlns="http://www.w3.org/2000/svg">
<path d="M11.6665 18.3333H14.9998V21.6666H11.6665V18.3333ZM11.6665 24.9999H14.9998V28.3333H11.6665V24.9999ZM18.3332 18.3333H21.6665V21.6666H18.3332V18.3333ZM18.3332 24.9999H21.6665V28.3333H18.3332V24.9999ZM24.9998 18.3333H28.3332V21.6666H24.9998V18.3333ZM24.9998 24.9999H28.3332V28.3333H24.9998V24.9999Z" fill="url(#paint0_linear_18_528)"/>
<path d="M8.33333 36.6666H31.6667C33.505 36.6666 35 35.1716 35 33.3333V9.99992C35 8.16159 33.505 6.66659 31.6667 6.66659H28.3333V3.33325H25V6.66659H15V3.33325H11.6667V6.66659H8.33333C6.495 6.66659 5 8.16159 5 9.99992V33.3333C5 35.1716 6.495 36.6666 8.33333 36.6666ZM31.6667 13.3333L31.6683 33.3333H8.33333V13.3333H31.6667Z" fill="url(#paint1_linear_18_528)"/>
<defs>
<linearGradient id="paint0_linear_18_528" x1="11.6665" y1="28.3333" x2="29.265" y2="26.2659" gradientUnits="userSpaceOnUse">
<stop stop-color="#DEDC7C"/>
<stop offset="1" stop-color="#F7F7D3"/>
</linearGradient>
<linearGradient id="paint1_linear_18_528" x1="5" y1="36.6666" x2="36.9858" y2="34.6376" gradientUnits="userSpaceOnUse">
<stop stop-color="#DEDC7C"/>
<stop offset="1" stop-color="#F7F7D3"/>
</linearGradient>
</defs>
</svg>
