<svg width="60" height="60" viewBox="0 0 60 60" fill="none" xmlns="http://www.w3.org/2000/svg">
<path d="M30 0C13.4585 0 0 13.4573 0 30C0 46.5427 13.4585 60 30 60C46.5415 60 60 46.5427 60 30C60 13.4573 46.5415 0 30 0ZM30 57.6923C14.7312 57.6923 2.30769 45.2688 2.30769 30C2.30769 14.7312 14.7312 2.30769 30 2.30769C45.2688 2.30769 57.6923 14.7312 57.6923 30C57.6923 45.2688 45.2688 57.6923 30 57.6923Z" fill="#6FCF97"/>
<path d="M44.1369 17.6954L26.4035 37.6454L15.72 29.0988C15.2238 28.7008 14.4958 28.7827 14.0988 29.2788C13.7008 29.7773 13.7815 30.5031 14.2788 30.9012L25.8173 40.1319C26.0296 40.3015 26.2846 40.3846 26.5385 40.3846C26.8569 40.3846 27.1742 40.2531 27.4015 39.9969L45.8631 19.2277C46.2865 18.7523 46.2438 18.0219 45.7673 17.5996C45.2896 17.175 44.5615 17.2177 44.1369 17.6954Z" fill="#6FCF97"/>
</svg>
