<svg width="16" height="16" viewBox="0 0 16 16" fill="none" xmlns="http://www.w3.org/2000/svg">
<g clip-path="url(#clip0)">
<path d="M8.88368 8.00078L15.8167 1.06772C16.0608 0.823629 16.0608 0.42788 15.8167 0.183818C15.5726 -0.0602444 15.1769 -0.0602757 14.9328 0.183818L7.99975 7.11687L1.06673 0.183818C0.822637 -0.0602757 0.426888 -0.0602757 0.182826 0.183818C-0.0612362 0.427911 -0.0612675 0.823661 0.182826 1.06772L7.11584 8.00074L0.182826 14.9338C-0.0612675 15.1779 -0.0612675 15.5736 0.182826 15.8177C0.304857 15.9397 0.464825 16.0007 0.624794 16.0007C0.784762 16.0007 0.944699 15.9397 1.06676 15.8177L7.99975 8.88468L14.9328 15.8177C15.0548 15.9397 15.2148 16.0007 15.3747 16.0007C15.5347 16.0007 15.6946 15.9397 15.8167 15.8177C16.0608 15.5736 16.0608 15.1779 15.8167 14.9338L8.88368 8.00078Z" fill="#7C8A98"/>
</g>
<defs>
<clipPath id="clip0">
<rect width="16" height="16" fill="white"/>
</clipPath>
</defs>
</svg>
