<svg width="40" height="40" viewBox="0 0 40 40" fill="none" xmlns="http://www.w3.org/2000/svg">
<path d="M26.6652 14.1666H29.9985C29.9985 9.43825 25.4069 7.28159 21.6652 6.78492V3.33325H18.3319V6.78492C14.5902 7.28159 9.99854 9.43825 9.99854 14.1666C9.99854 18.6766 14.4419 21.0216 18.3319 21.5499V29.8333C15.9185 29.4149 13.3319 28.1266 13.3319 25.8333H9.99854C9.99854 30.1483 14.0402 32.6983 18.3319 33.2266V36.6666H21.6652V33.2166C25.4069 32.7199 29.9985 30.5616 29.9985 25.8333C29.9985 21.1049 25.4069 18.9483 21.6652 18.4516V10.1666C23.8819 10.5649 26.6652 11.7349 26.6652 14.1666ZM13.3319 14.1666C13.3319 11.7349 16.1152 10.5649 18.3319 10.1666V18.1649C16.0469 17.7433 13.3319 16.4949 13.3319 14.1666ZM26.6652 25.8333C26.6652 28.2649 23.8819 29.4349 21.6652 29.8333V21.8333C23.8819 22.2316 26.6652 23.4016 26.6652 25.8333Z" fill="url(#paint0_linear_18_516)"/>
<defs>
<linearGradient id="paint0_linear_18_516" x1="9.99854" y1="36.6666" x2="31.37" y2="35.7628" gradientUnits="userSpaceOnUse">
<stop stop-color="#DEDC7C"/>
<stop offset="1" stop-color="#F7F7D3"/>
</linearGradient>
</defs>
</svg>
