<svg width="20" height="20" viewBox="0 0 20 20" fill="none" xmlns="http://www.w3.org/2000/svg">
<path d="M7.71168 16L2.12871 9.942C2.04102 9.83078 1.9952 9.68771 2.0004 9.54139C2.0056 9.39507 2.06145 9.25627 2.15678 9.15273C2.25211 9.04919 2.3799 8.98853 2.51462 8.98288C2.64934 8.97723 2.78106 9.027 2.88346 9.12225L7.70097 14.3547L17.1165 4.1398C17.2189 4.04455 17.3507 3.99478 17.4854 4.00043C17.6201 4.00609 17.7479 4.06674 17.8432 4.17028C17.9385 4.27382 17.9944 4.41262 17.9996 4.55894C18.0048 4.70526 17.959 4.84833 17.8713 4.95955L7.71168 16Z" fill="#4C948F"/>
</svg>
