<svg width="60" height="60" viewBox="0 0 60 60" fill="none" xmlns="http://www.w3.org/2000/svg">
<path d="M30 0C13.4585 0 0 13.4573 0 30C0 46.5427 13.4585 60 30 60C46.5415 60 60 46.5427 60 30C60 13.4573 46.5415 0 30 0ZM30 57.6923C14.7312 57.6923 2.30769 45.2688 2.30769 30C2.30769 14.7312 14.7312 2.30769 30 2.30769C45.2688 2.30769 57.6923 14.7312 57.6923 30C57.6923 45.2688 45.2688 57.6923 30 57.6923Z" fill="#FC7C5F"/>
<path d="M41.2004 18.7996C40.7492 18.3485 40.02 18.3485 39.5688 18.7996L30 28.3685L20.4311 18.7996C19.98 18.3485 19.2508 18.3485 18.7996 18.7996C18.3485 19.2508 18.3485 19.98 18.7996 20.4311L28.3685 30L18.7996 39.5688C18.3485 40.02 18.3485 40.7492 18.7996 41.2004C19.0246 41.4254 19.32 41.5385 19.6154 41.5385C19.9108 41.5385 20.2061 41.4254 20.4311 41.2004L30 31.6315L39.5688 41.2004C39.7938 41.4254 40.0892 41.5385 40.3846 41.5385C40.68 41.5385 40.9754 41.4254 41.2004 41.2004C41.6515 40.7492 41.6515 40.02 41.2004 39.5688L31.6315 30L41.2004 20.4311C41.6515 19.98 41.6515 19.2508 41.2004 18.7996Z" fill="#FC7C5F"/>
</svg>
