<svg width="198" height="40" viewBox="0 0 198 40" fill="none" xmlns="http://www.w3.org/2000/svg">
<g clip-path="url(#clip0_240_8373)">
<g clip-path="url(#clip1_240_8373)">
<circle cx="20" cy="20" r="19.0476" stroke="url(#paint0_linear_240_8373)" stroke-width="1.90476"/>
<circle cx="20" cy="20" r="16.5" fill="url(#paint1_linear_240_8373)"/>
<g clip-path="url(#clip2_240_8373)">
<mask id="mask0_240_8373" style="mask-type:alpha" maskUnits="userSpaceOnUse" x="3" y="3" width="35" height="35">
<circle cx="20.25" cy="20.25" r="17.25" fill="#D9D9D9"/>
</mask>
<g mask="url(#mask0_240_8373)">
<path d="M15.4 21.4444V26.2222H13V28.6111H16.6V31H19V28.6111H21.4V31H23.8V28.5502C26.1616 28.2528 28 26.2628 28 23.8333C28 22.2567 27.22 20.8663 26.032 19.9956C26.9082 19.1069 27.3993 17.9118 27.4 16.6667C27.4 14.4474 25.8652 12.5924 23.8 12.0585V9.5H21.4V11.8889H19V9.5H16.6V11.8889H13V14.2778H15.4V21.4444ZM23.2 26.2222H17.8V21.4444H23.2C24.5236 21.4444 25.6 22.5159 25.6 23.8333C25.6 25.1508 24.5236 26.2222 23.2 26.2222ZM17.8 14.2778H22.6C23.9236 14.2778 25 15.3492 25 16.6667C25 17.9841 23.9236 19.0556 22.6 19.0556H17.8V14.2778Z" fill="#B7B55B"/>
<circle cx="36.5" cy="41.5" r="23.5238" fill="#276D69" stroke="white" stroke-width="0.952381"/>
<circle cx="40.5" cy="45.5" r="23.5238" fill="#276D69" stroke="white" stroke-width="0.952381"/>
<circle cx="44" cy="49" r="23.5238" fill="#276D69" stroke="white" stroke-width="0.952381"/>
<circle cx="3.5" cy="41.5" r="23.5238" fill="#0AD7C8" stroke="white" stroke-width="0.952381"/>
<circle cx="-0.5" cy="45.5" r="23.5238" fill="#0AD7C8" stroke="white" stroke-width="0.952381"/>
<circle cx="-4.5" cy="49" r="23.5238" fill="#0AD7C8" stroke="white" stroke-width="0.952381"/>
</g>
</g>
</g>
<path d="M50 19.8692C50 18.9103 50.1802 18.0154 50.5407 17.1843C50.9011 16.3474 51.4273 15.621 52.1191 15.005C52.811 14.389 53.6598 13.9037 54.6656 13.5492C55.6772 13.1947 56.8342 13.0174 58.1365 13.0174C58.6074 13.0174 59.0783 13.0436 59.5492 13.0959C60.026 13.1424 60.494 13.2179 60.9533 13.3225C61.4184 13.4271 61.869 13.5608 62.305 13.7235C62.7468 13.8804 63.1654 14.0693 63.5608 14.2902L62.2875 16.3823C62.0492 16.2428 61.7788 16.1179 61.4765 16.0075C61.1742 15.8912 60.8486 15.7954 60.4998 15.7198C60.1568 15.6384 59.7992 15.5774 59.4271 15.5367C59.0609 15.4961 58.6917 15.4757 58.3196 15.4757C57.4592 15.4757 56.6917 15.5861 56.0173 15.807C55.3429 16.022 54.7732 16.3271 54.3081 16.7223C53.8429 17.1117 53.4883 17.5795 53.2441 18.1258C52.9999 18.6721 52.8779 19.2707 52.8779 19.9215C52.8779 20.5957 53.0058 21.2146 53.2616 21.7783C53.5174 22.3421 53.8807 22.8273 54.3517 23.2341C54.8226 23.6409 55.3923 23.9606 56.0609 24.193C56.7295 24.4197 57.4766 24.533 58.3022 24.533C58.9591 24.533 59.5609 24.4604 60.1074 24.3151C60.6539 24.164 61.1306 23.9518 61.5376 23.6787C61.9445 23.4056 62.2759 23.0772 62.5317 22.6936C62.7875 22.3043 62.9561 21.8684 63.0375 21.3861H58.276V19.1108H65.523V19.1196L65.5317 19.1108C65.677 19.8082 65.7206 20.4882 65.6625 21.1507C65.6102 21.8074 65.459 22.4292 65.209 23.0162C64.9648 23.5973 64.6276 24.132 64.1974 24.6202C63.7672 25.1083 63.2526 25.5297 62.6538 25.8842C62.055 26.2329 61.3748 26.506 60.6132 26.7036C59.8516 26.8954 59.0173 26.9913 58.1103 26.9913C56.8429 26.9913 55.7063 26.8053 54.7005 26.4334C53.7005 26.0614 52.8517 25.5529 52.154 24.9078C51.4564 24.2628 50.9215 23.5073 50.5494 22.6413C50.1831 21.7754 50 20.8514 50 19.8692Z" fill="white"/>
<path d="M68.7932 13.1831H75.7262C76.7727 13.1831 77.6797 13.2935 78.4471 13.5143C79.2145 13.7293 79.8512 14.0432 80.357 14.4558C80.8628 14.8684 81.2378 15.3711 81.4819 15.9639C81.7319 16.5567 81.8569 17.2279 81.8569 17.9776C81.8569 18.4832 81.7959 18.9655 81.6738 19.4247C81.5517 19.878 81.3628 20.2964 81.1069 20.68C80.857 21.0635 80.5401 21.4064 80.1564 21.7086C79.7727 22.005 79.3221 22.252 78.8047 22.4496L81.7697 26.8082H78.3861L75.8222 22.9377H75.7437L71.5577 22.929V26.8082H68.7932V13.1831ZM75.796 20.5405C76.3193 20.5405 76.7756 20.4795 77.1652 20.3574C77.5605 20.2354 77.889 20.0639 78.1506 19.8431C78.418 19.6223 78.6157 19.3549 78.7436 19.0411C78.8773 18.7215 78.9442 18.367 78.9442 17.9776C78.9442 17.2163 78.6826 16.6293 78.1593 16.2167C77.6361 15.7983 76.8483 15.589 75.796 15.589H71.5577V20.5405H75.796Z" fill="white"/>
<path d="M85.1359 13.1831H96.7433V15.6065H87.9004V18.3263H95.7317V20.6015H87.9004V24.3935H96.9264V26.8082H85.1359V13.1831Z" fill="white"/>
<path d="M99.9961 13.1831H111.603V15.6065H102.761V18.3263H110.592V20.6015H102.761V24.3935H111.787V26.8082H99.9961V13.1831Z" fill="white"/>
<path d="M114.839 13.1831H117.603L126.097 17.6289V13.1831H128.862V26.8082H126.097V20.5579L117.603 16.1382V26.8082H114.839V13.1831Z" fill="white"/>
<path d="M137.365 13.1831H140.295L146.888 26.8082H143.984L142.894 24.5156H134.931L133.876 26.8082H130.964L137.365 13.1831ZM141.803 22.2403L138.856 16.0511L135.987 22.2403H141.803Z" fill="white"/>
<path d="M148.074 19.8692C148.074 18.9103 148.254 18.0154 148.614 17.1843C148.975 16.3474 149.501 15.621 150.193 15.005C150.885 14.389 151.733 13.9037 152.739 13.5492C153.751 13.1947 154.908 13.0174 156.21 13.0174C156.681 13.0174 157.152 13.0436 157.623 13.0959C158.1 13.1424 158.568 13.2179 159.027 13.3225C159.492 13.4271 159.943 13.5608 160.379 13.7235C160.82 13.8804 161.239 14.0693 161.634 14.2902L160.361 16.3823C160.123 16.2428 159.852 16.1179 159.55 16.0075C159.248 15.8912 158.922 15.7954 158.573 15.7198C158.23 15.6384 157.873 15.5774 157.501 15.5367C157.135 15.4961 156.765 15.4757 156.393 15.4757C155.533 15.4757 154.765 15.5861 154.091 15.807C153.417 16.022 152.847 16.3271 152.382 16.7223C151.917 17.1117 151.562 17.5795 151.318 18.1258C151.074 18.6721 150.952 19.2707 150.952 19.9215C150.952 20.5957 151.079 21.2146 151.335 21.7783C151.591 22.3421 151.954 22.8273 152.425 23.2341C152.896 23.6409 153.466 23.9606 154.135 24.193C154.803 24.4197 155.55 24.533 156.376 24.533C157.033 24.533 157.635 24.4604 158.181 24.3151C158.728 24.164 159.204 23.9518 159.611 23.6787C160.018 23.4056 160.35 23.0772 160.605 22.6936C160.861 22.3043 161.03 21.8684 161.111 21.3861H156.35V19.1108H163.597V19.1196L163.605 19.1108C163.751 19.8082 163.794 20.4882 163.736 21.1507C163.684 21.8074 163.533 22.4292 163.283 23.0162C163.038 23.5973 162.701 24.132 162.271 24.6202C161.841 25.1083 161.326 25.5297 160.727 25.8842C160.129 26.2329 159.448 26.506 158.687 26.7036C157.925 26.8954 157.091 26.9913 156.184 26.9913C154.917 26.9913 153.78 26.8053 152.774 26.4334C151.774 26.0614 150.925 25.5529 150.228 24.9078C149.53 24.2628 148.995 23.5073 148.623 22.6413C148.257 21.7754 148.074 20.8514 148.074 19.8692Z" fill="white"/>
<path d="M166.867 13.1831H173.8C174.846 13.1831 175.753 13.2935 176.521 13.5143C177.288 13.7293 177.925 14.0432 178.431 14.4558C178.936 14.8684 179.311 15.3711 179.556 15.9639C179.806 16.5567 179.931 17.2279 179.931 17.9776C179.931 18.4832 179.87 18.9655 179.747 19.4247C179.625 19.878 179.436 20.2964 179.181 20.68C178.931 21.0635 178.614 21.4064 178.23 21.7086C177.846 22.005 177.396 22.252 176.878 22.4496L179.843 26.8082H176.46L173.896 22.9377H173.817L169.631 22.929V26.8082H166.867V13.1831ZM173.87 20.5405C174.393 20.5405 174.849 20.4795 175.239 20.3574C175.634 20.2354 175.963 20.0639 176.224 19.8431C176.492 19.6223 176.689 19.3549 176.817 19.0411C176.951 18.7215 177.018 18.367 177.018 17.9776C177.018 17.2163 176.756 16.6293 176.233 16.2167C175.71 15.7983 174.922 15.589 173.87 15.589H169.631V20.5405H173.87Z" fill="white"/>
<path d="M182.407 19.9564C182.407 18.9278 182.596 17.9863 182.974 17.132C183.352 16.2777 183.881 15.5455 184.561 14.9352C185.247 14.3192 186.067 13.8427 187.021 13.5056C187.98 13.1685 189.041 13 190.204 13C191.361 13 192.419 13.1685 193.378 13.5056C194.337 13.8427 195.157 14.3192 195.837 14.9352C196.523 15.5455 197.055 16.2777 197.433 17.132C197.811 17.9863 198 18.9278 198 19.9564C198 20.9909 197.811 21.9411 197.433 22.807C197.055 23.6671 196.523 24.4081 195.837 25.0299C195.157 25.6517 194.337 26.137 193.378 26.4857C192.419 26.8286 191.361 27 190.204 27C189.041 27 187.98 26.8286 187.021 26.4857C186.067 26.137 185.247 25.6517 184.561 25.0299C183.881 24.4081 183.352 23.6671 182.974 22.807C182.596 21.9411 182.407 20.9909 182.407 19.9564ZM185.172 19.9564C185.172 20.6596 185.297 21.2931 185.547 21.8568C185.803 22.4205 186.154 22.9029 186.602 23.3039C187.055 23.699 187.587 24.0042 188.198 24.2192C188.814 24.4342 189.483 24.5417 190.204 24.5417C190.925 24.5417 191.59 24.4342 192.201 24.2192C192.817 24.0042 193.349 23.699 193.797 23.3039C194.244 22.9029 194.596 22.4205 194.852 21.8568C195.108 21.2931 195.236 20.6596 195.236 19.9564C195.236 19.2532 195.108 18.6227 194.852 18.0648C194.596 17.5068 194.244 17.0361 193.797 16.6526C193.349 16.2632 192.817 15.9668 192.201 15.7634C191.59 15.56 190.925 15.4583 190.204 15.4583C189.483 15.4583 188.814 15.56 188.198 15.7634C187.587 15.9668 187.055 16.2632 186.602 16.6526C186.154 17.0361 185.803 17.5068 185.547 18.0648C185.297 18.6227 185.172 19.2532 185.172 19.9564Z" fill="white"/>
</g>
<defs>
<linearGradient id="paint0_linear_240_8373" x1="0" y1="40" x2="42.6077" y2="36.9969" gradientUnits="userSpaceOnUse">
<stop stop-color="#DEDC7C"/>
<stop offset="1" stop-color="#F7F7D3"/>
</linearGradient>
<linearGradient id="paint1_linear_240_8373" x1="3.5" y1="36.5" x2="38.6513" y2="34.0224" gradientUnits="userSpaceOnUse">
<stop stop-color="#DEDC7C"/>
<stop offset="1" stop-color="#F7F7D3"/>
</linearGradient>
<clipPath id="clip0_240_8373">
<rect width="198" height="40" fill="white"/>
</clipPath>
<clipPath id="clip1_240_8373">
<rect width="40" height="40" fill="white"/>
</clipPath>
<clipPath id="clip2_240_8373">
<rect width="34.5" height="34.5" fill="white" transform="translate(3 3)"/>
</clipPath>
</defs>
</svg>
