<svg width="373" height="80" viewBox="0 0 373 80" fill="none" xmlns="http://www.w3.org/2000/svg">
<g clip-path="url(#clip0_77_9120)">
<circle cx="40" cy="40" r="38.0952" stroke="url(#paint0_linear_77_9120)" stroke-width="3.80952"/>
<circle cx="40" cy="40" r="33" fill="url(#paint1_linear_77_9120)"/>
<g clip-path="url(#clip1_77_9120)">
<mask id="mask0_77_9120" style="mask-type:alpha" maskUnits="userSpaceOnUse" x="6" y="6" width="69" height="69">
<circle cx="40.5" cy="40.5" r="34.5" fill="#D9D9D9"/>
</mask>
<g mask="url(#mask0_77_9120)">
<path d="M30.8 42.8889V52.4444H26V57.2222H33.2V62H38V57.2222H42.8V62H47.6V57.1004C52.3232 56.5056 56 52.5257 56 47.6667C56 44.5133 54.44 41.7327 52.064 39.9912C53.8163 38.2139 54.7986 35.8235 54.8 33.3333C54.8 28.8948 51.7304 25.1848 47.6 24.117V19H42.8V23.7778H38V19H33.2V23.7778H26V28.5556H30.8V42.8889ZM46.4 52.4444H35.6V42.8889H46.4C49.0472 42.8889 51.2 45.0317 51.2 47.6667C51.2 50.3016 49.0472 52.4444 46.4 52.4444ZM35.6 28.5556H45.2C47.8472 28.5556 50 30.6984 50 33.3333C50 35.9683 47.8472 38.1111 45.2 38.1111H35.6V28.5556Z" fill="#B7B55B"/>
<circle cx="73" cy="83" r="47.0476" fill="#276D69" stroke="white" stroke-width="1.90476"/>
<circle cx="81" cy="91" r="47.0476" fill="#276D69" stroke="white" stroke-width="1.90476"/>
<circle cx="88" cy="98" r="47.0476" fill="#276D69" stroke="white" stroke-width="1.90476"/>
<circle cx="7" cy="83" r="47.0476" fill="#0AD7C8" stroke="white" stroke-width="1.90476"/>
<circle cx="-1" cy="91" r="47.0476" fill="#0AD7C8" stroke="white" stroke-width="1.90476"/>
<circle cx="-9" cy="98" r="47.0476" fill="#0AD7C8" stroke="white" stroke-width="1.90476"/>
</g>
</g>
</g>
<g clip-path="url(#clip2_77_9120)">
<path d="M93.9272 38.2716C93.9272 36.5324 94.2539 34.9091 94.9074 33.4018C95.561 31.884 96.5149 30.5664 97.7692 29.4491C99.0236 28.3318 100.563 27.4516 102.386 26.8086C104.22 26.1656 106.318 25.8442 108.679 25.8442C109.533 25.8442 110.386 25.8916 111.24 25.9865C112.105 26.0708 112.953 26.2078 113.786 26.3975C114.629 26.5873 115.446 26.8297 116.236 27.1248C117.038 27.4094 117.797 27.752 118.513 28.1526L116.205 31.9472C115.773 31.6942 115.283 31.4676 114.734 31.2673C114.186 31.0565 113.596 30.8826 112.964 30.7456C112.342 30.598 111.693 30.4873 111.019 30.4135C110.355 30.3398 109.685 30.3029 109.011 30.3029C107.451 30.3029 106.059 30.5031 104.837 30.9037C103.614 31.2937 102.581 31.8471 101.738 32.5638C100.895 33.2701 100.252 34.1186 99.8089 35.1094C99.3661 36.1002 99.1448 37.1859 99.1448 38.3665C99.1448 39.5892 99.3767 40.7118 99.8405 41.7342C100.304 42.7567 100.963 43.6368 101.817 44.3747C102.671 45.1125 103.704 45.6922 104.916 46.1139C106.128 46.525 107.482 46.7305 108.979 46.7305C110.17 46.7305 111.261 46.5987 112.252 46.3352C113.243 46.0612 114.107 45.6764 114.845 45.181C115.583 44.6856 116.184 44.0901 116.648 43.3944C117.111 42.6882 117.417 41.8976 117.565 41.0227H108.932V36.8961H122.071V36.9119L122.087 36.8961C122.35 38.1609 122.429 39.3942 122.324 40.5958C122.229 41.7869 121.955 42.9148 121.502 43.9794C121.059 45.0335 120.447 46.0032 119.667 46.8886C118.887 47.774 117.955 48.5382 116.869 49.1812C115.783 49.8137 114.55 50.3091 113.169 50.6674C111.788 51.0153 110.276 51.1892 108.631 51.1892C106.334 51.1892 104.273 50.8519 102.449 50.1773C100.636 49.5027 99.0974 48.5804 97.8325 47.4104C96.5676 46.2404 95.5979 44.8701 94.9232 43.2995C94.2592 41.729 93.9272 40.053 93.9272 38.2716ZM128 26.1446H140.57C142.467 26.1446 144.111 26.3448 145.503 26.7454C146.894 27.1354 148.048 27.7046 148.965 28.453C149.882 29.2014 150.562 30.1131 151.005 31.1883C151.458 32.2634 151.685 33.4809 151.685 34.8406C151.685 35.7577 151.574 36.6325 151.353 37.4652C151.131 38.2874 150.789 39.0464 150.325 39.742C149.872 40.4377 149.297 41.0596 148.602 41.6077C147.906 42.1453 147.089 42.5933 146.151 42.9517L151.527 50.8572H145.392L140.744 43.8371H140.601L133.012 43.8213V50.8572H128V26.1446ZM140.696 39.4891C141.645 39.4891 142.472 39.3784 143.178 39.157C143.895 38.9357 144.491 38.6247 144.965 38.2242C145.45 37.8236 145.808 37.3388 146.04 36.7696C146.283 36.1898 146.404 35.5468 146.404 34.8406C146.404 33.4598 145.93 32.3952 144.981 31.6468C144.032 30.8879 142.604 30.5084 140.696 30.5084H133.012V39.4891H140.696ZM157.63 26.1446H178.674V30.54H162.642V35.4731H176.84V39.5997H162.642V46.4775H179.006V50.8572H157.63V26.1446ZM184.572 26.1446H205.616V30.54H189.584V35.4731H203.782V39.5997H189.584V46.4775H205.948V50.8572H184.572V26.1446ZM211.482 26.1446H216.494L231.894 34.2082V26.1446H236.906V50.8572H231.894V39.5207L216.494 31.5045V50.8572H211.482V26.1446Z" fill="#4C948F"/>
<path d="M252.322 26.1446H257.634L269.588 50.8572H264.322L262.346 46.6989H247.911L245.997 50.8572H240.717L252.322 26.1446ZM260.37 42.5722L255.026 31.3464L249.824 42.5722H260.37ZM271.738 38.2716C271.738 36.5324 272.065 34.9091 272.718 33.4018C273.372 31.884 274.326 30.5664 275.58 29.4491C276.834 28.3318 278.373 27.4516 280.197 26.8086C282.031 26.1656 284.128 25.8442 286.489 25.8442C287.343 25.8442 288.197 25.8916 289.051 25.9865C289.915 26.0708 290.764 26.2078 291.596 26.3975C292.44 26.5873 293.257 26.8297 294.047 27.1248C294.848 27.4094 295.607 27.752 296.324 28.1526L294.016 31.9472C293.583 31.6942 293.093 31.4676 292.545 31.2673C291.997 31.0565 291.407 30.8826 290.774 30.7456C290.152 30.598 289.504 30.4873 288.83 30.4135C288.165 30.3398 287.496 30.3029 286.822 30.3029C285.261 30.3029 283.87 30.5031 282.647 30.9037C281.425 31.2937 280.392 31.8471 279.548 32.5638C278.705 33.2701 278.062 34.1186 277.62 35.1094C277.177 36.1002 276.955 37.1859 276.955 38.3665C276.955 39.5892 277.187 40.7118 277.651 41.7342C278.115 42.7567 278.774 43.6368 279.628 44.3747C280.481 45.1125 281.514 45.6922 282.726 46.1139C283.939 46.525 285.293 46.7305 286.79 46.7305C287.981 46.7305 289.072 46.5987 290.063 46.3352C291.054 46.0612 291.918 45.6764 292.656 45.181C293.394 44.6856 293.994 44.0901 294.458 43.3944C294.922 42.6882 295.228 41.8976 295.375 41.0227H286.742V36.8961H299.881V36.9119L299.897 36.8961C300.161 38.1609 300.24 39.3942 300.134 40.5958C300.04 41.7869 299.765 42.9148 299.312 43.9794C298.87 45.0335 298.258 46.0032 297.478 46.8886C296.698 47.774 295.765 48.5382 294.68 49.1812C293.594 49.8137 292.361 50.3091 290.98 50.6674C289.599 51.0153 288.086 51.1892 286.442 51.1892C284.144 51.1892 282.083 50.8519 280.26 50.1773C278.447 49.5027 276.908 48.5804 275.643 47.4104C274.378 46.2404 273.409 44.8701 272.734 43.2995C272.07 41.729 271.738 40.053 271.738 38.2716ZM305.811 26.1446H318.38C320.278 26.1446 321.922 26.3448 323.313 26.7454C324.705 27.1354 325.859 27.7046 326.776 28.453C327.693 29.2014 328.373 30.1131 328.816 31.1883C329.269 32.2634 329.495 33.4809 329.495 34.8406C329.495 35.7577 329.385 36.6325 329.163 37.4652C328.942 38.2874 328.599 39.0464 328.136 39.742C327.682 40.4377 327.108 41.0596 326.412 41.6077C325.717 42.1453 324.9 42.5933 323.962 42.9517L329.337 50.8572H323.203L318.554 43.8371H318.412L310.823 43.8213V50.8572H305.811V26.1446ZM318.507 39.4891C319.455 39.4891 320.283 39.3784 320.989 39.157C321.706 38.9357 322.301 38.6247 322.776 38.2242C323.261 37.8236 323.619 37.3388 323.851 36.7696C324.093 36.1898 324.215 35.5468 324.215 34.8406C324.215 33.4598 323.74 32.3952 322.792 31.6468C321.843 30.8879 320.415 30.5084 318.507 30.5084H310.823V39.4891H318.507ZM333.986 38.4297C333.986 36.564 334.328 34.8564 335.013 33.307C335.699 31.7575 336.658 30.4293 337.891 29.3226C339.135 28.2053 340.621 27.3409 342.35 26.7296C344.089 26.1182 346.013 25.8125 348.121 25.8125C350.218 25.8125 352.137 26.1182 353.876 26.7296C355.615 27.3409 357.101 28.2053 358.335 29.3226C359.579 30.4293 360.543 31.7575 361.228 33.307C361.913 34.8564 362.256 36.564 362.256 38.4297C362.256 40.306 361.913 42.0294 361.228 43.5999C360.543 45.1599 359.579 46.5039 358.335 47.6317C357.101 48.7596 355.615 49.6397 353.876 50.2722C352.137 50.8941 350.218 51.205 348.121 51.205C346.013 51.205 344.089 50.8941 342.35 50.2722C340.621 49.6397 339.135 48.7596 337.891 47.6317C336.658 46.5039 335.699 45.1599 335.013 43.5999C334.328 42.0294 333.986 40.306 333.986 38.4297ZM338.998 38.4297C338.998 39.7051 339.224 40.8541 339.678 41.8765C340.142 42.899 340.779 43.7738 341.591 44.5012C342.413 45.2179 343.378 45.7713 344.484 46.1613C345.602 46.5513 346.814 46.7463 348.121 46.7463C349.428 46.7463 350.635 46.5513 351.742 46.1613C352.859 45.7713 353.823 45.2179 354.635 44.5012C355.447 43.7738 356.084 42.899 356.548 41.8765C357.012 40.8541 357.244 39.7051 357.244 38.4297C357.244 37.1543 357.012 36.0106 356.548 34.9987C356.084 33.9868 355.447 33.133 354.635 32.4373C353.823 31.7311 352.859 31.1935 351.742 30.8246C350.635 30.4557 349.428 30.2712 348.121 30.2712C346.814 30.2712 345.602 30.4557 344.484 30.8246C343.378 31.1935 342.413 31.7311 341.591 32.4373C340.779 33.133 340.142 33.9868 339.678 34.9987C339.224 36.0106 338.998 37.1543 338.998 38.4297Z" fill="#4F4F4F"/>
</g>
<defs>
<linearGradient id="paint0_linear_77_9120" x1="0" y1="80" x2="85.2153" y2="73.9938" gradientUnits="userSpaceOnUse">
<stop stop-color="#DEDC7C"/>
<stop offset="1" stop-color="#F7F7D3"/>
</linearGradient>
<linearGradient id="paint1_linear_77_9120" x1="7" y1="73" x2="77.3026" y2="68.0448" gradientUnits="userSpaceOnUse">
<stop stop-color="#DEDC7C"/>
<stop offset="1" stop-color="#F7F7D3"/>
</linearGradient>
<clipPath id="clip0_77_9120">
<rect width="80" height="80" fill="white"/>
</clipPath>
<clipPath id="clip1_77_9120">
<rect width="69" height="69" fill="white" transform="translate(6 6)"/>
</clipPath>
<clipPath id="clip2_77_9120">
<rect width="273" height="32" fill="white" transform="translate(92.1089 22.8572)"/>
</clipPath>
</defs>
</svg>
