<svg width="80" height="80" viewBox="0 0 80 80" fill="none" xmlns="http://www.w3.org/2000/svg">
<g clip-path="url(#clip0_104_5690)">
<path d="M40 10C34.0666 10 28.2664 11.7595 23.3329 15.0559C18.3994 18.3524 14.5543 23.0377 12.2836 28.5195C10.013 34.0013 9.4189 40.0333 10.5765 45.8527C11.734 51.6721 14.5912 57.0176 18.7868 61.2132C22.9824 65.4088 28.3279 68.266 34.1473 69.4236C39.9667 70.5811 45.9987 69.987 51.4805 67.7164C56.9623 65.4458 61.6477 61.6006 64.9441 56.6671C68.2405 51.7336 70 45.9334 70 40C70.0115 36.0718 69.2491 32.1798 67.7564 28.5462C66.2637 24.9126 64.07 21.6086 61.3004 18.8229C58.5308 16.0371 55.2397 13.8241 51.6149 12.3103C47.9901 10.7965 44.1026 10.0114 40.1743 10H40ZM40.5085 41.017L37.385 51.5496H54.092C54.2027 51.5458 54.313 51.5637 54.4168 51.6025C54.5205 51.6413 54.6155 51.7002 54.6965 51.7757C54.7775 51.8513 54.8427 51.9421 54.8886 52.0429C54.9344 52.1437 54.9599 52.2525 54.9637 52.3632V52.6392L53.5109 57.6513C53.4469 57.8884 53.3041 58.0966 53.1061 58.2418C52.9081 58.387 52.6666 58.4605 52.4213 58.4504H26.8523L31.138 43.8499L26.3438 45.3027L27.4334 41.9613L32.2276 40.5085L38.2567 20.0242C38.323 19.7885 38.4664 19.5818 38.6638 19.437C38.8613 19.2922 39.1015 19.2176 39.3463 19.2252H45.8112C45.9218 19.2213 46.0322 19.2393 46.1359 19.2781C46.2396 19.3169 46.3347 19.3757 46.4156 19.4513C46.4966 19.5268 46.5618 19.6176 46.6077 19.7184C46.6535 19.8192 46.6791 19.9281 46.6828 20.0387V20.3148L41.5981 37.6029L46.3923 36.1501L45.3753 39.6368L40.5085 41.017Z" fill="#345D9D"/>
</g>
<defs>
<clipPath id="clip0_104_5690">
<rect width="60" height="60" fill="white" transform="translate(10 10)"/>
</clipPath>
</defs>
</svg>
