<svg width="20" height="20" viewBox="0 0 20 20" fill="none" xmlns="http://www.w3.org/2000/svg">
<g clip-path="url(#clip0_211_9061)">
<mask id="mask0_211_9061" style="mask-type:luminance" maskUnits="userSpaceOnUse" x="-3" y="0" width="27" height="20">
<rect x="-3" width="26.6667" height="20" fill="white"/>
</mask>
<g mask="url(#mask0_211_9061)">
<path fill-rule="evenodd" clip-rule="evenodd" d="M3.6665 0H23.6665V20H3.6665V0Z" fill="#EF0000"/>
<path fill-rule="evenodd" clip-rule="evenodd" d="M-3 0H7V20H-3V0Z" fill="#2F8D00"/>
<mask id="mask1_211_9061" style="mask-type:luminance" maskUnits="userSpaceOnUse" x="3" y="3" width="13" height="14">
<path fill-rule="evenodd" clip-rule="evenodd" d="M9.42857 16.012C5.87817 16.012 3 13.0992 3 9.50602C3 5.91285 5.87817 3 9.42857 3C12.979 3 15.8571 5.91285 15.8571 9.50602C15.8571 13.0992 12.979 16.012 9.42857 16.012Z" fill="white"/>
</mask>
<g mask="url(#mask1_211_9061)">
<path fill-rule="evenodd" clip-rule="evenodd" d="M9.03174 2.83936H9.86507V5.08835H9.03174V2.83936Z" fill="#FFE017"/>
<path fill-rule="evenodd" clip-rule="evenodd" d="M9.03174 14.0842H9.86507V16.1726H9.03174V14.0842Z" fill="#FFE017"/>
<path d="M3.10359 9.84247L2.87061 9.24472C5.44159 8.21832 7.38206 7.5564 8.69872 7.25809C10.6305 6.82041 12.753 6.49659 15.0665 6.28638L15.1233 6.92637C12.8364 7.13417 10.741 7.45384 8.83743 7.88513C7.55996 8.17457 5.64645 8.8273 3.10359 9.84247Z" fill="#FFE017"/>
<path d="M15.4586 5.89276L15.2695 6.50618C13.3264 5.89275 11.7436 5.62907 10.5269 5.71074L10.4849 5.06958C11.7912 4.98189 13.4471 5.25775 15.4586 5.89276Z" fill="#FFE017"/>
<path d="M16.1307 9.32263L15.7715 9.8525C14.7809 9.16477 13.5605 8.81933 12.1021 8.81933V8.17676C13.6832 8.17676 15.0288 8.55766 16.1307 9.32263Z" fill="#FFE017"/>
<path d="M15.593 9.51489L15.7572 10.1356C13.6217 10.7141 11.6167 11.0422 9.74216 11.1195C7.8547 11.1973 5.65481 10.868 3.14062 10.134L3.31661 9.51656C5.7697 10.2328 7.90356 10.5522 9.71632 10.4775C11.542 10.4022 13.501 10.0816 15.593 9.51489Z" fill="#FFE017"/>
<path d="M15.3514 12.5357L14.3478 13.5646C12.4406 11.6591 10.7615 10.2967 9.32082 9.47803C7.85557 8.6454 5.94474 7.79992 3.59131 6.94501L4.07393 5.58423C6.49677 6.46436 8.47788 7.34094 10.0202 8.21738C11.5872 9.1078 13.3608 10.547 15.3514 12.5357Z" fill="#FFE017"/>
<path d="M4.05615 13.1186L3.67627 12.6037C3.72932 12.5637 3.82397 12.4968 3.95439 12.4121C4.16972 12.2722 4.40884 12.1325 4.66611 12.002C5.3747 11.6426 6.08548 11.4181 6.76341 11.3975C6.79656 11.3965 6.82958 11.396 6.86245 11.396V12.0386C6.83597 12.0386 6.80931 12.039 6.78248 12.0398C6.21117 12.0572 5.58378 12.2553 4.95062 12.5765C4.71462 12.6962 4.49472 12.8246 4.29738 12.9528C4.22869 12.9974 4.16791 13.0387 4.11583 13.0755C4.08546 13.0969 4.06531 13.1117 4.05615 13.1186Z" fill="#FFE017"/>
<path d="M4.35156 13.3415L4.51145 12.7196C6.62822 13.2771 8.26012 13.5549 9.39903 13.5549C10.5337 13.5549 12.2225 13.2272 14.4545 12.5696L14.632 13.1865C12.3472 13.8597 10.6065 14.1974 9.39903 14.1974C8.1958 14.1974 6.51602 13.9115 4.35156 13.3415Z" fill="#FFE017"/>
<path d="M3.52686 7.58447L4.53275 6.55786L6.00552 8.03589L4.99962 9.06251L3.52686 7.58447Z" fill="#FFE017"/>
<path d="M11.8711 12.7123L12.6193 11.4807L14.9557 12.9344L14.2075 14.1661L11.8711 12.7123Z" fill="#FFE017"/>
</g>
<path fill-rule="evenodd" clip-rule="evenodd" d="M3 9.50602C3 13.0992 5.87817 16.012 9.42857 16.012C12.979 16.012 15.8571 13.0992 15.8571 9.50602C15.8571 5.91285 12.979 3 9.42857 3C5.87817 3 3 5.91285 3 9.50602ZM15.0636 9.58628C15.0636 12.6915 12.5763 15.2088 9.50803 15.2088C6.43978 15.2088 3.95247 12.6915 3.95247 9.58628C3.95247 6.48106 6.43978 3.96379 9.50803 3.96379C12.5763 3.96379 15.0636 6.48106 15.0636 9.58628Z" fill="#F9E813"/>
<path d="M5.88818 5.49341V10.7107C6.23163 12.7757 7.38868 13.8083 9.35934 13.8083C11.33 13.8083 12.4871 12.7757 12.8305 10.7107V5.49341H5.88818Z" fill="white"/>
<path d="M5.41211 5.01172H13.3068V10.7512L13.3002 10.7909C12.9188 13.084 11.5669 14.2904 9.35946 14.2904C7.15205 14.2904 5.80008 13.084 5.41871 10.7909L5.41211 10.7512V5.01172Z" fill="#C51918"/>
<path d="M7.21826 6.76489H11.5014V10.4656C11.5014 10.4656 11.1835 12.3767 9.35981 12.3767C7.5361 12.3767 7.21826 10.4656 7.21826 10.4656V6.76489Z" fill="#F7FCFF"/>
<path fill-rule="evenodd" clip-rule="evenodd" d="M6.17432 5.40942H6.77673V5.81103H6.17432V5.40942Z" fill="#F9E813"/>
<path fill-rule="evenodd" clip-rule="evenodd" d="M5.85645 5.56982H6.96756V5.77063H5.85645V5.56982Z" fill="#060101"/>
<path fill-rule="evenodd" clip-rule="evenodd" d="M5.85645 5.73071H6.45885V5.93152H5.85645V5.73071Z" fill="#F9E813"/>
<path fill-rule="evenodd" clip-rule="evenodd" d="M6.49121 5.73071H7.09362V5.93152H6.49121V5.73071Z" fill="#F9E813"/>
<path fill-rule="evenodd" clip-rule="evenodd" d="M5.85645 6.2124H6.25805V6.81481H5.85645V6.2124Z" fill="#F9E813"/>
<path fill-rule="evenodd" clip-rule="evenodd" d="M6.6499 6.2124H7.05151V6.81481H6.6499V6.2124Z" fill="#F9E813"/>
<path fill-rule="evenodd" clip-rule="evenodd" d="M6.33252 6.2124H6.53332V6.81481H6.33252V6.2124Z" fill="#F9E813"/>
<path fill-rule="evenodd" clip-rule="evenodd" d="M5.85645 6.052H6.96756V6.25281H5.85645V6.052Z" fill="#060101"/>
<path fill-rule="evenodd" clip-rule="evenodd" d="M5.85645 6.53369H6.96756V6.73449H5.85645V6.53369Z" fill="#060101"/>
<path fill-rule="evenodd" clip-rule="evenodd" d="M6.01514 5.89111H6.21594V6.09192H6.01514V5.89111Z" fill="#F9E813"/>
<path fill-rule="evenodd" clip-rule="evenodd" d="M6.6499 5.89111H6.85071V6.09192H6.6499V5.89111Z" fill="#F9E813"/>
<path fill-rule="evenodd" clip-rule="evenodd" d="M6.33252 5.73071H6.53332V6.13232H6.33252V5.73071Z" fill="#F9E813"/>
<path fill-rule="evenodd" clip-rule="evenodd" d="M9.18994 5.40942H9.79235V5.81103H9.18994V5.40942Z" fill="#F9E813"/>
<path fill-rule="evenodd" clip-rule="evenodd" d="M8.87207 5.56982H9.98318V5.77063H8.87207V5.56982Z" fill="#060101"/>
<path fill-rule="evenodd" clip-rule="evenodd" d="M8.87207 5.73071H9.47448V5.93152H8.87207V5.73071Z" fill="#F9E813"/>
<path fill-rule="evenodd" clip-rule="evenodd" d="M9.50684 5.73071H10.1092V5.93152H9.50684V5.73071Z" fill="#F9E813"/>
<path fill-rule="evenodd" clip-rule="evenodd" d="M8.87207 6.2124H9.27368V6.81481H8.87207V6.2124Z" fill="#F9E813"/>
<path fill-rule="evenodd" clip-rule="evenodd" d="M9.66553 6.2124H10.0671V6.81481H9.66553V6.2124Z" fill="#F9E813"/>
<path fill-rule="evenodd" clip-rule="evenodd" d="M9.34814 6.2124H9.54895V6.81481H9.34814V6.2124Z" fill="#F9E813"/>
<path fill-rule="evenodd" clip-rule="evenodd" d="M8.87207 6.052H9.98318V6.25281H8.87207V6.052Z" fill="#060101"/>
<path fill-rule="evenodd" clip-rule="evenodd" d="M8.87207 6.53369H9.98318V6.73449H8.87207V6.53369Z" fill="#060101"/>
<path fill-rule="evenodd" clip-rule="evenodd" d="M9.03076 5.89111H9.23156V6.09192H9.03076V5.89111Z" fill="#F9E813"/>
<path fill-rule="evenodd" clip-rule="evenodd" d="M9.66553 5.89111H9.86633V6.09192H9.66553V5.89111Z" fill="#F9E813"/>
<path fill-rule="evenodd" clip-rule="evenodd" d="M9.34814 5.73071H9.54895V6.13232H9.34814V5.73071Z" fill="#F9E813"/>
<path fill-rule="evenodd" clip-rule="evenodd" d="M12.0474 5.40942H12.6498V5.81103H12.0474V5.40942Z" fill="#F9E813"/>
<path fill-rule="evenodd" clip-rule="evenodd" d="M11.7295 5.56982H12.8406V5.77063H11.7295V5.56982Z" fill="#060101"/>
<path fill-rule="evenodd" clip-rule="evenodd" d="M11.7295 5.73071H12.3319V5.93152H11.7295V5.73071Z" fill="#F9E813"/>
<path fill-rule="evenodd" clip-rule="evenodd" d="M12.3643 5.73071H12.9667V5.93152H12.3643V5.73071Z" fill="#F9E813"/>
<path fill-rule="evenodd" clip-rule="evenodd" d="M11.7295 6.2124H12.1311V6.81481H11.7295V6.2124Z" fill="#F9E813"/>
<path fill-rule="evenodd" clip-rule="evenodd" d="M12.5229 6.2124H12.9246V6.81481H12.5229V6.2124Z" fill="#F9E813"/>
<path fill-rule="evenodd" clip-rule="evenodd" d="M12.2056 6.2124H12.4064V6.81481H12.2056V6.2124Z" fill="#F9E813"/>
<path fill-rule="evenodd" clip-rule="evenodd" d="M11.7295 6.052H12.8406V6.25281H11.7295V6.052Z" fill="#060101"/>
<path fill-rule="evenodd" clip-rule="evenodd" d="M11.7295 6.53369H12.8406V6.73449H11.7295V6.53369Z" fill="#060101"/>
<path fill-rule="evenodd" clip-rule="evenodd" d="M11.8882 5.89111H12.089V6.09192H11.8882V5.89111Z" fill="#F9E813"/>
<path fill-rule="evenodd" clip-rule="evenodd" d="M12.5229 5.89111H12.7238V6.09192H12.5229V5.89111Z" fill="#F9E813"/>
<path fill-rule="evenodd" clip-rule="evenodd" d="M12.2056 5.73071H12.4064V6.13232H12.2056V5.73071Z" fill="#F9E813"/>
<path fill-rule="evenodd" clip-rule="evenodd" d="M12.0474 8.30103H12.6498V8.70263H12.0474V8.30103Z" fill="#F9E813"/>
<path fill-rule="evenodd" clip-rule="evenodd" d="M11.7295 8.46143H12.8406V8.66223H11.7295V8.46143Z" fill="#060101"/>
<path fill-rule="evenodd" clip-rule="evenodd" d="M11.7295 8.62231H12.3319V8.82312H11.7295V8.62231Z" fill="#F9E813"/>
<path fill-rule="evenodd" clip-rule="evenodd" d="M12.3643 8.62231H12.9667V8.82312H12.3643V8.62231Z" fill="#F9E813"/>
<path fill-rule="evenodd" clip-rule="evenodd" d="M11.7295 9.104H12.1311V9.70641H11.7295V9.104Z" fill="#F9E813"/>
<path fill-rule="evenodd" clip-rule="evenodd" d="M12.5229 9.104H12.9246V9.70641H12.5229V9.104Z" fill="#F9E813"/>
<path fill-rule="evenodd" clip-rule="evenodd" d="M12.2056 9.104H12.4064V9.70641H12.2056V9.104Z" fill="#F9E813"/>
<path fill-rule="evenodd" clip-rule="evenodd" d="M11.7295 8.9436H12.8406V9.14441H11.7295V8.9436Z" fill="#060101"/>
<path fill-rule="evenodd" clip-rule="evenodd" d="M11.7295 9.42529H12.8406V9.6261H11.7295V9.42529Z" fill="#060101"/>
<path fill-rule="evenodd" clip-rule="evenodd" d="M11.8882 8.78271H12.089V8.98352H11.8882V8.78271Z" fill="#F9E813"/>
<path fill-rule="evenodd" clip-rule="evenodd" d="M12.5229 8.78271H12.7238V8.98352H12.5229V8.78271Z" fill="#F9E813"/>
<path fill-rule="evenodd" clip-rule="evenodd" d="M12.2056 8.62231H12.4064V9.02392H12.2056V8.62231Z" fill="#F9E813"/>
<path fill-rule="evenodd" clip-rule="evenodd" d="M6.17432 8.30103H6.77673V8.70263H6.17432V8.30103Z" fill="#F9E813"/>
<path fill-rule="evenodd" clip-rule="evenodd" d="M5.85645 8.46143H6.96756V8.66223H5.85645V8.46143Z" fill="#060101"/>
<path fill-rule="evenodd" clip-rule="evenodd" d="M5.85645 8.62231H6.45885V8.82312H5.85645V8.62231Z" fill="#F9E813"/>
<path fill-rule="evenodd" clip-rule="evenodd" d="M6.49121 8.62231H7.09362V8.82312H6.49121V8.62231Z" fill="#F9E813"/>
<path fill-rule="evenodd" clip-rule="evenodd" d="M5.85645 9.104H6.25805V9.70641H5.85645V9.104Z" fill="#F9E813"/>
<path fill-rule="evenodd" clip-rule="evenodd" d="M6.6499 9.104H7.05151V9.70641H6.6499V9.104Z" fill="#F9E813"/>
<path fill-rule="evenodd" clip-rule="evenodd" d="M6.33252 9.104H6.53332V9.70641H6.33252V9.104Z" fill="#F9E813"/>
<path fill-rule="evenodd" clip-rule="evenodd" d="M5.85645 8.9436H6.96756V9.14441H5.85645V8.9436Z" fill="#060101"/>
<path fill-rule="evenodd" clip-rule="evenodd" d="M5.85645 9.42529H6.96756V9.6261H5.85645V9.42529Z" fill="#060101"/>
<path fill-rule="evenodd" clip-rule="evenodd" d="M6.01514 8.78271H6.21594V8.98352H6.01514V8.78271Z" fill="#F9E813"/>
<path fill-rule="evenodd" clip-rule="evenodd" d="M6.6499 8.78271H6.85071V8.98352H6.6499V8.78271Z" fill="#F9E813"/>
<path fill-rule="evenodd" clip-rule="evenodd" d="M6.33252 8.62231H6.53332V9.02392H6.33252V8.62231Z" fill="#F9E813"/>
<path fill-rule="evenodd" clip-rule="evenodd" d="M6.56055 11.9255L6.94777 11.4641L7.25542 11.7222L6.8682 12.1837L6.56055 11.9255Z" fill="#F9E813"/>
<path fill-rule="evenodd" clip-rule="evenodd" d="M6.47949 12.272L7.1937 11.4208L7.34752 11.5499L6.63332 12.401L6.47949 12.272Z" fill="#060101"/>
<path fill-rule="evenodd" clip-rule="evenodd" d="M6.60254 12.3752L6.98976 11.9138L7.14358 12.0428L6.75636 12.5043L6.60254 12.3752Z" fill="#F9E813"/>
<path fill-rule="evenodd" clip-rule="evenodd" d="M7.01074 11.8889L7.39796 11.4274L7.55179 11.5565L7.16457 12.018L7.01074 11.8889Z" fill="#F9E813"/>
<path fill-rule="evenodd" clip-rule="evenodd" d="M6.97168 12.6851L7.22983 12.3774L7.6913 12.7646L7.43315 13.0723L6.97168 12.6851Z" fill="#F9E813"/>
<path fill-rule="evenodd" clip-rule="evenodd" d="M7.48242 12.0769L7.74057 11.7693L8.20204 12.1565L7.94389 12.4641L7.48242 12.0769Z" fill="#F9E813"/>
<path fill-rule="evenodd" clip-rule="evenodd" d="M7.27783 12.3201L7.40691 12.1662L7.86838 12.5535L7.7393 12.7073L7.27783 12.3201Z" fill="#F9E813"/>
<path fill-rule="evenodd" clip-rule="evenodd" d="M6.84863 12.5818L7.56284 11.7306L7.71667 11.8597L7.00246 12.7109L6.84863 12.5818Z" fill="#060101"/>
<path fill-rule="evenodd" clip-rule="evenodd" d="M7.21777 12.8914L7.93198 12.0402L8.08581 12.1693L7.3716 13.0204L7.21777 12.8914Z" fill="#060101"/>
<path fill-rule="evenodd" clip-rule="evenodd" d="M6.82812 12.3569L6.9572 12.2031L7.11102 12.3322L6.98195 12.486L6.82812 12.3569Z" fill="#F9E813"/>
<path fill-rule="evenodd" clip-rule="evenodd" d="M7.23633 11.8706L7.3654 11.7168L7.51923 11.8459L7.39015 11.9997L7.23633 11.8706Z" fill="#F9E813"/>
<path fill-rule="evenodd" clip-rule="evenodd" d="M6.90869 12.0105L7.03777 11.8567L7.34541 12.1148L7.21634 12.2686L6.90869 12.0105Z" fill="#F9E813"/>
<path fill-rule="evenodd" clip-rule="evenodd" d="M11.9897 11.5613L12.377 12.0228L12.0693 12.2809L11.6821 11.8194L11.9897 11.5613Z" fill="#F9E813"/>
<path fill-rule="evenodd" clip-rule="evenodd" d="M11.6626 11.4211L12.3768 12.2723L12.223 12.4014L11.5088 11.5502L11.6626 11.4211Z" fill="#060101"/>
<path fill-rule="evenodd" clip-rule="evenodd" d="M11.5396 11.5244L11.9268 11.9859L11.7729 12.115L11.3857 11.6535L11.5396 11.5244Z" fill="#F9E813"/>
<path fill-rule="evenodd" clip-rule="evenodd" d="M11.9478 12.011L12.335 12.4725L12.1812 12.6015L11.7939 12.1401L11.9478 12.011Z" fill="#F9E813"/>
<path fill-rule="evenodd" clip-rule="evenodd" d="M11.1704 11.8342L11.4286 12.1419L10.9671 12.5291L10.7089 12.2215L11.1704 11.8342Z" fill="#F9E813"/>
<path fill-rule="evenodd" clip-rule="evenodd" d="M11.6802 12.4424L11.9383 12.75L11.4769 13.1373L11.2187 12.8296L11.6802 12.4424Z" fill="#F9E813"/>
<path fill-rule="evenodd" clip-rule="evenodd" d="M11.4766 12.1992L11.6056 12.353L11.1442 12.7403L11.0151 12.5864L11.4766 12.1992Z" fill="#F9E813"/>
<path fill-rule="evenodd" clip-rule="evenodd" d="M11.2935 11.7312L12.0077 12.5824L11.8538 12.7114L11.1396 11.8603L11.2935 11.7312Z" fill="#060101"/>
<path fill-rule="evenodd" clip-rule="evenodd" d="M10.9243 12.0408L11.6385 12.8919L11.4847 13.021L10.7705 12.1698L10.9243 12.0408Z" fill="#060101"/>
<path fill-rule="evenodd" clip-rule="evenodd" d="M11.519 11.7493L11.6481 11.9031L11.4943 12.0322L11.3652 11.8783L11.519 11.7493Z" fill="#F9E813"/>
<path fill-rule="evenodd" clip-rule="evenodd" d="M11.9272 12.2356L12.0563 12.3894L11.9025 12.5185L11.7734 12.3647L11.9272 12.2356Z" fill="#F9E813"/>
<path fill-rule="evenodd" clip-rule="evenodd" d="M11.8457 11.8894L11.9748 12.0432L11.6671 12.3014L11.5381 12.1476L11.8457 11.8894Z" fill="#F9E813"/>
<path fill-rule="evenodd" clip-rule="evenodd" d="M9.97332 7.17676H8.87305V7.97799C8.87305 7.97799 8.9547 8.39174 9.42319 8.39174C9.89168 8.39174 9.97332 7.97799 9.97332 7.97799V7.17676ZM9.34936 7.4978C9.34936 7.58652 9.2783 7.65844 9.19063 7.65844C9.10297 7.65844 9.0319 7.58652 9.0319 7.4978C9.0319 7.40908 9.10297 7.33716 9.19063 7.33716C9.2783 7.33716 9.34936 7.40908 9.34936 7.4978ZM9.19063 8.30102C9.2783 8.30102 9.34936 8.2291 9.34936 8.14038C9.34936 8.05166 9.2783 7.97974 9.19063 7.97974C9.10297 7.97974 9.0319 8.05166 9.0319 8.14038C9.0319 8.2291 9.10297 8.30102 9.19063 8.30102ZM9.82527 8.14038C9.82527 8.2291 9.75421 8.30102 9.66654 8.30102C9.57888 8.30102 9.50781 8.2291 9.50781 8.14038C9.50781 8.05166 9.57888 7.97974 9.66654 7.97974C9.75421 7.97974 9.82527 8.05166 9.82527 8.14038ZM9.42891 7.97973C9.51658 7.97973 9.58764 7.90781 9.58764 7.81909C9.58764 7.73037 9.51658 7.65845 9.42891 7.65845C9.34125 7.65845 9.27018 7.73037 9.27018 7.81909C9.27018 7.90781 9.34125 7.97973 9.42891 7.97973ZM9.82527 7.4978C9.82527 7.58652 9.75421 7.65844 9.66654 7.65844C9.57888 7.65844 9.50781 7.58652 9.50781 7.4978C9.50781 7.40908 9.57888 7.33716 9.66654 7.33716C9.75421 7.33716 9.82527 7.40908 9.82527 7.4978Z" fill="#013399"/>
<path fill-rule="evenodd" clip-rule="evenodd" d="M9.97332 8.9436H8.87305V9.74483C8.87305 9.74483 8.9547 10.1586 9.42319 10.1586C9.89168 10.1586 9.97332 9.74483 9.97332 9.74483V8.9436ZM9.34936 9.26473C9.34936 9.35345 9.2783 9.42537 9.19063 9.42537C9.10297 9.42537 9.0319 9.35345 9.0319 9.26473C9.0319 9.17601 9.10297 9.10409 9.19063 9.10409C9.2783 9.10409 9.34936 9.17601 9.34936 9.26473ZM9.19063 10.0679C9.2783 10.0679 9.34936 9.99603 9.34936 9.90731C9.34936 9.81859 9.2783 9.74666 9.19063 9.74666C9.10297 9.74666 9.0319 9.81859 9.0319 9.90731C9.0319 9.99603 9.10297 10.0679 9.19063 10.0679ZM9.82527 9.90731C9.82527 9.99603 9.75421 10.0679 9.66654 10.0679C9.57888 10.0679 9.50781 9.99603 9.50781 9.90731C9.50781 9.81859 9.57888 9.74666 9.66654 9.74666C9.75421 9.74666 9.82527 9.81859 9.82527 9.90731ZM9.42891 9.74666C9.51658 9.74666 9.58764 9.67474 9.58764 9.58602C9.58764 9.4973 9.51658 9.42537 9.42891 9.42537C9.34125 9.42537 9.27018 9.4973 9.27018 9.58602C9.27018 9.67474 9.34125 9.74666 9.42891 9.74666ZM9.82527 9.26473C9.82527 9.35345 9.75421 9.42537 9.66654 9.42537C9.57888 9.42537 9.50781 9.35345 9.50781 9.26473C9.50781 9.17601 9.57888 9.10409 9.66654 9.10409C9.75421 9.10409 9.82527 9.17601 9.82527 9.26473Z" fill="#013399"/>
<path fill-rule="evenodd" clip-rule="evenodd" d="M11.4015 8.9436H10.3013V9.74483C10.3013 9.74483 10.3829 10.1586 10.8514 10.1586C11.3199 10.1586 11.4015 9.74483 11.4015 9.74483V8.9436ZM10.7777 9.26473C10.7777 9.35345 10.7067 9.42537 10.619 9.42537C10.5314 9.42537 10.4603 9.35345 10.4603 9.26473C10.4603 9.17601 10.5314 9.10409 10.619 9.10409C10.7067 9.10409 10.7777 9.17601 10.7777 9.26473ZM10.619 10.0679C10.7067 10.0679 10.7777 9.99603 10.7777 9.90731C10.7777 9.81859 10.7067 9.74666 10.619 9.74666C10.5314 9.74666 10.4603 9.81859 10.4603 9.90731C10.4603 9.99603 10.5314 10.0679 10.619 10.0679ZM11.2537 9.90731C11.2537 9.99603 11.1826 10.0679 11.0949 10.0679C11.0073 10.0679 10.9362 9.99603 10.9362 9.90731C10.9362 9.81859 11.0073 9.74666 11.0949 9.74666C11.1826 9.74666 11.2537 9.81859 11.2537 9.90731ZM10.8573 9.74666C10.945 9.74666 11.016 9.67474 11.016 9.58602C11.016 9.4973 10.945 9.42537 10.8573 9.42537C10.7696 9.42537 10.6986 9.4973 10.6986 9.58602C10.6986 9.67474 10.7696 9.74666 10.8573 9.74666ZM11.2537 9.26473C11.2537 9.35345 11.1826 9.42537 11.0949 9.42537C11.0073 9.42537 10.9362 9.35345 10.9362 9.26473C10.9362 9.17601 11.0073 9.10409 11.0949 9.10409C11.1826 9.10409 11.2537 9.17601 11.2537 9.26473Z" fill="#013399"/>
<path fill-rule="evenodd" clip-rule="evenodd" d="M8.54412 8.9436H7.44385V9.74483C7.44385 9.74483 7.5255 10.1586 7.99399 10.1586C8.46248 10.1586 8.54412 9.74483 8.54412 9.74483V8.9436ZM7.92032 9.26473C7.92032 9.35345 7.84926 9.42537 7.76159 9.42537C7.67393 9.42537 7.60286 9.35345 7.60286 9.26473C7.60286 9.17601 7.67393 9.10409 7.76159 9.10409C7.84926 9.10409 7.92032 9.17601 7.92032 9.26473ZM7.76159 10.0679C7.84926 10.0679 7.92032 9.99603 7.92032 9.90731C7.92032 9.81859 7.84926 9.74666 7.76159 9.74666C7.67393 9.74666 7.60286 9.81859 7.60286 9.90731C7.60286 9.99603 7.67393 10.0679 7.76159 10.0679ZM8.39624 9.90731C8.39624 9.99603 8.32517 10.0679 8.23751 10.0679C8.14984 10.0679 8.07878 9.99603 8.07878 9.90731C8.07878 9.81859 8.14984 9.74666 8.23751 9.74666C8.32517 9.74666 8.39624 9.81859 8.39624 9.90731ZM7.99988 9.74666C8.08754 9.74666 8.15861 9.67474 8.15861 9.58602C8.15861 9.4973 8.08754 9.42537 7.99988 9.42537C7.91221 9.42537 7.84115 9.4973 7.84115 9.58602C7.84115 9.67474 7.91221 9.74666 7.99988 9.74666ZM8.39624 9.26473C8.39624 9.35345 8.32517 9.42537 8.23751 9.42537C8.14984 9.42537 8.07878 9.35345 8.07878 9.26473C8.07878 9.17601 8.14984 9.10409 8.23751 9.10409C8.32517 9.10409 8.39624 9.17601 8.39624 9.26473Z" fill="#013399"/>
<path fill-rule="evenodd" clip-rule="evenodd" d="M9.97332 10.7104H8.87305V11.5117C8.87305 11.5117 8.9547 11.9254 9.42319 11.9254C9.89168 11.9254 9.97332 11.5117 9.97332 11.5117V10.7104ZM9.34936 11.0317C9.34936 11.1204 9.2783 11.1923 9.19063 11.1923C9.10297 11.1923 9.0319 11.1204 9.0319 11.0317C9.0319 10.9429 9.10297 10.871 9.19063 10.871C9.2783 10.871 9.34936 10.9429 9.34936 11.0317ZM9.19063 11.8349C9.2783 11.8349 9.34936 11.763 9.34936 11.6742C9.34936 11.5855 9.2783 11.5136 9.19063 11.5136C9.10297 11.5136 9.0319 11.5855 9.0319 11.6742C9.0319 11.763 9.10297 11.8349 9.19063 11.8349ZM9.82527 11.6742C9.82527 11.763 9.75421 11.8349 9.66654 11.8349C9.57888 11.8349 9.50781 11.763 9.50781 11.6742C9.50781 11.5855 9.57888 11.5136 9.66654 11.5136C9.75421 11.5136 9.82527 11.5855 9.82527 11.6742ZM9.42891 11.5136C9.51658 11.5136 9.58764 11.4417 9.58764 11.3529C9.58764 11.2642 9.51658 11.1923 9.42891 11.1923C9.34125 11.1923 9.27018 11.2642 9.27018 11.3529C9.27018 11.4417 9.34125 11.5136 9.42891 11.5136ZM9.82527 11.0317C9.82527 11.1204 9.75421 11.1923 9.66654 11.1923C9.57888 11.1923 9.50781 11.1204 9.50781 11.0317C9.50781 10.9429 9.57888 10.871 9.66654 10.871C9.75421 10.871 9.82527 10.9429 9.82527 11.0317Z" fill="#013399"/>
</g>
</g>
<defs>
<clipPath id="clip0_211_9061">
<rect width="20" height="20" rx="10" fill="white"/>
</clipPath>
</defs>
</svg>
