<svg width="76" height="64" viewBox="0 0 76 64" fill="none" xmlns="http://www.w3.org/2000/svg">
<path fill-rule="evenodd" clip-rule="evenodd" d="M71.2073 25.4819L75.387 5.7706C76.3997 1.02604 73.6831 -0.826417 70.5777 0.337445L3.50843 26.1773C-1.06601 27.9677 -0.998498 30.533 2.73072 31.6969L19.8781 37.0653L59.7086 11.9842C61.58 10.7339 63.2866 11.4279 61.8851 12.6755L29.667 41.7882L28.4167 59.4919C30.207 59.4919 30.982 58.7169 31.911 57.7879L40.2983 49.7192L57.6834 62.5298C60.8725 64.3174 63.1165 63.3723 63.9779 59.5756L64.7689 55.8453C64.0272 55.9473 63.2698 56 62.5 56C53.3873 56 46 48.6127 46 39.5C46 30.3873 53.3873 23 62.5 23C65.6961 23 68.68 23.9087 71.2073 25.4819Z" fill="white"/>
<path d="M55.4398 33.4312C52.9877 33.4312 51 35.4189 51 37.871C51 40.3231 52.9877 42.3108 55.4398 42.3108C55.843 42.3108 56.1744 42.0145 56.235 41.6285H56.2478V34.2394C56.2478 33.7934 55.8858 33.4312 55.4398 33.4312Z" fill="white"/>
<path d="M73.3541 29.808C73.3541 29.3619 72.9925 29 72.5462 29C72.361 29 72.1925 29.0648 72.0565 29.1694L64.9467 33.2743H58.5376C58.0913 33.2743 57.7297 33.6359 57.7297 34.0823V41.7515H57.7398C57.7894 42.15 58.1255 42.4597 58.5376 42.4597H64.2246L71.9982 46.9476C72.1423 47.0813 72.334 47.1648 72.5462 47.1648C72.9922 47.1648 73.3541 46.8029 73.3541 46.3569C73.3541 46.3263 73.3485 46.2971 73.3452 46.2674H73.3541V44.8993V31.2224V29.8549H73.3494C73.3503 29.8392 73.3541 29.8243 73.3541 29.808Z" fill="white"/>
<path d="M64.0229 48.6054L64.0116 48.5858C64.0077 48.5787 64.0059 48.5713 64.0018 48.5641C63.9976 48.557 63.9922 48.5517 63.9881 48.5451L61.5202 44.2711L61.511 44.2765C61.3761 44.0911 61.1752 43.9775 60.9592 43.9508V43.9419H58.8131V43.9472C58.6978 43.9567 58.5828 43.9885 58.4758 44.0503C58.0892 44.2732 57.957 44.7677 58.1802 45.154C58.1992 45.1867 58.2224 45.2152 58.2453 45.244L58.2357 45.2497L61.1116 50.2312C61.1119 50.2318 61.1119 50.2321 61.1122 50.2327C61.1125 50.2333 61.1131 50.2339 61.1131 50.2339L61.1419 50.2838L61.147 50.2808C61.3829 50.627 61.8471 50.7411 62.2156 50.528C62.2586 50.5031 62.2976 50.4737 62.3341 50.4428L62.3415 50.4555L63.8223 49.6009L63.8154 49.589C64.1022 49.3522 64.191 48.9457 64.0208 48.6066L64.0229 48.6054Z" fill="white"/>
</svg>
