<svg width="76" height="64" viewBox="0 0 76 64" fill="none" xmlns="http://www.w3.org/2000/svg">
<path fill-rule="evenodd" clip-rule="evenodd" d="M71.2073 25.4822L75.387 5.77086C76.3997 1.0263 73.6831 -0.826154 70.5777 0.337708L3.50843 26.1776C-1.06601 27.9679 -0.998498 30.5333 2.73072 31.6972L19.8781 37.0655L59.7086 11.9844C61.58 10.7342 63.2866 11.4282 61.8851 12.6757L29.667 41.7885L28.4167 59.4921C30.207 59.4921 30.982 58.7171 31.911 57.7882L40.2983 49.7195L57.6834 62.5301C60.8725 64.3177 63.1165 63.3726 63.9779 59.5758L64.7689 55.8455C64.0272 55.9476 63.2698 56.0003 62.5 56.0003C53.3873 56.0003 46 48.613 46 39.5003C46 30.3876 53.3873 23.0003 62.5 23.0003C65.6961 23.0003 68.68 23.909 71.2073 25.4822Z" fill="white"/>
<path d="M61.5 27.9C59.9617 27.9 58.4865 28.5111 57.3988 29.5988C56.3111 30.6865 55.7 32.1617 55.7 33.7C55.7 35.2383 56.3111 36.7135 57.3988 37.8012C58.4865 38.8889 59.9617 39.5 61.5 39.5C63.0383 39.5 64.5135 38.8889 65.6012 37.8012C66.6889 36.7135 67.3 35.2383 67.3 33.7C67.3 32.1617 66.6889 30.6865 65.6012 29.5988C64.5135 28.5111 63.0383 27.9 61.5 27.9ZM54.263 40.95C53.8812 40.9485 53.5027 41.0223 53.1495 41.1674C52.7962 41.3124 52.4751 41.5258 52.2044 41.7952C51.9338 42.0646 51.719 42.3848 51.5724 42.7374C51.4258 43.09 51.3502 43.4681 51.35 43.85C51.35 46.302 52.5578 48.1507 54.4457 49.3557C56.0088 50.3518 58.0301 50.9072 60.2312 51.058L60.7605 49.3209C60.2908 48.2857 60.0485 47.1618 60.05 46.025C60.05 44.0965 60.7344 42.3275 61.8726 40.95H54.263ZM74.55 46.025C74.5502 47.1607 74.254 48.2769 73.6906 49.263C73.1272 50.2492 72.3162 51.0712 71.3377 51.6478C70.3592 52.2244 69.2472 52.5356 68.1115 52.5507C66.9759 52.5657 65.856 52.2841 64.8625 51.7337L62.267 52.5225C62.1644 52.5531 62.0553 52.5553 61.9514 52.529C61.8475 52.5027 61.7527 52.4488 61.6769 52.3731C61.6012 52.2973 61.5473 52.2025 61.521 52.0986C61.4947 51.9947 61.497 51.8856 61.5275 51.783L62.3163 49.1889C61.8341 48.3177 61.5576 47.3478 61.5081 46.3533C61.4585 45.3588 61.6373 44.3661 62.0306 43.4513C62.4239 42.5366 63.0214 41.724 63.7772 41.0757C64.533 40.4275 65.4272 39.9609 66.3912 39.7115C67.3553 39.4622 68.3636 39.4368 69.3389 39.6373C70.3142 39.8379 71.2308 40.2589 72.0182 40.8683C72.8057 41.4777 73.4433 42.2592 73.8822 43.153C74.321 44.0469 74.5494 45.0293 74.55 46.025ZM65.125 43.85C64.9327 43.85 64.7483 43.9264 64.6123 44.0623C64.4764 44.1983 64.4 44.3827 64.4 44.575C64.4 44.7673 64.4764 44.9517 64.6123 45.0877C64.7483 45.2236 64.9327 45.3 65.125 45.3H70.925C71.1173 45.3 71.3017 45.2236 71.4377 45.0877C71.5736 44.9517 71.65 44.7673 71.65 44.575C71.65 44.3827 71.5736 44.1983 71.4377 44.0623C71.3017 43.9264 71.1173 43.85 70.925 43.85H65.125ZM64.4 47.475C64.4 47.6673 64.4764 47.8517 64.6123 47.9877C64.7483 48.1236 64.9327 48.2 65.125 48.2H68.025C68.2173 48.2 68.4017 48.1236 68.5377 47.9877C68.6736 47.8517 68.75 47.6673 68.75 47.475C68.75 47.2827 68.6736 47.0983 68.5377 46.9623C68.4017 46.8264 68.2173 46.75 68.025 46.75H65.125C64.9327 46.75 64.7483 46.8264 64.6123 46.9623C64.4764 47.0983 64.4 47.2827 64.4 47.475Z" fill="white"/>
</svg>
