<svg width="20" height="20" viewBox="0 0 20 20" fill="none" xmlns="http://www.w3.org/2000/svg">
<g clip-path="url(#clip0_211_9290)">
<mask id="mask0_211_9290" style="mask-type:luminance" maskUnits="userSpaceOnUse" x="-3" y="0" width="27" height="20">
<rect x="-3" width="26.6667" height="20" fill="white"/>
</mask>
<g mask="url(#mask0_211_9290)">
<path fill-rule="evenodd" clip-rule="evenodd" d="M-3 0V20H23.6667V0H-3Z" fill="#E31D1C"/>
<mask id="mask1_211_9290" style="mask-type:luminance" maskUnits="userSpaceOnUse" x="-3" y="0" width="27" height="20">
<path fill-rule="evenodd" clip-rule="evenodd" d="M-3 0V20H23.6667V0H-3Z" fill="white"/>
</mask>
<g mask="url(#mask1_211_9290)">
<path fill-rule="evenodd" clip-rule="evenodd" d="M10.3543 13.4279C8.56985 12.9883 7.17225 11.4947 7.18847 9.30521C7.20365 7.25571 8.44453 5.52333 10.4062 5.05436C12.3678 4.58539 14.0948 5.5809 14.0948 5.5809C13.5527 4.30106 11.6692 3.40193 10.125 3.40452C7.25066 3.40933 4.18659 5.74037 4.16018 9.30521C4.1328 13.001 7.44134 15.1058 10.3512 15.1009C12.6839 15.097 13.7904 13.5011 14.0196 12.8222C14.0196 12.8222 12.1387 13.8675 10.3543 13.4279ZM14.4192 8.60528L12.6413 9.25834L14.6473 9.966L14.6131 12.0805L15.9349 10.4941L18.1183 10.6528L16.388 9.16551L17.524 7.57901L15.6744 8.20149L14.3524 6.73183L14.4192 8.60528Z" fill="#F7FCFF"/>
</g>
</g>
</g>
<defs>
<clipPath id="clip0_211_9290">
<rect width="20" height="20" rx="10" fill="white"/>
</clipPath>
</defs>
</svg>
