<svg width="80" height="80" viewBox="0 0 80 80" fill="none" xmlns="http://www.w3.org/2000/svg">
<g clip-path="url(#clip0_212_8091)">
<path d="M67.2247 28.076C64.4135 25.4792 60.5246 21.5135 57.3573 18.701L57.1699 18.5698C56.858 18.3193 56.5065 18.1228 56.1297 17.9885C48.4925 16.5635 12.9491 9.91667 12.2557 10.001C12.0614 10.0283 11.8757 10.0987 11.7122 10.2073L11.5341 10.3479C11.3149 10.5707 11.1484 10.8398 11.0469 11.1354L11 11.2573V11.9229V12.026C15.0013 23.1729 30.8005 59.6885 33.9116 68.2573C34.099 68.8385 34.4551 69.9448 35.1204 70.001H35.2703C35.6264 70.001 37.1445 67.9948 37.1445 67.9948C37.1445 67.9948 64.2823 35.0698 67.0279 31.5635C67.3833 31.1316 67.6971 30.6671 67.965 30.176C68.0334 29.7918 68.0012 29.3965 67.8714 29.0285C67.7417 28.6604 67.5189 28.3323 67.2247 28.076ZM44.107 31.9104L55.6893 22.301L62.4831 28.5635L44.107 31.9104ZM39.609 31.2823L19.668 14.9323L51.9316 20.8854L39.609 31.2823ZM41.4082 35.5667L61.8178 32.276L38.4845 60.401L41.4082 35.5667ZM16.9598 16.5635L37.941 34.376L34.9049 60.4198L16.9598 16.5635Z" fill="#ED4949"/>
</g>
<defs>
<clipPath id="clip0_212_8091">
<rect width="60" height="60" fill="white" transform="translate(10 10)"/>
</clipPath>
</defs>
</svg>
