<?xml version="1.0" encoding="UTF-8"?>
<svg xmlns="http://www.w3.org/2000/svg" xmlns:xlink="http://www.w3.org/1999/xlink" width="20px" height="20px" viewBox="0 0 20 20" version="1.1">
<g id="surface1">
<path style=" stroke:none;fill-rule:nonzero;fill:rgb(29.803922%,58.039216%,56.078431%);fill-opacity:1;" d="M 19.074219 6.023438 C 18.136719 5.160156 16.839844 3.835938 15.785156 2.898438 L 15.722656 2.855469 C 15.621094 2.773438 15.503906 2.707031 15.375 2.664062 C 12.832031 2.1875 0.984375 -0.0273438 0.75 0 C 0.6875 0.0078125 0.625 0.03125 0.570312 0.0703125 L 0.511719 0.117188 C 0.4375 0.191406 0.382812 0.28125 0.347656 0.378906 L 0.332031 0.417969 L 0.332031 0.675781 C 1.667969 4.390625 6.933594 16.5625 7.96875 19.417969 C 8.03125 19.613281 8.152344 19.980469 8.375 20 L 8.421875 20 C 8.542969 20 9.046875 19.332031 9.046875 19.332031 C 9.046875 19.332031 18.09375 8.355469 19.007812 7.1875 C 19.128906 7.042969 19.230469 6.890625 19.320312 6.726562 C 19.34375 6.597656 19.332031 6.464844 19.289062 6.34375 C 19.246094 6.21875 19.171875 6.109375 19.074219 6.023438 Z M 11.367188 7.304688 L 15.230469 4.101562 L 17.496094 6.1875 Z M 9.871094 7.09375 L 3.222656 1.644531 L 13.976562 3.628906 Z M 10.46875 8.523438 L 17.273438 7.425781 L 9.496094 16.800781 Z M 2.320312 2.1875 L 9.3125 8.125 L 8.300781 16.804688 Z M 2.320312 2.1875 "/>
</g>
</svg>
