<svg width="80" height="80" viewBox="0 0 80 80" fill="none" xmlns="http://www.w3.org/2000/svg">
<g clip-path="url(#clip0_208_9180)">
<circle cx="54" cy="54" r="16" fill="#F3BA2F"/>
<path fill-rule="evenodd" clip-rule="evenodd" d="M64.2848 39.2257C64.9783 39.7094 65.6361 40.2406 66.2536 40.8147C68.6405 39.7689 70 38.5652 70 37.2842C70 33.7652 59.7481 30.8291 46.104 30.1441V22.1678H62.923V10H17.131V22.1678H33.9472V30.1439C20.2789 30.8256 10 33.765 10 37.2873C10 40.8096 20.2789 43.746 33.9472 44.4307V70H45.7456C39.9569 67.0075 36 60.9659 36 54C36 49.578 37.5946 45.5284 40.24 42.3949C40.1846 42.395 40.1288 42.395 40.0725 42.395C36.9473 42.395 34.7284 42.2932 33.95 42.2531C21.8727 41.6763 12.8581 39.3939 12.8581 36.6612C12.8581 33.9284 21.8727 31.6491 33.95 31.0631V39.9799C34.7398 40.0416 37.0013 40.1866 40.1264 40.1866C41.018 40.1866 41.8037 40.177 42.4881 40.1619C43.5866 39.2471 44.7958 38.4605 46.0926 37.8253V31.0692C58.1443 31.6522 67.1391 33.9346 67.1391 36.6612C67.1391 37.583 66.1113 38.4541 64.2848 39.2257ZM46.104 30.1441C46.103 30.144 46.1021 30.144 46.1011 30.1439L46.104 30.147V30.1441Z" fill="#50AF95"/>
<path d="M49.3387 52.0847L54 47.4239L58.6627 52.0866L61.3748 49.3748L54 42L46.627 49.3725L49.3387 52.0842M42 54L44.7122 51.2873L47.4239 54L44.7117 56.7108L42 54ZM49.3387 55.9148L54 60.5752L58.6627 55.9125L61.3762 58.6228L54 66L46.627 58.6266L46.6233 58.6223L49.3387 55.9144M60.5752 54L63.2869 51.2883L66 54L63.2883 56.7117L60.5752 54Z" fill="white"/>
<path d="M56.7983 54.0009L54.0014 51.2002L51.9321 53.2682L51.6937 53.5066L51.204 53.9961L51.2002 54L51.204 54.0038L54.0014 56.8002L56.8002 54.0019H56.7978" fill="white"/>
</g>
<defs>
<clipPath id="clip0_208_9180">
<rect width="60" height="60" fill="white" transform="translate(10 10)"/>
</clipPath>
</defs>
</svg>
