<svg width="80" height="80" viewBox="0 0 80 80" fill="none" xmlns="http://www.w3.org/2000/svg">
<g clip-path="url(#clip0_208_7940)">
<circle cx="54" cy="54" r="16" fill="#ED4949"/>
<path fill-rule="evenodd" clip-rule="evenodd" d="M64.2848 39.2257C64.9783 39.7094 65.6361 40.2406 66.2536 40.8147C68.6405 39.7689 70 38.5652 70 37.2842C70 33.7652 59.7481 30.8291 46.104 30.1441V22.1678H62.923V10H17.131V22.1678H33.9472V30.1439C20.2789 30.8256 10 33.765 10 37.2873C10 40.8096 20.2789 43.746 33.9472 44.4307V70H45.7456C39.9569 67.0075 36 60.9659 36 54C36 49.578 37.5946 45.5284 40.24 42.3949C40.1846 42.395 40.1288 42.395 40.0725 42.395C36.9473 42.395 34.7284 42.2932 33.95 42.2531C21.8727 41.6763 12.8581 39.3939 12.8581 36.6612C12.8581 33.9284 21.8727 31.6491 33.95 31.0631V39.9799C34.7398 40.0416 37.0013 40.1866 40.1264 40.1866C41.018 40.1866 41.8037 40.177 42.4881 40.1619C43.5866 39.2471 44.7958 38.4605 46.0926 37.8253V31.0692C58.1443 31.6522 67.1391 33.9346 67.1391 36.6612C67.1391 37.583 66.1113 38.4541 64.2848 39.2257ZM46.104 30.1441C46.103 30.144 46.1021 30.144 46.1011 30.1439L46.104 30.147V30.1441Z" fill="#50AF95"/>
<g clip-path="url(#clip1_208_7940)">
<path d="M63.2344 50.0248C62.2969 49.1592 61 47.8373 59.9438 46.8998L59.8813 46.856C59.7773 46.7725 59.66 46.707 59.5344 46.6623C56.9875 46.1873 45.1344 43.9717 44.9031 43.9998C44.8383 44.0089 44.7764 44.0323 44.7219 44.0685L44.6625 44.1154C44.5894 44.1897 44.5339 44.2794 44.5 44.3779L44.4844 44.4185V44.6404V44.6748C45.8187 48.3904 51.0875 60.5623 52.125 63.4185C52.1875 63.6123 52.3063 63.981 52.5281 63.9998H52.5781C52.6969 63.9998 53.2031 63.331 53.2031 63.331C53.2031 63.331 62.2531 52.356 63.1688 51.1873C63.2873 51.0433 63.3919 50.8885 63.4813 50.7248C63.5041 50.5967 63.4933 50.4649 63.45 50.3423C63.4068 50.2196 63.3325 50.1102 63.2344 50.0248ZM55.525 51.3029L59.3875 48.0998L61.6531 50.1873L55.525 51.3029ZM54.025 51.0935L47.375 45.6435L58.1344 47.6279L54.025 51.0935ZM54.625 52.5217L61.4312 51.4248L53.65 60.7998L54.625 52.5217ZM46.4719 46.1873L53.4688 52.1248L52.4563 60.806L46.4719 46.1873Z" fill="white"/>
</g>
</g>
<defs>
<clipPath id="clip0_208_7940">
<rect width="60" height="60" fill="white" transform="translate(10 10)"/>
</clipPath>
<clipPath id="clip1_208_7940">
<rect width="20" height="20" fill="white" transform="translate(44 44)"/>
</clipPath>
</defs>
</svg>
