<svg width="21" height="21" viewBox="0 0 21 21" fill="none" xmlns="http://www.w3.org/2000/svg">
<g clip-path="url(#clip0_217_13162)">
<path fill-rule="evenodd" clip-rule="evenodd" d="M18.113 9.73424C18.3511 9.89173 18.5774 10.0656 18.7903 10.2543C19.5617 9.90972 20 9.51468 20 9.09474C20 7.92174 16.5827 6.94302 12.0347 6.71469V4.05593H17.641V0H2.37701V4.05593H7.98239V6.71464C3.4263 6.94186 0 7.92166 0 9.09577C0 10.2699 3.4263 11.2487 7.98239 11.4769V20H11.7249C9.93566 18.9499 8.73438 17.0058 8.73438 14.7812C8.73438 13.2556 9.29939 11.8619 10.2316 10.798C10.1646 10.7982 10.0954 10.7983 10.0241 10.7983C8.98243 10.7983 8.24282 10.7644 7.98333 10.751C3.95757 10.5588 0.952696 9.79797 0.952696 8.88706C0.952696 7.97615 3.95757 7.21637 7.98333 7.02102V9.99332C8.2466 10.0139 9.00043 10.0622 10.0421 10.0622C10.424 10.0622 10.7476 10.0569 11.0162 10.0493C11.3304 9.79891 11.6702 9.57919 12.0309 9.39463V7.02308C16.0481 7.2174 19.0464 7.9782 19.0464 8.88706C19.0464 9.19129 18.7105 9.47892 18.113 9.73424ZM12.0347 6.71469C12.0343 6.71468 12.034 6.71466 12.0337 6.71464L12.0347 6.71567V6.71469Z" fill="#4C948F"/>
<path fill-rule="evenodd" clip-rule="evenodd" d="M14.7812 20.1562C17.7498 20.1562 20.1562 17.7498 20.1562 14.7812C20.1562 11.8127 17.7498 9.40625 14.7812 9.40625C11.8127 9.40625 9.40625 11.8127 9.40625 14.7812C9.40625 17.7498 11.8127 20.1562 14.7812 20.1562ZM14.7812 12.5721L13.2154 14.1378L12.3044 13.2267L14.7812 10.75L17.2587 13.2275L16.3476 14.1385L14.7812 12.5721ZM11.6611 13.87L10.75 14.7812L11.661 15.6919L12.5721 14.7812L11.6611 13.87ZM14.7812 16.9901L13.2154 15.4245L12.3031 16.3341L12.3044 16.3355L14.7812 18.8125L17.2592 16.3342L16.3476 15.4237L14.7812 16.9901ZM17.9011 13.8703L16.9901 14.7812L17.9015 15.6922L18.8125 14.7812L17.9011 13.8703ZM14.7817 13.8406L15.7212 14.7815L15.7211 14.7818H15.7219L14.7817 15.7219L13.8406 14.7812L14.7817 13.8406Z" fill="#4C948F"/>
</g>
<defs>
<clipPath id="clip0_217_13162">
<rect width="20.1562" height="20.1562" fill="white"/>
</clipPath>
</defs>
</svg>
