<svg width="21" height="21" viewBox="0 0 21 21" fill="none" xmlns="http://www.w3.org/2000/svg">
<g clip-path="url(#clip0_217_13209)">
<path fill-rule="evenodd" clip-rule="evenodd" d="M18.6989 9.73424C18.937 9.89173 19.1633 10.0656 19.3762 10.2543C20.1476 9.90972 20.5859 9.51468 20.5859 9.09474C20.5859 7.92174 17.1686 6.94302 12.6206 6.71469V4.05593H18.2269V0H2.96294V4.05593H8.56832V6.71464C4.01224 6.94186 0.585938 7.92166 0.585938 9.09577C0.585938 10.2699 4.01224 11.2487 8.56832 11.4769V20H12.3109C10.5216 18.9499 9.32031 17.0058 9.32031 14.7812C9.32031 13.2556 9.88533 11.8619 10.8175 10.798C10.7505 10.7982 10.6814 10.7983 10.6101 10.7983C9.56837 10.7983 8.82875 10.7644 8.56927 10.751C4.54351 10.5588 1.53863 9.79797 1.53863 8.88706C1.53863 7.97615 4.54351 7.21637 8.56927 7.02102V9.99332C8.83254 10.0139 9.58636 10.0622 10.6281 10.0622C11.0099 10.0622 11.3336 10.0569 11.6021 10.0493C11.9163 9.79891 12.2561 9.57919 12.6168 9.39463V7.02308C16.634 7.2174 19.6323 7.9782 19.6323 8.88706C19.6323 9.19129 19.2965 9.47892 18.6989 9.73424ZM12.6206 6.71469C12.6203 6.71468 12.62 6.71466 12.6197 6.71464L12.6206 6.71567V6.71469Z" fill="#4C948F"/>
<path fill-rule="evenodd" clip-rule="evenodd" d="M15.3672 20.1562C18.3357 20.1562 20.7422 17.7498 20.7422 14.7812C20.7422 11.8127 18.3357 9.40625 15.3672 9.40625C12.3987 9.40625 9.99219 11.8127 9.99219 14.7812C9.99219 17.7498 12.3987 20.1562 15.3672 20.1562ZM13.0156 14.856L15.3665 10.75L17.7173 14.856L15.3665 16.3187L13.0156 14.856ZM15.3664 18.8125L13.0156 15.3253L15.3664 16.7873L17.7187 15.3253L15.3664 18.8125Z" fill="#4C948F"/>
</g>
<defs>
<clipPath id="clip0_217_13209">
<rect width="20.1562" height="20.1562" fill="white" transform="translate(0.585938)"/>
</clipPath>
</defs>
</svg>
