<svg width="21" height="21" viewBox="0 0 21 21" fill="none" xmlns="http://www.w3.org/2000/svg">
<g clip-path="url(#clip0_217_13115)">
<path fill-rule="evenodd" clip-rule="evenodd" d="M18.9567 9.73424C19.1948 9.89173 19.4211 10.0656 19.634 10.2543C20.4054 9.90972 20.8438 9.51468 20.8438 9.09474C20.8438 7.92174 17.4265 6.94302 12.8784 6.71469V4.05593H18.4847V0H3.22076V4.05593H8.82614V6.71464C4.27005 6.94186 0.84375 7.92166 0.84375 9.09577C0.84375 10.2699 4.27005 11.2487 8.82614 11.4769V20H12.5687C10.7794 18.9499 9.57812 17.0058 9.57812 14.7812C9.57812 13.2556 10.1431 11.8619 11.0753 10.798C11.0083 10.7982 10.9392 10.7983 10.8679 10.7983C9.82618 10.7983 9.08657 10.7644 8.82708 10.751C4.80132 10.5588 1.79645 9.79797 1.79645 8.88706C1.79645 7.97615 4.80132 7.21637 8.82708 7.02102V9.99332C9.09035 10.0139 9.84418 10.0622 10.8859 10.0622C11.2677 10.0622 11.5914 10.0569 11.8599 10.0493C12.1742 9.79891 12.5139 9.57919 12.8746 9.39463V7.02308C16.8919 7.2174 19.8901 7.9782 19.8901 8.88706C19.8901 9.19129 19.5543 9.47892 18.9567 9.73424ZM12.8784 6.71469C12.8781 6.71468 12.8778 6.71466 12.8775 6.71464L12.8784 6.71567V6.71469Z" fill="#4C948F"/>
<path fill-rule="evenodd" clip-rule="evenodd" d="M15.625 20.1562C18.5935 20.1562 21 17.7498 21 14.7812C21 11.8127 18.5935 9.40625 15.625 9.40625C12.6565 9.40625 10.25 11.8127 10.25 14.7812C10.25 17.7498 12.6565 20.1562 15.625 20.1562ZM18.4567 13.024C18.6149 13.1776 18.7666 13.325 18.8976 13.446C18.9305 13.4747 18.9555 13.5114 18.97 13.5526C18.9845 13.5938 18.9881 13.6381 18.9805 13.6811C18.9505 13.7361 18.9153 13.7881 18.8755 13.8365C18.5681 14.2291 15.5292 17.916 15.5292 17.916C15.5292 17.916 15.3592 18.1406 15.3193 18.1406H15.3025C15.2281 18.1343 15.1882 18.0107 15.1672 17.9455L15.1672 17.9454C15.0076 17.5058 14.5498 16.4094 14.0574 15.2303C13.4751 13.8356 12.8444 12.3251 12.6016 11.6487V11.6372V11.5626L12.6068 11.549C12.6182 11.5159 12.6368 11.4857 12.6614 11.4608L12.6813 11.4451C12.6996 11.4329 12.7204 11.425 12.7422 11.422C12.8157 11.413 16.3918 12.0806 17.4952 12.2865C17.5565 12.298 17.6101 12.308 17.6552 12.3164C17.6973 12.3314 17.7367 12.3534 17.7716 12.3815L17.7926 12.3962C17.9998 12.5801 18.2345 12.8082 18.4567 13.024ZM17.6058 12.7993L16.3089 13.8753L18.3666 13.5005L17.6058 12.7993ZM13.5722 11.9742L15.8052 13.805L17.185 12.6408L13.5722 11.9742ZM18.2921 13.9163L16.0066 14.2847L15.6793 17.0656L18.2921 13.9163ZM15.6184 14.1514L13.2689 12.1568L15.2784 17.0677L15.6184 14.1514Z" fill="#4C948F"/>
</g>
<defs>
<clipPath id="clip0_217_13115">
<rect width="20.1562" height="20.1562" fill="white" transform="translate(0.84375)"/>
</clipPath>
</defs>
</svg>
