<svg width="80" height="80" viewBox="0 0 80 80" fill="none" xmlns="http://www.w3.org/2000/svg">
<path d="M61.2951 15H70L51.8845 33.0894C45.3241 39.6369 34.6877 39.6369 28.1226 33.0894L10 15H18.7119L32.475 28.7415C34.4803 30.7346 37.1827 31.852 39.9982 31.852C42.8138 31.852 45.5162 30.7346 47.5215 28.7415L61.2951 15Z" fill="#23292F"/>
<path d="M18.6777 65H10L28.1641 46.8869C34.6996 40.371 45.2957 40.371 51.8359 46.8869L70 65H61.3281L47.5 51.2139C45.5023 49.2303 42.8101 48.1184 40.0053 48.1184C37.2004 48.1184 34.5082 49.2303 32.5105 51.2139L18.6777 65Z" fill="#23292F"/>
</svg>
