<svg width="20" height="20" viewBox="0 0 20 20" fill="none" xmlns="http://www.w3.org/2000/svg">
<path d="M17.0984 2H20L13.9615 8.29197C11.7747 10.5693 8.22923 10.5693 6.04086 8.29197L0 2H2.90397L7.49167 6.77964C8.16009 7.47292 9.06091 7.86156 9.99941 7.86156C10.9379 7.86156 11.8387 7.47292 12.5072 6.77964L17.0984 2Z" fill="#4C948F"/>
<path d="M2.89258 19H0L6.05469 12.6998C8.2332 10.4334 11.7652 10.4334 13.9453 12.6998L20 19H17.1094L12.5 14.2048C11.8341 13.5149 10.9367 13.1281 10.0018 13.1281C9.06681 13.1281 8.16941 13.5149 7.50352 14.2048L2.89258 19Z" fill="#4C948F"/>
</svg>
